<svg width="34" height="34" viewBox="0 0 34 34" fill="none" xmlns="http://www.w3.org/2000/svg">
<path d="M16.9988 33.9975C26.3869 33.9975 33.9975 26.3869 33.9975 16.9988C33.9975 7.61061 26.3869 0 16.9988 0C7.61061 0 0 7.61061 0 16.9988C0 26.3869 7.61061 33.9975 16.9988 33.9975Z" fill="#F1625D"/>
<path opacity="0.2" d="M33.6202 20.5839L20.4515 7.51318L14.4087 13.1982L8.00073 19.2999L21.9683 33.2674C24.8626 32.3799 27.468 30.7368 29.5161 28.5074C31.5641 26.278 32.9808 23.5429 33.6202 20.5839V20.5839Z" fill="#997E2E"/>
<path d="M15.1928 8.89025L14.0239 7.71403C13.9623 7.6447 13.8872 7.58868 13.8031 7.54941C13.7191 7.51014 13.6279 7.48845 13.5352 7.48566C13.4425 7.48287 13.3502 7.49905 13.2639 7.5332C13.1777 7.56735 13.0993 7.61876 13.0337 7.68426C12.968 7.74977 12.9164 7.828 12.882 7.91416C12.8476 8.00032 12.8312 8.09259 12.8338 8.18531C12.8363 8.27804 12.8578 8.36926 12.8969 8.4534C12.9359 8.53754 12.9917 8.61281 13.0609 8.67461L14.4013 9.94395C14.5762 9.53399 14.8478 9.17246 15.1928 8.89025V8.89025Z" fill="white"/>
<path d="M18.6234 8.89025C18.9691 9.17178 19.2408 9.53349 19.4149 9.94395L20.7578 8.67461C20.8269 8.61281 20.8828 8.53754 20.9218 8.4534C20.9609 8.36926 20.9823 8.27804 20.9849 8.18531C20.9875 8.09259 20.971 8.00032 20.9367 7.91416C20.9023 7.828 20.8507 7.74977 20.785 7.68426C20.7193 7.61876 20.641 7.56735 20.5547 7.5332C20.4685 7.49905 20.3762 7.48287 20.2835 7.48566C20.1907 7.48845 20.0996 7.51014 20.0155 7.54941C19.9315 7.58868 19.8564 7.6447 19.7947 7.71403L18.6234 8.89025Z" fill="white"/>
<path d="M16.2269 25.0755V26.7099C16.2373 26.8832 16.3135 27.046 16.4398 27.165C16.5662 27.284 16.7333 27.3503 16.9069 27.3503C17.0805 27.3503 17.2475 27.284 17.3739 27.165C17.5003 27.046 17.5765 26.8832 17.5869 26.7099V25.0657C17.1372 25.1473 16.6765 25.1473 16.2269 25.0657V25.0755Z" fill="white"/>
<path d="M16.9081 14.3867C16.8829 14.6155 16.8419 14.8423 16.7856 15.0655C16.5972 15.8051 16.2919 16.5099 15.8814 17.1533C16.5557 17.3133 17.2581 17.3133 17.9324 17.1533C17.523 16.5137 17.2178 15.8131 17.0282 15.0777C16.9721 14.8505 16.9319 14.6196 16.9081 14.3867Z" fill="white"/>
<path d="M23.9997 14.0044C22.6765 12.6812 21.0592 11.9289 19.8143 11.9289C19.5491 11.9153 19.2837 11.9546 19.0338 12.0446C18.7839 12.1347 18.5544 12.2736 18.3588 12.4533C17.2512 13.5609 17.9618 16.1461 19.9099 18.0893C21.2332 19.4126 22.8505 20.1649 24.0977 20.1649C24.3626 20.1785 24.6276 20.1391 24.8771 20.0491C25.1266 19.959 25.3557 19.8201 25.5509 19.6405C26.6609 18.5329 25.9503 15.9501 23.9997 14.0044V14.0044Z" fill="white"/>
<path d="M15.455 12.4532C15.2578 12.2712 15.026 12.1308 14.7734 12.0403C14.5208 11.9498 14.2526 11.911 13.9847 11.9264C13.6723 11.9291 13.3613 11.9694 13.0585 12.0464C11.8172 12.397 10.6926 13.074 9.80181 14.0068C7.8537 15.9672 7.14307 18.5401 8.25067 19.6428C9.35828 20.7455 11.9411 20.0423 13.8867 18.0917C15.8324 16.1411 16.5454 13.5584 15.4378 12.4557L15.455 12.4532Z" fill="white"/>
<path d="M14.0166 20.6694V21.2918C14.0166 22.0587 14.3212 22.7942 14.8635 23.3365C15.4057 23.8787 16.1412 24.1834 16.9081 24.1834C17.675 24.1834 18.4105 23.8787 18.9527 23.3365C19.495 22.7942 19.7996 22.0587 19.7996 21.2918V20.6694C18.9645 21.2874 17.9467 21.6083 16.9081 21.581C15.8694 21.6096 14.8511 21.2886 14.0166 20.6694V20.6694Z" fill="white"/>
<path d="M15.2908 17.9692C15.0678 18.2483 14.8297 18.5149 14.5777 18.7681C14.416 18.9298 14.2518 19.0817 14.0876 19.2288C14.3743 20.0178 15.5579 20.628 16.913 20.628C18.2681 20.628 19.4517 20.0178 19.7384 19.2288C19.5693 19.0817 19.4027 18.9298 19.2483 18.7681C18.9955 18.5149 18.7566 18.2483 18.5328 17.9692C17.4801 18.2959 16.3532 18.2959 15.3006 17.9692H15.2908Z" fill="white"/>
<path d="M15.1389 11.1521C15.509 11.2841 15.8442 11.4986 16.1191 11.7794C16.5651 12.2311 16.8434 12.8216 16.9081 13.4531C16.9692 12.8231 17.2432 12.2328 17.6849 11.7794C17.96 11.4989 18.2951 11.2844 18.6651 11.1521V11.0026C18.6651 10.5334 18.4787 10.0834 18.1469 9.75159C17.8151 9.4198 17.3651 9.2334 16.8959 9.2334C16.4266 9.2334 15.9766 9.4198 15.6448 9.75159C15.313 10.0834 15.1266 10.5334 15.1266 11.0026L15.1389 11.1521Z" fill="white"/>
</svg>
