<svg width="35" height="35" viewBox="0 0 35 35" fill="none" xmlns="http://www.w3.org/2000/svg">
<path d="M34.6132 21.1516C36.3999 11.9361 30.3776 3.01706 21.1622 1.23038C11.9467 -0.556293 3.02764 5.46595 1.24097 14.6814C-0.545711 23.8969 5.47653 32.8159 14.692 34.6026C23.9075 36.3893 32.8265 30.3671 34.6132 21.1516Z" fill="#5BC4BE"/>
<path opacity="0.2" d="M34.7191 21.3769L20.1071 6.76489L18.584 21.7781L14.9632 18.1548L12.4866 26.1344L21.0854 34.7406C24.432 34.128 27.5188 32.5279 29.9485 30.1463C32.3782 27.7648 34.0397 24.7106 34.7191 21.3769V21.3769Z" fill="#544C72"/>
<path d="M15.1292 23.5092C15.1512 22.7551 15.4663 22.0392 16.0075 21.5135C16.5488 20.9879 17.2735 20.6938 18.028 20.6938C18.7825 20.6938 19.5073 20.9879 20.0485 21.5135C20.5898 22.0392 20.9048 22.7551 20.9269 23.5092C20.9269 25.1116 18.0268 30.5081 18.0268 30.5081C18.0268 30.5081 15.1292 25.1116 15.1292 23.5092Z" fill="#FBE9BE"/>
<path d="M20.9269 23.5092C20.9269 23.1285 20.8518 22.7515 20.7061 22.3998C20.5603 22.048 20.3466 21.7285 20.0773 21.4594C19.808 21.1903 19.4883 20.9769 19.1364 20.8314C18.7846 20.686 18.4075 20.6112 18.0268 20.6116H17.9896V30.4313L18.0268 30.5031C18.0268 30.5031 20.9269 25.1116 20.9269 23.5092Z" fill="#E5D5AD"/>
<path d="M15.9563 24.0963C15.9563 23.5472 16.1745 23.0206 16.5628 22.6323C16.951 22.244 17.4777 22.0259 18.0268 22.0259C18.5759 22.0259 19.1025 22.244 19.4908 22.6323C19.8791 23.0206 20.0972 23.5472 20.0972 24.0963C20.0972 25.2405 18.0268 29.0941 18.0268 29.0941C18.0268 29.0941 15.9563 25.2306 15.9563 24.0963Z" fill="#FFF4D5"/>
<path opacity="0.2" d="M20.0972 24.0963C20.0972 23.5472 19.8791 23.0206 19.4908 22.6323C19.1025 22.244 18.5759 22.0259 18.0268 22.0259H17.9896V29.0198L18.0268 29.0916C18.0268 29.0916 20.0972 25.2306 20.0972 24.0963Z" fill="#544C72"/>
<path d="M22.8314 14.8782C22.8314 11.292 21.0978 6.92084 18.7103 5.56861C18.5023 5.45051 18.2672 5.38843 18.028 5.38843C17.7888 5.38843 17.5537 5.45051 17.3457 5.56861C14.9459 6.92084 13.2246 11.292 13.2246 14.8782C13.2507 17.7463 13.956 20.5674 15.2827 23.1104H20.7709C21.4173 21.8127 22.8314 19.3682 22.8314 14.8782Z" fill="white"/>
<path opacity="0.2" d="M22.8314 14.8783C22.8314 11.2921 21.0978 6.92092 18.7103 5.5687C18.4907 5.44526 18.2414 5.38444 17.9896 5.39286V23.1105H20.7733C21.4172 21.8127 22.8314 19.3683 22.8314 14.8783Z" fill="#544C72"/>
<path d="M18.7103 5.56861C18.5023 5.45051 18.2672 5.38843 18.028 5.38843C17.7888 5.38843 17.5537 5.45051 17.3457 5.56861C16.3154 6.14814 15.409 7.30223 14.7106 8.68418H21.3454C20.647 7.28985 19.7406 6.16052 18.7103 5.56861Z" fill="#E8E8E8"/>
<path opacity="0.2" d="M18.7103 5.5687C18.4907 5.44526 18.2414 5.38444 17.9896 5.39286V8.68426H21.3454C20.647 7.28994 19.7406 6.16061 18.7103 5.5687Z" fill="#544C72"/>
<path d="M18.0268 16.2504C19.5423 16.2504 20.7709 15.0218 20.7709 13.5063C20.7709 11.9908 19.5423 10.7622 18.0268 10.7622C16.5113 10.7622 15.2827 11.9908 15.2827 13.5063C15.2827 15.0218 16.5113 16.2504 18.0268 16.2504Z" fill="#E8E8E8"/>
<path opacity="0.2" d="M18.0268 10.7622H17.9896V16.2504H18.0268C18.7545 16.2504 19.4525 15.9613 19.9671 15.4466C20.4817 14.932 20.7709 14.2341 20.7709 13.5063C20.7709 12.7785 20.4817 12.0805 19.9671 11.5659C19.4525 11.0513 18.7545 10.7622 18.0268 10.7622V10.7622Z" fill="#544C72"/>
<path d="M18.0268 15.5644C19.1634 15.5644 20.0848 14.6429 20.0848 13.5063C20.0848 12.3697 19.1634 11.4482 18.0268 11.4482C16.8901 11.4482 15.9687 12.3697 15.9687 13.5063C15.9687 14.6429 16.8901 15.5644 18.0268 15.5644Z" fill="white"/>
<path opacity="0.2" d="M18.0268 11.4482H17.9896V15.5718H18.0268C18.297 15.5718 18.5647 15.5186 18.8144 15.4151C19.0641 15.3117 19.2909 15.1601 19.482 14.969C19.6731 14.7779 19.8247 14.551 19.9282 14.3013C20.0316 14.0516 20.0848 13.784 20.0848 13.5137C20.0848 13.2435 20.0316 12.9758 19.9282 12.7261C19.8247 12.4765 19.6731 12.2496 19.482 12.0585C19.2909 11.8674 19.0641 11.7158 18.8144 11.6123C18.5647 11.5089 18.297 11.4557 18.0268 11.4557V11.4482Z" fill="#544C72"/>
<path d="M13.9453 17.3423C13.9453 17.3423 9.12091 18.744 11.0155 23.2019C11.4354 24.2119 11.9244 25.1916 12.4792 26.1342H15.097C15.097 26.1342 13.1726 23.2019 15.097 21.7383L13.9453 17.3423Z" fill="#E8E8E8"/>
<path d="M22.1107 17.3423C22.1107 17.3423 26.9351 18.744 25.0405 23.2019C24.6206 24.2123 24.1307 25.1921 23.5744 26.1342H20.9591C20.9591 26.1342 22.8834 23.2019 20.9591 21.7383L22.1107 17.3423Z" fill="#E8E8E8"/>
<path d="M18.4082 25.8571H17.6479C17.5675 25.8551 17.491 25.822 17.4346 25.7647C17.3782 25.7074 17.3463 25.6304 17.3457 25.55V19.299C17.3464 19.218 17.379 19.1405 17.4365 19.0835C17.4941 19.0264 17.5718 18.9944 17.6528 18.9944H18.4131C18.4937 18.995 18.5708 19.0273 18.6278 19.0843C18.6848 19.1413 18.7171 19.2184 18.7177 19.299V25.55C18.7178 25.5905 18.7097 25.6306 18.6941 25.6681C18.6786 25.7055 18.6557 25.7394 18.6269 25.768C18.5981 25.7965 18.564 25.8191 18.5265 25.8344C18.4889 25.8497 18.4487 25.8574 18.4082 25.8571Z" fill="#E8E8E8"/>
<path opacity="0.2" d="M18.4082 18.9944H17.9896V25.8571H18.4082C18.4892 25.8564 18.5667 25.8238 18.6237 25.7662C18.6808 25.7087 18.7128 25.631 18.7128 25.55V19.299C18.7128 19.2182 18.6807 19.1407 18.6236 19.0836C18.5664 19.0265 18.489 18.9944 18.4082 18.9944Z" fill="#544C72"/>
</svg>
