<svg width="40" height="41" viewBox="0 0 40 41" fill="none" xmlns="http://www.w3.org/2000/svg">
<path d="M31.666 11.3337C28.916 11.3337 26.666 10.5837 26.666 9.66699V11.3337C26.666 12.2503 28.916 13.0003 31.666 13.0003C34.416 13.0003 36.666 12.2503 36.666 11.3337V9.66699C36.666 10.5837 34.416 11.3337 31.666 11.3337Z" fill="#FFA000"/>
<path d="M31.666 8.83366C28.916 8.83366 26.666 8.08366 26.666 7.16699V8.83366C26.666 9.75033 28.916 10.5003 31.666 10.5003C34.416 10.5003 36.666 9.75033 36.666 8.83366V7.16699C36.666 8.08366 34.416 8.83366 31.666 8.83366ZM31.666 13.8337C28.916 13.8337 26.666 13.0837 26.666 12.167V13.8337C26.666 14.7503 28.916 15.5003 31.666 15.5003C34.416 15.5003 36.666 14.7503 36.666 13.8337V12.167C36.666 13.0837 34.416 13.8337 31.666 13.8337Z" fill="#FFA000"/>
<path d="M31.666 16.3337C28.916 16.3337 26.666 15.5837 26.666 14.667V16.3337C26.666 17.2503 28.916 18.0003 31.666 18.0003C34.416 18.0003 36.666 17.2503 36.666 16.3337V14.667C36.666 15.5837 34.416 16.3337 31.666 16.3337Z" fill="#FFA000"/>
<path d="M31.666 18.8337C28.916 18.8337 26.666 18.0837 26.666 17.167V18.8337C26.666 19.7503 28.916 20.5003 31.666 20.5003C34.416 20.5003 36.666 19.7503 36.666 18.8337V17.167C36.666 18.0837 34.416 18.8337 31.666 18.8337Z" fill="#FFA000"/>
<path d="M31.666 21.3337C28.916 21.3337 26.666 20.5837 26.666 19.667V21.3337C26.666 22.2503 28.916 23.0003 31.666 23.0003C34.416 23.0003 36.666 22.2503 36.666 21.3337V19.667C36.666 20.5837 34.416 21.3337 31.666 21.3337Z" fill="#FFA000"/>
<path d="M31.666 23.8337C28.916 23.8337 26.666 23.0837 26.666 22.167V23.8337C26.666 24.7503 28.916 25.5003 31.666 25.5003C34.416 25.5003 36.666 24.7503 36.666 23.8337V22.167C36.666 23.0837 34.416 23.8337 31.666 23.8337Z" fill="#FFA000"/>
<path d="M31.666 26.3337C28.916 26.3337 26.666 25.5837 26.666 24.667V26.3337C26.666 27.2503 28.916 28.0003 31.666 28.0003C34.416 28.0003 36.666 27.2503 36.666 26.3337V24.667C36.666 25.5837 34.416 26.3337 31.666 26.3337Z" fill="#FFA000"/>
<path d="M31.666 28.8337C28.916 28.8337 26.666 28.0837 26.666 27.167V28.8337C26.666 29.7503 28.916 30.5003 31.666 30.5003C34.416 30.5003 36.666 29.7503 36.666 28.8337V27.167C36.666 28.0837 34.416 28.8337 31.666 28.8337Z" fill="#FFA000"/>
<path d="M31.666 31.3337C28.916 31.3337 26.666 30.5837 26.666 29.667V31.3337C26.666 32.2503 28.916 33.0003 31.666 33.0003C34.416 33.0003 36.666 32.2503 36.666 31.3337V29.667C36.666 30.5837 34.416 31.3337 31.666 31.3337Z" fill="#FFA000"/>
<path d="M31.666 33.8337C28.916 33.8337 26.666 33.0837 26.666 32.167V33.8337C26.666 34.7503 28.916 35.5003 31.666 35.5003C34.416 35.5003 36.666 34.7503 36.666 33.8337V32.167C36.666 33.0837 34.416 33.8337 31.666 33.8337Z" fill="#FFA000"/>
<path d="M31.666 8.83333C34.4274 8.83333 36.666 8.08714 36.666 7.16667C36.666 6.24619 34.4274 5.5 31.666 5.5C28.9046 5.5 26.666 6.24619 26.666 7.16667C26.666 8.08714 28.9046 8.83333 31.666 8.83333Z" fill="#FFC107"/>
<path d="M31.666 10.5C29.3327 10.5 27.416 10 26.8327 9.25C26.7493 9.41667 26.666 9.5 26.666 9.66667C26.666 10.5833 28.916 11.3333 31.666 11.3333C34.416 11.3333 36.666 10.5833 36.666 9.66667C36.666 9.5 36.5827 9.41667 36.4994 9.25C35.916 10 33.9994 10.5 31.666 10.5ZM31.666 13C29.3327 13 27.416 12.5 26.8327 11.75C26.7493 11.9167 26.666 12 26.666 12.1667C26.666 13.0833 28.916 13.8333 31.666 13.8333C34.416 13.8333 36.666 13.0833 36.666 12.1667C36.666 12 36.5827 11.9167 36.4994 11.75C35.916 12.5 33.9994 13 31.666 13ZM31.666 15.5C29.3327 15.5 27.416 15 26.8327 14.25C26.7493 14.4167 26.666 14.5 26.666 14.6667C26.666 15.5833 28.916 16.3333 31.666 16.3333C34.416 16.3333 36.666 15.5833 36.666 14.6667C36.666 14.5 36.5827 14.4167 36.4994 14.25C35.916 15 33.9994 15.5 31.666 15.5ZM31.666 18C29.3327 18 27.416 17.5 26.8327 16.75C26.7493 16.9167 26.666 17 26.666 17.1667C26.666 18.0833 28.916 18.8333 31.666 18.8333C34.416 18.8333 36.666 18.0833 36.666 17.1667C36.666 17 36.5827 16.9167 36.4994 16.75C35.916 17.5 33.9994 18 31.666 18ZM31.666 20.5C29.3327 20.5 27.416 20 26.8327 19.25C26.7493 19.4167 26.666 19.5 26.666 19.6667C26.666 20.5833 28.916 21.3333 31.666 21.3333C34.416 21.3333 36.666 20.5833 36.666 19.6667C36.666 19.5 36.5827 19.4167 36.4994 19.25C35.916 20 33.9994 20.5 31.666 20.5ZM31.666 23C29.3327 23 27.416 22.5 26.8327 21.75C26.7493 21.9167 26.666 22 26.666 22.1667C26.666 23.0833 28.916 23.8333 31.666 23.8333C34.416 23.8333 36.666 23.0833 36.666 22.1667C36.666 22 36.5827 21.9167 36.4994 21.75C35.916 22.5 33.9994 23 31.666 23ZM31.666 25.5C29.3327 25.5 27.416 25 26.8327 24.25C26.7493 24.4167 26.666 24.5 26.666 24.6667C26.666 25.5833 28.916 26.3333 31.666 26.3333C34.416 26.3333 36.666 25.5833 36.666 24.6667C36.666 24.5 36.5827 24.4167 36.4994 24.25C35.916 25 33.9994 25.5 31.666 25.5ZM31.666 28C29.3327 28 27.416 27.5 26.8327 26.75C26.7493 26.9167 26.666 27 26.666 27.1667C26.666 28.0833 28.916 28.8333 31.666 28.8333C34.416 28.8333 36.666 28.0833 36.666 27.1667C36.666 27 36.5827 26.9167 36.4994 26.75C35.916 27.5 33.9994 28 31.666 28ZM31.666 30.5C29.3327 30.5 27.416 30 26.8327 29.25C26.7493 29.4167 26.666 29.5 26.666 29.6667C26.666 30.5833 28.916 31.3333 31.666 31.3333C34.416 31.3333 36.666 30.5833 36.666 29.6667C36.666 29.5 36.5827 29.4167 36.4994 29.25C35.916 30 33.9994 30.5 31.666 30.5ZM31.666 33C29.3327 33 27.416 32.5 26.8327 31.75C26.7493 31.9167 26.666 32 26.666 32.1667C26.666 33.0833 28.916 33.8333 31.666 33.8333C34.416 33.8333 36.666 33.0833 36.666 32.1667C36.666 32 36.5827 31.9167 36.4994 31.75C35.916 32.5 33.9994 33 31.666 33Z" fill="#FFC107"/>
<path d="M8.33398 16.3337C5.58398 16.3337 3.33398 15.5837 3.33398 14.667V16.3337C3.33398 17.2503 5.58398 18.0003 8.33398 18.0003C11.084 18.0003 13.334 17.2503 13.334 16.3337V14.667C13.334 15.5837 11.084 16.3337 8.33398 16.3337Z" fill="#FFA000"/>
<path d="M8.33398 13.8337C5.58398 13.8337 3.33398 13.0837 3.33398 12.167V13.8337C3.33398 14.7503 5.58398 15.5003 8.33398 15.5003C11.084 15.5003 13.334 14.7503 13.334 13.8337V12.167C13.334 13.0837 11.084 13.8337 8.33398 13.8337ZM8.33398 18.8337C5.58398 18.8337 3.33398 18.0837 3.33398 17.167V18.8337C3.33398 19.7503 5.58398 20.5003 8.33398 20.5003C11.084 20.5003 13.334 19.7503 13.334 18.8337V17.167C13.334 18.0837 11.084 18.8337 8.33398 18.8337Z" fill="#FFA000"/>
<path d="M8.33398 21.3337C5.58398 21.3337 3.33398 20.5837 3.33398 19.667V21.3337C3.33398 22.2503 5.58398 23.0003 8.33398 23.0003C11.084 23.0003 13.334 22.2503 13.334 21.3337V19.667C13.334 20.5837 11.084 21.3337 8.33398 21.3337Z" fill="#FFA000"/>
<path d="M8.33398 23.8337C5.58398 23.8337 3.33398 23.0837 3.33398 22.167V23.8337C3.33398 24.7503 5.58398 25.5003 8.33398 25.5003C11.084 25.5003 13.334 24.7503 13.334 23.8337V22.167C13.334 23.0837 11.084 23.8337 8.33398 23.8337Z" fill="#FFA000"/>
<path d="M8.33398 26.3337C5.58398 26.3337 3.33398 25.5837 3.33398 24.667V26.3337C3.33398 27.2503 5.58398 28.0003 8.33398 28.0003C11.084 28.0003 13.334 27.2503 13.334 26.3337V24.667C13.334 25.5837 11.084 26.3337 8.33398 26.3337Z" fill="#FFA000"/>
<path d="M8.33398 28.8337C5.58398 28.8337 3.33398 28.0837 3.33398 27.167V28.8337C3.33398 29.7503 5.58398 30.5003 8.33398 30.5003C11.084 30.5003 13.334 29.7503 13.334 28.8337V27.167C13.334 28.0837 11.084 28.8337 8.33398 28.8337Z" fill="#FFA000"/>
<path d="M8.33398 31.3337C5.58398 31.3337 3.33398 30.5837 3.33398 29.667V31.3337C3.33398 32.2503 5.58398 33.0003 8.33398 33.0003C11.084 33.0003 13.334 32.2503 13.334 31.3337V29.667C13.334 30.5837 11.084 31.3337 8.33398 31.3337Z" fill="#FFA000"/>
<path d="M8.33398 33.8337C5.58398 33.8337 3.33398 33.0837 3.33398 32.167V33.8337C3.33398 34.7503 5.58398 35.5003 8.33398 35.5003C11.084 35.5003 13.334 34.7503 13.334 33.8337V32.167C13.334 33.0837 11.084 33.8337 8.33398 33.8337Z" fill="#FFA000"/>
<path d="M8.33398 13.8333C11.0954 13.8333 13.334 13.0871 13.334 12.1667C13.334 11.2462 11.0954 10.5 8.33398 10.5C5.57256 10.5 3.33398 11.2462 3.33398 12.1667C3.33398 13.0871 5.57256 13.8333 8.33398 13.8333Z" fill="#FFC107"/>
<path d="M8.33398 15.5C6.00065 15.5 4.08398 15 3.50065 14.25C3.41732 14.4167 3.33398 14.5 3.33398 14.6667C3.33398 15.5833 5.58398 16.3333 8.33398 16.3333C11.084 16.3333 13.334 15.5833 13.334 14.6667C13.334 14.5 13.2506 14.4167 13.1673 14.25C12.584 15 10.6673 15.5 8.33398 15.5ZM8.33398 18C6.00065 18 4.08398 17.5 3.50065 16.75C3.41732 16.9167 3.33398 17 3.33398 17.1667C3.33398 18.0833 5.58398 18.8333 8.33398 18.8333C11.084 18.8333 13.334 18.0833 13.334 17.1667C13.334 17 13.2506 16.9167 13.1673 16.75C12.584 17.5 10.6673 18 8.33398 18ZM8.33398 20.5C6.00065 20.5 4.08398 20 3.50065 19.25C3.41732 19.4167 3.33398 19.5 3.33398 19.6667C3.33398 20.5833 5.58398 21.3333 8.33398 21.3333C11.084 21.3333 13.334 20.5833 13.334 19.6667C13.334 19.5 13.2506 19.4167 13.1673 19.25C12.584 20 10.6673 20.5 8.33398 20.5ZM8.33398 23C6.00065 23 4.08398 22.5 3.50065 21.75C3.41732 21.9167 3.33398 22 3.33398 22.1667C3.33398 23.0833 5.58398 23.8333 8.33398 23.8333C11.084 23.8333 13.334 23.0833 13.334 22.1667C13.334 22 13.2506 21.9167 13.1673 21.75C12.584 22.5 10.6673 23 8.33398 23ZM8.33398 25.5C6.00065 25.5 4.08398 25 3.50065 24.25C3.41732 24.4167 3.33398 24.5 3.33398 24.6667C3.33398 25.5833 5.58398 26.3333 8.33398 26.3333C11.084 26.3333 13.334 25.5833 13.334 24.6667C13.334 24.5 13.2506 24.4167 13.1673 24.25C12.584 25 10.6673 25.5 8.33398 25.5ZM8.33398 28C6.00065 28 4.08398 27.5 3.50065 26.75C3.41732 26.9167 3.33398 27 3.33398 27.1667C3.33398 28.0833 5.58398 28.8333 8.33398 28.8333C11.084 28.8333 13.334 28.0833 13.334 27.1667C13.334 27 13.2506 26.9167 13.1673 26.75C12.584 27.5 10.6673 28 8.33398 28ZM8.33398 30.5C6.00065 30.5 4.08398 30 3.50065 29.25C3.41732 29.4167 3.33398 29.5 3.33398 29.6667C3.33398 30.5833 5.58398 31.3333 8.33398 31.3333C11.084 31.3333 13.334 30.5833 13.334 29.6667C13.334 29.5 13.2506 29.4167 13.1673 29.25C12.584 30 10.6673 30.5 8.33398 30.5ZM8.33398 33C6.00065 33 4.08398 32.5 3.50065 31.75C3.41732 31.9167 3.33398 32 3.33398 32.1667C3.33398 33.0833 5.58398 33.8333 8.33398 33.8333C11.084 33.8333 13.334 33.0833 13.334 32.1667C13.334 32 13.2506 31.9167 13.1673 31.75C12.584 32.5 10.6673 33 8.33398 33Z" fill="#FFC107"/>
<path d="M20 23.8337C17.25 23.8337 15 23.0837 15 22.167V23.8337C15 24.7503 17.25 25.5003 20 25.5003C22.75 25.5003 25 24.7503 25 23.8337V22.167C25 23.0837 22.75 23.8337 20 23.8337Z" fill="#FFA000"/>
<path d="M20 21.3337C17.25 21.3337 15 20.5837 15 19.667V21.3337C15 22.2503 17.25 23.0003 20 23.0003C22.75 23.0003 25 22.2503 25 21.3337V19.667C25 20.5837 22.75 21.3337 20 21.3337ZM20 26.3337C17.25 26.3337 15 25.5837 15 24.667V26.3337C15 27.2503 17.25 28.0003 20 28.0003C22.75 28.0003 25 27.2503 25 26.3337V24.667C25 25.5837 22.75 26.3337 20 26.3337Z" fill="#FFA000"/>
<path d="M20 28.8337C17.25 28.8337 15 28.0837 15 27.167V28.8337C15 29.7503 17.25 30.5003 20 30.5003C22.75 30.5003 25 29.7503 25 28.8337V27.167C25 28.0837 22.75 28.8337 20 28.8337Z" fill="#FFA000"/>
<path d="M20 31.3337C17.25 31.3337 15 30.5837 15 29.667V31.3337C15 32.2503 17.25 33.0003 20 33.0003C22.75 33.0003 25 32.2503 25 31.3337V29.667C25 30.5837 22.75 31.3337 20 31.3337Z" fill="#FFA000"/>
<path d="M20 33.8337C17.25 33.8337 15 33.0837 15 32.167V33.8337C15 34.7503 17.25 35.5003 20 35.5003C22.75 35.5003 25 34.7503 25 33.8337V32.167C25 33.0837 22.75 33.8337 20 33.8337Z" fill="#FFA000"/>
<path d="M20 21.3333C22.7614 21.3333 25 20.5871 25 19.6667C25 18.7462 22.7614 18 20 18C17.2386 18 15 18.7462 15 19.6667C15 20.5871 17.2386 21.3333 20 21.3333Z" fill="#FFC107"/>
<path d="M20 23C17.6667 23 15.75 22.5 15.1667 21.75C15.0833 21.9167 15 22 15 22.1667C15 23.0833 17.25 23.8333 20 23.8333C22.75 23.8333 25 23.0833 25 22.1667C25 22 24.9167 21.9167 24.8333 21.75C24.25 22.5 22.3333 23 20 23ZM20 25.5C17.6667 25.5 15.75 25 15.1667 24.25C15.0833 24.4167 15 24.5 15 24.6667C15 25.5833 17.25 26.3333 20 26.3333C22.75 26.3333 25 25.5833 25 24.6667C25 24.5 24.9167 24.4167 24.8333 24.25C24.25 25 22.3333 25.5 20 25.5ZM20 28C17.6667 28 15.75 27.5 15.1667 26.75C15.0833 26.9167 15 27 15 27.1667C15 28.0833 17.25 28.8333 20 28.8333C22.75 28.8333 25 28.0833 25 27.1667C25 27 24.9167 26.9167 24.8333 26.75C24.25 27.5 22.3333 28 20 28ZM20 30.5C17.6667 30.5 15.75 30 15.1667 29.25C15.0833 29.4167 15 29.5 15 29.6667C15 30.5833 17.25 31.3333 20 31.3333C22.75 31.3333 25 30.5833 25 29.6667C25 29.5 24.9167 29.4167 24.8333 29.25C24.25 30 22.3333 30.5 20 30.5ZM20 33C17.6667 33 15.75 32.5 15.1667 31.75C15.0833 31.9167 15 32 15 32.1667C15 33.0833 17.25 33.8333 20 33.8333C22.75 33.8333 25 33.0833 25 32.1667C25 32 24.9167 31.9167 24.8333 31.75C24.25 32.5 22.3333 33 20 33Z" fill="#FFC107"/>
</svg>
