<svg width="34" height="34" viewBox="0 0 34 34" fill="none" xmlns="http://www.w3.org/2000/svg">
<path d="M17 34C26.3888 34 34 26.3888 34 17C34 7.61116 26.3888 0 17 0C7.61116 0 0 7.61116 0 17C0 26.3888 7.61116 34 17 34Z" fill="#F78E36"/>
<path d="M33.2054 21.8641L18.6374 7.29608L18.6133 7.272L18.3485 7.00713L18.3244 6.98305C18.0354 6.74226 17.6983 6.5737 17.313 6.52554H17.2649L17.1445 6.50146C17.0723 6.50146 17.0241 6.50146 16.9519 6.50146C15.7479 6.50146 14.7606 7.48872 14.7606 8.69268C14.7606 8.76492 14.7606 8.81308 14.7606 8.88532C14.7606 8.88532 14.7606 8.88532 14.7606 8.9094C14.7606 8.95756 14.7847 9.02979 14.7847 9.07795C14.7847 9.12611 14.8088 9.19835 14.8329 9.24651C14.857 9.29467 14.857 9.3669 14.881 9.41506C14.9051 9.43914 14.9051 9.46322 14.9051 9.4873C14.9051 9.51138 14.9292 9.53546 14.9533 9.55954C15.0977 9.87257 15.2904 10.1374 15.5553 10.3301L16.2295 11.0043C11.7989 11.4136 8.52409 15.3386 8.90936 19.7692C9.05384 21.551 9.8003 23.2366 11.0283 24.5369L11.4858 24.9944L20.034 33.5185C26.2465 32.3867 31.3272 27.8839 33.2054 21.8641Z" fill="#ED7526"/>
<path d="M17.0241 27.1375C21.519 27.1375 25.1629 23.4936 25.1629 18.9987C25.1629 14.5037 21.519 10.8599 17.0241 10.8599C12.5292 10.8599 8.88528 14.5037 8.88528 18.9987C8.88528 23.4936 12.5292 27.1375 17.0241 27.1375Z" fill="#F78E36"/>
<path d="M16.9518 10.8839C15.7479 10.8839 14.7606 9.89665 14.7606 8.69268C14.7606 7.48872 15.7479 6.50146 16.9518 6.50146C18.1558 6.50146 19.1431 7.48872 19.1431 8.69268C19.1431 9.89665 18.1558 10.8598 16.9518 10.8839ZM16.9518 7.00713C16.0127 7.00713 15.2663 7.75359 15.2663 8.69268C15.2663 9.63178 16.0127 10.3782 16.9518 10.3782C17.8909 10.3782 18.6374 9.63178 18.6374 8.69268C18.6374 7.75359 17.8909 7.00713 16.9518 7.00713Z" fill="#010101"/>
<path d="M17.4334 9.72803H16.4703V11.2932H17.4334V9.72803Z" fill="#010101"/>
<path d="M17.6501 9.43918C17.6501 9.39102 17.602 9.36694 17.5779 9.36694H16.3739C16.3258 9.36694 16.3017 9.4151 16.3017 9.43918V9.92077C16.3017 9.96893 16.3499 9.993 16.3739 9.993H17.5779C17.6261 9.993 17.6501 9.94485 17.6501 9.92077V9.43918Z" fill="#010101"/>
<path d="M16.9518 27.4985C12.3045 27.4985 8.52408 23.718 8.52408 19.0707C8.52408 16.8314 9.39093 14.7124 10.9802 13.0991C12.5694 11.5098 14.6884 10.6189 16.9278 10.6189C21.5751 10.6189 25.3555 14.3994 25.3555 19.0467C25.3796 23.718 21.5992 27.4985 16.9518 27.4985ZM16.9518 11.3654C14.9051 11.3654 12.9547 12.16 11.5099 13.6288C10.0652 15.0736 9.24646 17.024 9.24646 19.0707C9.24646 23.3087 12.7139 26.7761 16.9518 26.7761C21.1898 26.7761 24.6572 23.3087 24.6572 19.0707C24.6572 14.8328 21.1898 11.3654 16.9518 11.3654Z" fill="#010101"/>
<path d="M19.6006 16.4221L16.9518 18.517V19.0708H17.5297L19.6006 16.4221Z" fill="white"/>
<path d="M19.6006 16.4221L16.9518 19.0708H17.5297L19.6006 16.4221Z" fill="#5E6E7F"/>
<path d="M19.4802 16.5666L17.5297 19.0468H17V18.517L19.4802 16.5666ZM19.6006 16.4221L16.9518 18.4929V19.0708H17.5297L19.6006 16.4221Z" fill="#5E6E7F"/>
<path d="M14.3031 21.7195L16.9519 19.6487V19.0708H16.398L14.3031 21.7195Z" fill="white"/>
<path d="M14.3031 21.7195L16.9519 19.0708H16.398L14.3031 21.7195Z" fill="#5E6E7F"/>
<path d="M14.4476 21.599L16.4221 19.0948H16.9519V19.6245L14.4476 21.599ZM14.3272 21.7194L16.9759 19.6245V19.0466H16.398L14.3272 21.7194Z" fill="#5E6E7F"/>
<path d="M19.6006 21.7195L17.5297 19.0708H16.9518V19.6487L19.6006 21.7195Z" fill="white"/>
<path d="M19.6006 21.7195L16.9518 19.0708V19.6487L19.6006 21.7195Z" fill="#010101"/>
<path d="M19.4802 21.5991L16.9759 19.6487V19.119H17.5057L19.4802 21.5991ZM19.6006 21.7195L17.5057 19.0708H16.9278V19.6487L19.6006 21.7195Z" fill="#010101"/>
<path d="M14.3031 16.4221L16.398 19.0708H16.9519V18.517L14.3031 16.4221Z" fill="white"/>
<path d="M14.3031 16.4221L16.9519 19.0708V18.517L14.3031 16.4221Z" fill="#010101"/>
<path d="M14.4476 16.5666L16.9278 18.517V19.0468H16.398L14.4476 16.5666ZM14.3031 16.4221L16.374 19.0708H16.9278V18.4929C16.9519 18.517 14.3031 16.4221 14.3031 16.4221Z" fill="#010101"/>
<path d="M16.9518 14.1587L16.4221 18.5652L16.9518 19.0709L17.4816 18.5652L16.9518 14.1587Z" fill="white"/>
<path d="M16.9518 14.1587V19.0709L17.4816 18.5652L16.9518 14.1587Z" fill="#010101"/>
<path d="M16.9518 14.4234L17.4575 18.541L16.9518 19.0226L16.4702 18.541L16.9518 14.4234ZM16.9518 14.1826L16.4221 18.5651L16.9518 19.0948L17.4816 18.5651L16.9518 14.1826Z" fill="#010101"/>
<path d="M16.9518 23.983L17.4816 19.6005L16.9518 19.0708L16.4221 19.6005L16.9518 23.983Z" fill="white"/>
<path d="M16.9518 23.983V19.0708L16.4221 19.6005L16.9518 23.983Z" fill="#010101"/>
<path d="M16.9518 23.7422L16.4702 19.6246L16.9518 19.119L17.4575 19.6005L16.9518 23.7422ZM16.9518 23.983L17.4816 19.6005L16.9518 19.0708L16.4221 19.6005L16.9518 23.983Z" fill="#010101"/>
<path d="M21.864 19.0709L17.4816 18.5652L16.9518 19.0709L17.4816 19.6006L21.864 19.0709Z" fill="white"/>
<path d="M21.864 19.0708H16.9518L17.4816 19.6005L21.864 19.0708Z" fill="#010101"/>
<path d="M21.6232 19.0708L17.5057 19.5523L17 19.0708L17.5057 18.5892L21.6232 19.0708ZM21.864 19.0708L17.4816 18.541L16.9518 19.0708L17.4816 19.6005L21.864 19.0708Z" fill="#010101"/>
<path d="M12.0397 19.0709L16.4221 19.6006L16.9519 19.0709L16.4221 18.5652L12.0397 19.0709Z" fill="white"/>
<path d="M12.0397 19.0708H16.9519L16.4221 18.5652L12.0397 19.0708Z" fill="#010101"/>
<path d="M12.3045 19.0708L16.4221 18.5892L16.9037 19.0708L16.4221 19.5523L12.3045 19.0708ZM12.0638 19.0708L16.4462 19.6005L16.9759 19.0708L16.4462 18.541L12.0638 19.0708Z" fill="#010101"/>
<path d="M16.9519 16.4221C15.483 16.4221 14.3031 17.602 14.3031 19.0708C14.3031 20.5397 15.483 21.7196 16.9519 21.7196C18.4207 21.7196 19.6006 20.5397 19.6006 19.0708C19.6006 17.6261 18.4207 16.4221 16.9519 16.4221Z" fill="#010101"/>
<path d="M16.9518 16.6147C18.3244 16.6147 19.4079 17.7224 19.4079 19.0708C19.4079 20.4434 18.3003 21.5269 16.9518 21.5269C15.5793 21.5269 14.4958 20.4193 14.4958 19.0708C14.4958 17.7224 15.6034 16.6147 16.9518 16.6147Z" fill="white"/>
<path d="M16.9519 26.2465C13.0028 26.2465 9.77621 23.0199 9.77621 19.0709C9.77621 15.0978 13.0028 11.8953 16.9519 11.8953C20.9009 11.8953 24.1275 15.1219 24.1275 19.0709C24.1275 23.044 20.9249 26.2465 16.9519 26.2465ZM16.9519 12.1842C13.1714 12.1842 10.1133 15.2423 10.1133 19.0227C10.1133 22.8032 13.1714 25.8613 16.9519 25.8613C20.7323 25.8613 23.7904 22.8032 23.7904 19.0227C23.7904 16.2777 22.153 13.7975 19.6247 12.714C18.7819 12.3768 17.8669 12.1842 16.9519 12.1842Z" fill="#010101"/>
<path d="M17.0482 12.136H16.9037V12.5694H17.0482V12.136Z" fill="#010101"/>
<path d="M15.2855 12.3466L15.1689 12.3765L15.2763 12.7964L15.3929 12.7665L15.2855 12.3466Z" fill="#010101"/>
<path d="M13.6578 12.9545L13.5524 13.0127L13.762 13.3921L13.8674 13.3339L13.6578 12.9545Z" fill="#010101"/>
<path d="M12.244 13.9872L12.1563 14.0696L12.453 14.3855L12.5407 14.3031L12.244 13.9872Z" fill="#010101"/>
<path d="M11.4136 15.6515L11.4858 15.5311L11.1246 15.2903L11.0524 15.4107L11.4136 15.6515Z" fill="#010101"/>
<path d="M10.369 16.8709L10.3315 16.9854L10.7434 17.1204L10.7809 17.006L10.369 16.8709Z" fill="#010101"/>
<path d="M10.4504 18.7337V18.6133L10.0411 18.5652L10.017 18.7097L10.4504 18.7337Z" fill="#010101"/>
<path d="M10.5708 20.371L10.5467 20.2266L10.1133 20.3229L10.1374 20.4433L10.5708 20.371Z" fill="#010101"/>
<path d="M11.1006 21.9121L11.0283 21.7917L10.6431 21.9844L10.6912 22.1048L11.1006 21.9121Z" fill="#010101"/>
<path d="M11.9037 23.1856L11.5686 23.4604L11.6602 23.5722L11.9954 23.2973L11.9037 23.1856Z" fill="#010101"/>
<path d="M13.1714 24.3923L13.0751 24.3201L12.8102 24.6572L12.9306 24.7294L13.1714 24.3923Z" fill="#010101"/>
<path d="M14.6162 25.1629L14.4958 25.1147L14.3272 25.5L14.4717 25.5723L14.6162 25.1629Z" fill="#010101"/>
<path d="M16.2054 25.5481H16.085L16.0128 25.9574L16.1572 25.9815L16.2054 25.5481Z" fill="#010101"/>
<path d="M17.8635 25.5375L17.7202 25.5554L17.774 25.9855L17.9174 25.9675L17.8635 25.5375Z" fill="#010101"/>
<path d="M19.4167 25.1052L19.2824 25.1587L19.4428 25.5613L19.5771 25.5079L19.4167 25.1052Z" fill="#010101"/>
<path d="M20.852 24.2934L20.7349 24.3779L20.9885 24.7294L21.1056 24.6449L20.852 24.2934Z" fill="#010101"/>
<path d="M22.0326 23.1885L21.9363 23.2848L22.2734 23.5497L22.3456 23.4533L22.0326 23.1885Z" fill="#010101"/>
<path d="M22.8754 21.7917L22.8272 21.9121L23.2125 22.1048L23.2847 21.9844L22.8754 21.7917Z" fill="#010101"/>
<path d="M23.381 20.2266L23.3569 20.371L23.7663 20.4433L23.7904 20.3229L23.381 20.2266Z" fill="#010101"/>
<path d="M23.4532 18.5893V18.7337L23.8867 18.7097V18.5652L23.4532 18.5893Z" fill="#010101"/>
<path d="M23.5426 16.8653L23.1301 16.9983L23.1744 17.1358L23.5869 17.0028L23.5426 16.8653Z" fill="#010101"/>
<path d="M22.7866 15.3098L22.4199 15.5408L22.4969 15.663L22.8636 15.432L22.7866 15.3098Z" fill="#010101"/>
<path d="M21.3824 14.2791L21.4787 14.3754L21.7677 14.0624L21.6714 13.9661L21.3824 14.2791Z" fill="#010101"/>
<path d="M20.034 13.3399L20.1544 13.4121L20.3711 13.0268L20.2507 12.9546L20.034 13.3399Z" fill="#010101"/>
<path d="M18.517 12.738L18.6374 12.7861L18.7578 12.3768L18.6133 12.3286L18.517 12.738Z" fill="#010101"/>
<path d="M16.3258 18.4447L16.9518 19.0708L20.6841 15.3625L16.3258 18.4447Z" fill="#DEDEDD"/>
<path d="M17.602 19.7211L16.9518 19.0709L20.6841 15.3627V15.3386L17.602 19.7211Z" fill="#B8B8B8"/>
<path d="M16.3258 18.4448L16.9518 19.0709L13.2436 22.8032L16.3258 18.4448Z" fill="#A8A9AA"/>
<path d="M17.602 19.7209L16.9518 19.0708L13.2436 22.8031H13.2195L17.602 19.7209Z" fill="#8C8E90"/>
</svg>
