<svg width="35" height="35" viewBox="0 0 35 35" fill="none" xmlns="http://www.w3.org/2000/svg">
<path d="M17.0123 34.0245C26.4079 34.0245 34.0245 26.4079 34.0245 17.0123C34.0245 7.61665 26.4079 0 17.0123 0C7.61665 0 0 7.61665 0 17.0123C0 26.4079 7.61665 34.0245 17.0123 34.0245Z" fill="#686868"/>
<path d="M11.9625 25.3959L20.248 33.6814C20.248 33.6814 29.8082 32.2842 33.142 22.4298L17.3554 8.77588L17.527 19.8069L15.7376 23.0426L11.9625 25.3959Z" fill="#5E5E5E"/>
<path d="M12.2567 25.3959C11.889 25.3959 11.5948 25.1262 11.5213 24.7585C11.4968 24.3908 11.6929 24.0721 12.0361 23.9741C13.5559 23.5819 14.659 22.7975 15.3208 21.6208C14.7815 21.8905 14.1687 22.0375 13.5314 22.0621C11.6438 22.0621 9.63374 20.5913 9.58472 17.331C9.5602 14.708 11.6438 13.3843 13.1637 12.4283C13.4823 12.2322 13.703 12.0851 13.9236 11.938C15.3208 10.9575 16.2278 9.56025 16.3259 9.16804C16.3994 8.9229 16.571 8.75131 16.7916 8.67777C16.9877 8.60423 17.1839 8.62874 17.3554 8.7268C17.527 8.82485 17.6496 8.97193 17.7231 9.14352V9.19255C17.8212 9.56025 18.8017 10.982 20.1255 11.9871C20.3461 12.1587 20.6157 12.3303 20.9099 12.5264L21.0324 12.5999C22.5523 13.5804 24.4643 14.8306 24.4398 17.3555C24.4153 20.5177 22.4787 21.9395 20.5912 21.9395C20.0519 21.9395 19.5371 21.8169 19.0469 21.6208C19.7578 22.6749 20.7873 23.4838 22.013 23.9251C22.3317 24.0231 22.5523 24.3173 22.5278 24.6605C22.5278 25.0527 22.2091 25.3714 21.7924 25.3714H12.2567C12.2567 25.3959 12.2567 25.3959 12.2567 25.3959ZM17.0368 19.3901L16.8652 20.2236C16.571 21.6208 15.7621 23.3858 13.6784 24.3908H20.6647C19.0714 23.5329 17.8702 22.0866 17.3309 20.3461L17.0368 19.3901ZM17.0123 10.0015C16.571 10.7859 15.6395 11.938 14.4629 12.747C14.2423 12.8941 13.9971 13.0657 13.6784 13.2618C12.2076 14.1933 10.5407 15.2473 10.5653 17.331C10.5898 19.9049 12.1096 21.0815 13.5069 21.0815C14.4874 21.057 15.3944 20.5913 15.9827 19.8313L16.8162 18.7528L16.6691 18.2625L16.9632 18.5812L17.2819 18.1889L17.1593 18.7773L18.1644 19.8804C18.7772 20.5667 19.6597 20.959 20.5912 20.9835C21.8904 20.9835 23.4348 20.0274 23.4593 17.3555C23.4838 15.4189 22.0375 14.4384 20.6157 13.5069L20.3706 13.3598C20.0764 13.1637 19.8068 12.9921 19.5371 12.796C18.4831 11.9871 17.478 10.8104 17.0123 10.0015Z" fill="black"/>
<path d="M23.9495 17.3555C23.974 15.1003 22.2581 13.9727 20.7628 13.0167H20.7383C20.4196 12.7961 20.1009 12.6 19.8313 12.4039C18.5321 11.4233 17.38 9.90349 17.2574 9.33968C17.2084 9.21712 17.0858 9.14358 16.9387 9.1926C16.8652 9.21712 16.8162 9.26614 16.7916 9.33968C16.6446 9.87898 15.6395 11.3743 14.1932 12.3793C13.9726 12.5509 13.703 12.698 13.4333 12.8696C11.938 13.8256 10.075 15.0023 10.075 17.3555C10.0995 20.2726 11.8645 21.5964 13.5068 21.5964C14.6345 21.5718 15.6885 21.0325 16.3749 20.1501C16.0562 21.7189 15.0267 23.7045 12.1831 24.4399C12.0606 24.4644 12.0115 24.587 12.0115 24.7095C12.036 24.8321 12.1341 24.9302 12.2567 24.9302H21.7924C21.9394 24.9302 22.0375 24.8321 22.0375 24.685C22.0375 24.5625 21.964 24.4644 21.8414 24.4399C19.9048 23.7535 18.4095 22.2092 17.7967 20.2236C18.5076 21.008 19.5126 21.4738 20.5667 21.4738C22.2336 21.4493 23.925 20.1991 23.9495 17.3555Z" fill="#686868"/>
</svg>
