<svg width="100" height="31" viewBox="0 0 100 31" fill="none" xmlns="http://www.w3.org/2000/svg">
<path d="M4.33898 0V9.69491C5.35593 7.86441 8.20339 6.91525 10.1017 6.91525C15.1864 6.91525 18.9831 10.0339 18.9831 16.0678C18.9831 21.8305 15.1186 25.2203 9.9661 25.2203C7.72881 25.3559 5.55932 24.2712 4.33898 22.4407L4.0678 24.8136H0V0H4.33898ZM4.61017 16.0678C4.54237 18.8475 6.71186 21.1525 9.49153 21.2203C12.2712 21.2881 14.5763 19.1186 14.6441 16.339C14.6441 16.2712 14.6441 16.2034 14.6441 16.0678C14.7797 13.4237 12.7458 11.1186 10.1017 10.9831C9.9661 10.9831 9.83051 10.9831 9.69492 10.9831C6.91525 10.9153 4.67797 13.1525 4.61017 15.8644C4.61017 15.9322 4.61017 16 4.61017 16.0678Z" fill="#403F3F"/>
<path d="M24.0678 17.6271C24.339 19.7966 26.2373 21.3559 29.2882 21.3559C30.9153 21.3559 32.9492 20.7457 33.9661 19.7288L36.7458 22.4406C34.9153 24.3389 31.8644 25.2881 29.2204 25.2881C23.1865 25.2881 19.5933 21.5593 19.5933 16C19.5933 10.7118 23.1865 6.84741 28.8814 6.84741C34.7119 6.84741 38.3729 10.4406 37.695 17.6271H24.0678V17.6271ZM33.5594 14.0339C33.2882 11.7966 31.5255 10.644 29.017 10.644C26.7119 10.644 24.7458 11.7966 24.1356 14.0339H33.5594Z" fill="#403F3F"/>
<path d="M61.2882 20.5424C60.6102 20.8814 59.9323 21.0848 59.1865 21.0848C57.8306 21.0848 56.9492 20.2712 56.9492 18.5763V11.0509H61.8306V7.32209H56.9492V3.0509H52.6102V7.38989H49.356H49.2882H44.4746V3.0509H40.1356V7.38989H36.8814V11.1187H40.1356V18.6441C40.1356 22.9831 42.6441 25.1526 46.3729 25.017C47.5933 25.017 48.8136 24.7458 49.9662 24.2712L48.7458 20.6102C48.0678 20.9492 47.3899 21.1526 46.6441 21.1526C45.2882 21.1526 44.4068 20.339 44.4068 18.6441V11.0509H49.2204H49.2882H52.5424V18.5763C52.5424 22.9153 55.0509 25.0848 58.7797 24.9492C60 24.9492 61.2204 24.678 62.3729 24.2034L61.2882 20.5424Z" fill="#403F3F"/>
<path d="M67.5254 0V9.69491C68.8136 8 70.8475 6.98305 72.9492 7.05085C77.8983 7.05085 80.1356 10.4407 80.1356 15.5254V24.7458H75.7966V15.5932C75.7966 12.4068 74.1017 11.0508 71.8644 11.0508C69.2882 11.0508 67.5254 13.2203 67.5254 15.8644V24.8136H63.1865V0H67.5254Z" fill="#403F3F"/>
<path d="M95.8644 7.32199H100V24.8135H95.9322L95.7288 22.2372C94.7118 24.2711 92 25.2881 90.0339 25.2881C84.8813 25.3559 81.0169 22.1694 81.0169 16C81.0169 9.96606 85.0169 6.84741 90.1017 6.84741C92.4068 6.84741 94.6441 7.93216 95.661 9.69487L95.8644 7.32199ZM85.3559 16.0678C85.1525 18.8474 87.2542 21.2203 90.0339 21.3559C90.1695 21.3559 90.3729 21.3559 90.5085 21.3559C97.2881 21.3559 97.2881 10.7796 90.5085 10.7796C87.7966 10.644 85.4237 12.8135 85.3559 15.5254C85.3559 15.7288 85.3559 15.8644 85.3559 16.0678Z" fill="#403F3F"/>
</svg>
