<svg width="205" height="69" viewBox="0 0 205 69" fill="none" xmlns="http://www.w3.org/2000/svg">
<path d="M0 0V69H198C193.114 63.8542 185.289 57.4805 172.984 52.4517C138.514 38.3886 107.572 50.6975 58.9883 37.0436C30.9417 29.1496 17.0541 18.2441 14.2495 15.9928C7.46402 10.5254 2.98561 4.99958 0 0Z" fill="url(#paint0_linear_379_13537)" fill-opacity="0.3"/>
<path d="M0 67.6959V36C4.26572 40.6253 9.89285 42.9379 15.0662 44.1953C29.0432 47.5408 39.7983 42.9828 61.853 46.5304C84.0892 50.1229 82.0471 56.1627 101.878 59.1714C125.294 62.7189 137.138 55.6463 163.096 57.465C173.987 58.2283 188.845 61.5906 205 69H1.30407C0.583853 69 0 68.4162 0 67.6959V67.6959Z" fill="url(#paint1_linear_379_13537)" fill-opacity="0.3"/>
<defs>
<linearGradient id="paint0_linear_379_13537" x1="197.61" y1="33.6151" x2="-0.165355" y2="33.6151" gradientUnits="userSpaceOnUse">
<stop stop-color="white"/>
<stop offset="1"/>
</linearGradient>
<linearGradient id="paint1_linear_379_13537" x1="204.597" y1="52.0768" x2="-0.171201" y2="52.0768" gradientUnits="userSpaceOnUse">
<stop stop-color="white"/>
<stop offset="1"/>
</linearGradient>
</defs>
</svg>
