<svg width="83" height="71" viewBox="0 0 83 71" fill="none" xmlns="http://www.w3.org/2000/svg">
<path d="M43.8858 11.4896C43.8858 11.4896 44.5216 10.623 44.2972 9.92313C44.1102 9.22324 43.0257 8.59 42.1281 9.15658C42.1281 9.15658 40.4826 9.18991 40.146 10.2231C39.8094 11.2563 40.8566 12.7227 40.8566 12.956C40.8566 13.1893 41.1184 13.5893 41.5297 13.4893C41.9785 13.4226 43.998 12.1561 43.8858 11.4896Z" fill="#6B2A86"/>
<path d="M42.2032 34.6528C42.1658 35.0527 39.0992 45.3845 24.6264 68.5477C24.1776 69.2809 22.1955 67.3145 22.0833 65.6815C21.7842 61.2488 23.9532 52.8167 29.1889 46.3843C31.9937 42.9182 33.34 38.0856 34.4245 36.3858C35.3969 34.8527 37.6033 31.9865 39.2488 30.7534C40.4081 29.8868 42.465 32.4198 42.2032 34.6528Z" fill="#EC6265"/>
<path d="M25.5992 29.8869C26.7211 28.5871 28.5536 27.6539 30.2738 27.0207C31.0218 26.7541 34.612 28.3871 37.6786 30.0869C37.1924 31.9533 35.4721 34.9195 34.4998 36.4526C34.4624 36.4193 34.4624 36.3859 34.425 36.3859C33.7518 35.9193 31.8445 43.2516 23.8788 49.6173C19.3163 53.2834 2.11344 46.4178 2.824 44.2181C3.49715 42.1517 18.6058 45.118 18.6058 45.118C18.6058 45.118 24.1406 31.6533 25.5992 29.8869Z" fill="#EC6265"/>
<path d="M25.8232 46.2177C24.9631 43.4848 20.625 48.684 17.7827 47.3175C14.9405 45.9511 13.5942 47.4175 12.4349 47.5842C11.2756 47.7508 7.94719 46.7843 6.00251 45.2845C4.6936 44.2847 3.72128 44.6846 3.23511 45.0512C5.74074 47.7508 19.8396 52.85 23.916 49.5839C24.5143 49.0839 25.0753 48.6173 25.6362 48.1174C25.898 47.4509 25.9728 46.7843 25.8232 46.2177Z" fill="#AE283E"/>
<path d="M40.8201 38.5188C38.8755 39.452 34.8365 41.685 33.6772 44.1846C32.1439 47.5175 29.4887 53.5166 28.7407 55.183C27.9554 56.8494 26.1229 57.5159 25.3375 60.5488C23.879 66.0147 24.44 68.8809 24.627 68.5476C34.2381 53.1499 38.8007 43.4514 40.8201 38.5188Z" fill="#AE283E"/>
<path d="M43.4376 14.989C43.4376 14.989 52.4504 16.8554 53.4975 16.0555C55.33 14.689 53.4227 9.68977 55.3674 8.52328C56.8259 7.65675 59.369 15.8888 56.8259 18.6551C54.2829 21.4214 45.5319 19.7216 44.2229 18.8551C42.9888 18.0219 43.4376 14.989 43.4376 14.989Z" fill="#EC6265"/>
<path d="M44.2603 18.8883C43.9237 18.655 43.6994 18.2884 43.5872 17.8885C44.4099 17.6552 45.3448 17.5218 46.1302 17.4885C48.4488 17.4552 50.2065 18.855 52.3008 19.2216C54.3577 19.5882 54.6194 18.9883 55.3674 18.2884C56.1153 17.5885 56.5267 16.6553 57.2373 15.1555C57.9852 13.6558 57.0877 12.9892 56.9755 12.1893C56.9381 11.856 57.0877 11.4561 57.2747 11.0562C58.06 13.4891 58.3218 17.0553 56.8259 18.655C54.3203 21.4213 45.5692 19.7548 44.2603 18.8883Z" fill="#AE283E"/>
<path d="M43.9616 16.0222L43.6998 18.1552C43.8494 18.4552 44.0364 18.7218 44.2608 18.8885C44.6722 19.1551 45.8315 19.5217 47.3274 19.7883C46.9161 18.0886 43.9616 16.0222 43.9616 16.0222Z" fill="#AC2F88"/>
<path d="M23.5422 33.1197C24.4771 30.3867 26.3844 28.5203 27.8055 27.5205C29.0022 26.6873 35.846 21.988 36.2574 21.5214C36.5939 21.0215 36.7809 20.4549 36.9305 19.8883C37.1549 18.9218 37.4167 15.1557 37.9402 14.4225C38.4638 13.7226 41.7922 13.3226 43.9612 15.389C44.597 15.9889 45.2702 17.2554 45.4571 17.6553C45.4571 17.6553 45.6815 18.1219 45.7189 18.3885C45.7563 18.6885 45.4572 19.5883 44.41 20.6882C44.1108 21.0215 44.1482 22.3213 43.7743 24.4543C43.1759 30.5534 44.8588 34.6194 34.2753 52.1501C33.7891 52.1168 23.617 47.9174 18.7179 45.0845C19.9894 40.8185 22.9064 34.9527 23.5422 33.1197Z" fill="#E34D95"/>
<path d="M43.6995 24.4876C43.8117 23.821 43.8865 23.2211 43.9613 22.7212C42.241 23.721 39.5857 25.6541 39.3987 28.1204C39.0996 31.8198 38.5386 41.585 35.6964 45.6178C34.2753 47.6175 32.555 49.3505 31.1713 51.017C32.8542 51.7169 34.0509 52.1501 34.2005 52.1834C44.784 34.6194 43.1385 30.5867 43.6995 24.4876Z" fill="#AC2F88"/>
<path d="M43.5499 26.4873C43.5873 25.7874 43.662 25.1209 43.7368 24.4543C44.1108 22.3213 44.0734 20.9882 44.3726 20.6882C45.4197 19.5884 45.7189 18.6885 45.6815 18.3886C45.6441 18.1553 45.4197 17.6553 45.4197 17.6553C45.2327 17.2554 44.5596 15.9889 43.9238 15.389C41.7174 13.3226 38.389 13.6893 37.9028 14.4225C37.3792 15.1557 37.1175 18.9218 36.8931 19.8883C36.7809 20.4549 36.5939 21.0215 36.2199 21.5214C36.0703 21.6881 34.9484 22.5213 33.5647 23.4878C34.35 24.0544 38.95 27.0539 43.5499 26.4873Z" fill="#AC2F88"/>
<path d="M55.891 9.42312C56.1154 9.42312 56.3024 9.22315 56.265 9.02318C56.1154 8.42327 55.7788 7.12347 55.2178 6.85684C54.5073 6.49023 54.2081 6.32359 54.2829 6.55689C54.3203 6.82351 54.8439 7.1568 54.9561 7.45675C55.1056 7.75671 54.8439 7.79004 54.7691 7.72338C54.6569 7.65672 54.3951 7.25678 54.1707 7.32344C53.9463 7.3901 54.0959 7.42342 54.2455 7.85669C54.3577 8.28996 54.7691 9.18983 55.3674 9.35647C55.5544 9.42312 55.7414 9.42312 55.891 9.42312Z" fill="#EC6265"/>
<path d="M43.6989 24.4877C44.0729 22.3546 44.0355 21.0215 44.3347 20.7216C45.3818 19.6217 45.681 18.7219 45.6436 18.4219C45.6062 18.1886 45.3818 17.6887 45.3818 17.6887C45.1948 17.2887 44.5216 16.0223 43.8859 15.4224C43.2875 14.8558 42.6144 14.4892 41.9412 14.2559C42.4274 15.1557 43.2501 16.7222 43.6615 18.1553C44.2599 20.3216 43.0257 20.0217 41.642 19.8884C40.2583 19.755 40.6323 20.6549 41.5673 21.2881C42.203 21.7214 42.1282 24.4543 41.7542 26.554C42.3526 26.5874 42.9135 26.5874 43.5119 26.5207C43.5867 25.7875 43.6615 25.1209 43.6989 24.4877Z" fill="#E34D95"/>
<path d="M43.6627 24.9876C43.6627 24.8209 43.7001 24.621 43.7001 24.4543C43.7375 24.2877 43.7749 24.1211 43.7749 23.9544C40.8579 24.0544 37.3052 22.6213 35.6971 21.9214C35.4353 22.1214 35.0987 22.3547 34.7247 22.6213C35.2483 22.8879 36.2206 23.3212 37.4174 23.7211C39.2498 24.3877 41.5685 25.0209 43.6627 24.9876Z" fill="#FCE5E6"/>
<path d="M43.9991 22.6211C44.0365 22.2212 44.0739 21.8879 44.1113 21.5879C41.5682 21.5879 38.6138 20.5548 36.8936 19.8215C36.8936 19.8549 36.8936 19.8549 36.8936 19.8882C36.8188 20.1881 36.744 20.5214 36.5944 20.8214C37.0057 20.988 37.4919 21.188 37.9781 21.3546C39.7358 21.9879 41.9422 22.5878 43.9991 22.6211Z" fill="#FCE5E6"/>
<path d="M37.2292 17.3552C37.1918 17.7218 37.1544 18.0884 37.0796 18.4217C37.5658 18.5884 38.1641 18.7883 38.8373 18.9883C40.6698 19.5216 42.951 19.9882 45.0453 19.8215C45.3445 19.3883 45.5315 18.9883 45.6063 18.7217C42.8014 19.155 39.0617 18.0218 37.2292 17.3552Z" fill="#FCE5E6"/>
<path d="M37.6784 14.9556C37.6036 15.2222 37.5288 15.5888 37.454 15.9887C37.9028 16.1221 38.3889 16.2887 38.9499 16.4553C40.7824 16.9886 43.1384 17.4552 45.2327 17.2886C45.0831 16.9886 44.8587 16.6553 44.6343 16.2887C42.1661 16.322 39.3613 15.5221 37.6784 14.9556Z" fill="#FCE5E6"/>
<path d="M39.0624 15.8555L37.3046 16.822C37.1551 17.8552 37.0429 18.9883 36.9307 19.6216C39.2493 19.255 39.0624 15.8555 39.0624 15.8555Z" fill="#AC2F88"/>
<path d="M38.5013 14.1557C35.1356 14.4556 28.4414 16.7553 27.5813 15.9221C26.5715 14.8889 29.2268 8.82315 27.1699 8.75649C25.2252 8.68984 21.5229 17.1886 24.6643 19.5882C28.8528 22.7544 37.0802 18.3217 37.8282 17.5885C39.4363 16.0887 39.7729 14.0224 38.5013 14.1557Z" fill="#EC6265"/>
<path d="M24.7012 19.555C22.046 17.5553 24.215 11.2896 26.1223 9.32321C28.0296 8.82328 26.6459 10.5564 26.4215 11.4562C26.1597 12.3228 25.0004 14.3891 24.8134 15.7889C24.6638 17.1887 24.8508 17.7553 25.524 18.6551C26.1971 19.555 27.4312 19.355 29.5255 18.6218C31.6198 17.8886 30.8344 18.9218 32.5921 18.7885C34.3498 18.6551 35.8457 17.4887 36.6684 16.3888C37.379 15.4556 38.8749 15.3556 39.2489 15.3556C39.0993 16.0222 38.6505 16.8887 37.8652 17.5886C37.0798 18.2552 28.8897 22.7212 24.7012 19.555Z" fill="#AE283E"/>
<path d="M28.1418 8.52343C28.254 7.89019 28.5158 7.79021 28.4784 7.55691C28.4784 7.32361 28.067 7.35694 27.7678 7.75688C27.4686 8.15682 27.319 8.05683 27.132 7.92352C26.9451 7.79021 26.4215 6.69037 25.8231 6.82368C25.2248 6.957 25.5987 7.55691 25.7857 8.22348C25.9727 8.89004 26.0849 9.95655 26.9077 9.92322C28.1792 9.88989 28.067 8.92337 28.1418 8.52343Z" fill="#EC6265"/>
<path d="M42.5772 12.1562L42.3154 13.8227C42.2406 14.1893 43.4747 15.6557 42.2032 15.8224C41.7544 15.889 40.5951 14.3559 40.8569 14.0226L41.6796 12.1896L42.5772 12.1562Z" fill="#EC6265"/>
<path d="M42.428 13.1224L42.3159 13.8223V13.8556C42.0541 13.689 41.7549 13.4557 41.8297 13.2224C41.8671 13.0224 42.1289 13.0558 42.428 13.1224Z" fill="#322767"/>
<path d="M41.5303 11.7561C41.1937 12.3893 41.4555 13.1559 42.166 13.4558C42.8018 13.7225 43.5871 13.5558 43.9237 12.8226C44.2229 12.156 43.8863 11.4561 43.7741 11.0895C43.6245 10.5563 43.2879 10.5563 42.8392 11.0562C42.54 11.3228 41.5303 11.7561 41.5303 11.7561Z" fill="#EC6265"/>
<path d="M41.568 11.8229C41.5306 11.7562 41.5306 11.6896 41.4932 11.5896C41.4558 11.4563 41.381 11.223 41.1566 11.3896C40.8575 11.5896 41.0444 12.3561 41.4184 12.3561C41.7549 12.3561 41.6428 12.0228 41.568 11.8229Z" fill="#EC6265"/>
<path d="M43.026 12.3229C43.026 12.3229 43.3626 12.3895 43.8862 12.2896C43.8862 12.2896 43.8862 12.5229 43.7366 12.6228C43.5122 12.7228 43.1756 12.6895 43.026 12.3229Z" fill="#F0F3F7"/>
<path d="M42.3161 13.1892C42.5779 13.2558 43.1015 13.2891 43.3633 13.1892C43.5877 13.0892 43.8495 12.8225 43.9243 12.7559V12.7892C43.5877 13.5224 42.8023 13.6891 42.1665 13.4225C41.7552 13.2225 41.4934 12.8892 41.4186 12.4893C41.6804 12.9225 42.0544 13.1225 42.3161 13.1892Z" fill="#AE283E"/>
<path d="M22.2711 66.8477C22.6825 66.9477 23.4304 67.3809 23.767 67.3809C24.1036 67.3809 24.7767 67.1143 25.2255 67.4143C25.7117 67.6809 26.31 68.9807 26.6092 69.3473C26.9084 69.6806 27.8059 70.2138 27.7685 70.7138C27.6563 70.9471 27.3198 71.0804 26.9832 70.9471L21.7849 69.214C21.3362 69.0474 21.037 68.6807 21.1118 68.3141C21.224 67.9475 21.8597 66.7477 22.2711 66.8477Z" fill="#F0F3F7"/>
<path d="M4.28257 43.7181C4.20778 44.118 3.75901 44.7846 3.79641 45.0846C3.79641 45.3845 4.13297 45.9511 3.87119 46.3844C3.60941 46.8176 2.1883 47.4509 1.81433 47.7508C1.44035 48.0508 0.954199 48.8507 0.355839 48.884C0.0940569 48.8173 -0.0555421 48.5174 0.0192529 48.2174L1.58995 43.4848C1.73954 43.0515 2.15091 42.7849 2.52489 42.8182C2.97366 42.8516 4.35737 43.3182 4.28257 43.7181Z" fill="#F0F3F7"/>
<path d="M35.5853 33.2197C35.5853 33.2197 27.9935 43.3515 25.8245 44.8846C25.8245 44.8846 29.265 44.7847 32.0699 41.4518C34.8373 38.119 35.5853 33.2197 35.5853 33.2197Z" fill="#AC2F88"/>
<path d="M75.6592 65.3751C75.8836 64.7086 76.9681 64.242 76.9681 64.242L76.9307 62.9088L79.8477 62.6755L79.6981 64.6086C79.6981 64.6086 79.399 65.2085 78.5014 65.6418C77.2673 66.175 75.3974 66.0084 75.6592 65.3751Z" fill="#EC6265"/>
<path d="M73.8636 66.8415C73.8636 66.1749 74.4245 65.6083 74.9855 65.175C75.7335 64.6085 76.6684 64.2752 77.6033 64.1085C78.1269 64.0419 78.7253 63.9419 79.2488 63.9419C79.7724 63.9419 80.0342 64.3418 80.1464 64.6085C80.2212 64.7418 80.296 64.8751 80.3708 65.0084C80.6326 65.375 81.1187 66.1749 80.7447 66.6415C79.9968 67.5414 73.7888 67.1747 73.8636 66.8415Z" fill="#205379"/>
<path d="M70.984 28.9474C70.984 28.9474 71.0588 41.4122 71.2084 44.745C71.358 48.0112 73.4522 62.1091 74.836 63.0756C77.0798 64.6754 79.8098 63.3422 80.9692 62.6757C82.1285 62.0424 80.2586 46.5447 80.109 44.8117C79.9594 43.1119 82.3155 31.8803 81.3057 28.6807C80.3334 25.4812 70.984 28.9474 70.984 28.9474Z" fill="white"/>
<path d="M81.3428 28.6807C80.707 26.6476 76.6681 27.3142 73.8259 28.0474C73.8259 28.2141 73.8633 28.414 73.9007 28.5807C74.4617 31.8135 76.6681 32.9134 76.7803 34.9464C76.8551 36.9794 73.1528 38.2126 73.078 42.5453C73.0032 46.8779 73.7137 43.9784 75.3218 50.7107C76.9299 57.4097 76.7803 59.7427 76.7803 59.7427C76.7803 59.7427 75.621 61.7757 75.6958 63.5088C77.7526 64.342 79.9965 63.2422 81.0436 62.6756C82.2029 62.0424 80.3331 46.5447 80.1835 44.8116C79.9965 43.1118 82.3525 31.8802 81.3428 28.6807Z" fill="#767676"/>
<path d="M71.2458 2.45117C71.2458 2.45117 71.2084 3.21772 71.0962 3.98427C70.984 4.75083 71.0589 5.45072 71.8816 5.61736C72.4425 5.75068 73.8262 4.98412 73.6393 3.98427C73.4149 2.98443 71.2458 2.45117 71.2458 2.45117Z" fill="#EC6265"/>
<path d="M72.5543 4.98416C71.7689 5.08415 71.2827 4.85085 71.0583 4.71754C71.0957 5.1508 71.3201 5.48409 71.8811 5.58407C72.2925 5.68406 73.1901 5.28412 73.5266 4.65088C73.1901 4.81752 72.8535 4.95083 72.5543 4.98416Z" fill="#AE283E"/>
<path d="M57.9696 65.3753C58.194 64.7087 59.2785 64.2421 59.2785 64.2421L59.7273 62.809L62.6443 62.5757L62.2704 64.7754C62.2704 64.7754 61.672 65.2086 60.7745 65.6419C59.5777 66.1752 57.7452 66.0085 57.9696 65.3753Z" fill="#EC6265"/>
<path d="M56.2115 66.8415C56.2115 66.1749 56.7724 65.6083 57.3334 65.175C58.0814 64.6085 59.0163 64.2752 59.9512 64.1085C60.4748 64.0419 61.0732 63.9419 61.5967 63.9419C62.1203 63.9419 62.3821 64.3418 62.4943 64.6085C62.5691 64.7418 62.6439 64.8751 62.7187 65.0084C62.9805 65.375 63.4666 66.1749 63.0926 66.6415C62.3447 67.5414 56.1367 67.1747 56.2115 66.8415Z" fill="#205379"/>
<path d="M75.4713 10.3833C72.7787 8.81691 66.1219 4.15094 64.7756 5.35076C62.0082 7.7504 69.0764 14.4161 73.9381 16.5158C78.8371 18.5488 77.9022 11.7831 75.4713 10.3833Z" fill="#E34D95"/>
<path d="M75.5836 6.18405C75.5836 6.18405 75.1349 5.15087 74.6487 4.45098C74.1999 3.81774 73.7512 3.51778 73.1528 3.38447C71.8813 3.08452 72.0683 7.28389 72.6667 7.45053C73.265 7.61717 75.5836 6.18405 75.5836 6.18405Z" fill="#EC6265"/>
<path d="M74.2751 5.01753C74.4621 4.95088 74.836 4.41762 74.836 4.41762C74.836 4.41762 75.9954 3.01783 75.21 1.71803C74.7239 0.951475 74.0133 0.984803 74.0133 0.984803C74.0133 0.984803 72.5922 -0.814928 71.0963 0.451549C69.7874 1.55138 71.2833 2.55124 71.3207 3.11782C71.3955 3.65107 71.4329 3.88437 71.6199 3.81771C71.8443 3.75106 72.1434 3.71773 72.4052 4.11767C72.667 4.51761 73.7889 5.18417 74.2751 5.01753Z" fill="#6B2A86"/>
<path d="M71.807 6.81739C71.807 6.81739 71.994 5.75088 73.1159 5.38427C74.2379 4.98433 75.285 4.91767 75.8086 5.38427C76.3321 5.85087 76.7809 6.28414 76.7809 6.28414L71.807 6.81739Z" fill="#E34D95"/>
<path d="M59.989 47.078C61.4849 39.5124 64.7759 28.1141 65.3369 26.8477C67.3937 27.1809 70.6847 27.3476 72.7416 27.3476C74.1253 29.1473 76.6683 29.8805 72.592 38.4459C71.4701 40.8122 69.2262 45.3449 68.7026 47.5779C67.4685 52.9104 65.0003 60.5759 64.2149 62.5756C63.6914 63.8421 60.0264 64.6087 58.4557 62.5756C57.446 61.2425 56.7728 63.4755 59.989 47.078Z" fill="white"/>
<path d="M67.7301 27.1143L66.6455 27.3476C66.6455 27.3476 67.9544 29.8472 67.2439 34.3132C66.5707 38.7792 64.8131 40.5456 64.1399 43.1785C63.4667 45.8115 65.4862 50.7107 64.0277 53.1437C62.7562 55.2767 57.4831 58.7429 58.3807 62.509C58.4181 62.5423 58.4181 62.5756 58.4555 62.6089C60.0262 64.642 63.6911 63.8754 64.2147 62.6089C65.0374 60.6092 67.4683 52.9437 68.7024 47.6112C69.226 45.3782 71.4698 40.8455 72.5917 38.4792C76.3689 30.5471 74.4242 29.3139 73.0405 27.7475C72.4796 27.6142 71.9186 27.4809 71.395 27.3476C70.2731 27.2809 68.9642 27.2142 67.7301 27.1143Z" fill="#767676"/>
<path d="M64.9623 28.2472C64.5135 27.3807 65.5606 25.6143 65.5606 22.4814C65.5606 17.2489 63.7655 12.5496 66.3086 9.38339C69.637 5.25067 80.1457 4.65076 80.931 9.21675C81.2676 11.1498 81.3424 15.1825 81.6042 18.582C81.7164 20.1484 82.6513 27.1807 81.3424 28.2472C80.7814 28.7138 78.2758 29.3471 76.2937 29.3137C75.3588 29.2804 66.0094 29.1804 64.9623 28.2472Z" fill="#E34D95"/>
<path d="M74.6111 2.95125C73.751 2.95125 73.6014 2.21803 73.6014 2.21803C73.6014 2.21803 73.4144 2.31802 72.4795 2.1847C71.8063 2.08472 71.0958 1.21818 70.7966 0.784912C70.086 1.75143 71.2828 2.61797 71.3201 3.1179C71.3949 3.65115 71.4323 3.88445 71.6193 3.81779C71.8437 3.75114 72.1429 3.71781 72.4047 4.11775C72.6664 4.51769 73.751 5.21758 74.2371 5.05094C74.4241 4.98428 74.7981 4.45103 74.7981 4.45103C74.7981 4.45103 75.4713 3.65115 75.4339 2.68463C75.2095 2.78461 74.9103 2.91793 74.6111 2.95125Z" fill="#6B2A86"/>
<path d="M71.6195 3.91762C71.6195 3.91762 71.5073 3.55101 71.8065 3.35104C72.1431 3.15107 72.3675 3.51768 72.1805 4.08427C71.9935 4.68418 71.6943 4.51754 71.6195 3.91762Z" fill="#EC6265"/>
<path d="M57.7829 26.8809L69.9371 30.1471C70.7972 30.3804 71.3208 31.1803 71.1338 31.9801L68.8151 41.9453C68.5907 42.8785 65.9355 43.0118 64.9258 42.6785L54.3049 39.0124C53.4822 38.7458 52.996 37.9792 53.2204 37.2127L55.539 28.0807C55.7634 27.1475 56.8105 26.6143 57.7829 26.8809Z" fill="#289BC5"/>
<path d="M61.8589 33.4799C61.7841 33.7132 61.298 33.8132 60.7744 33.6466C60.2509 33.4799 59.8769 33.18 59.9517 32.9467C60.0265 32.7134 60.5126 32.6134 61.0362 32.78C61.5598 32.9133 61.9337 33.2466 61.8589 33.4799Z" fill="#289BC5"/>
<path d="M56.7351 27.4807C56.7351 27.4807 57.4083 30.5136 59.5399 32.28C59.5399 32.28 57.3709 28.7805 56.7351 27.4807Z" fill="#289BC5"/>
<path d="M62.3075 33.4133C62.3075 33.4133 65.5611 33.8799 68.5903 32.0469C68.6277 32.0469 62.6067 33.38 62.3075 33.4133Z" fill="#289BC5"/>
<path d="M56.0245 28.7807C56.0245 28.7807 60.2505 16.2492 62.3447 13.1163C65.7853 8.05042 67.543 7.88378 69.0763 9.48354C73.6014 14.2162 70.9462 32.3801 70.9462 32.3801L68.5527 31.3803C68.5527 31.3803 71.021 12.4831 68.0666 9.65018C67.5056 9.11693 64.8504 11.1833 63.4667 13.9495C62.0829 16.7158 58.3058 28.414 58.3058 28.414L56.0245 28.7807Z" fill="#289BC5"/>
<path d="M62.2327 17.349C62.2327 17.349 62.7189 16.7491 62.7563 16.2492C62.7937 15.7493 63.3173 14.9494 62.9807 14.8827C62.6441 14.8161 62.1579 15.316 62.1205 15.6826C62.0831 16.0492 61.223 15.516 61.223 15.2493L61.5595 14.5161C61.5595 14.5161 59.914 14.9161 59.6896 16.2825C59.4652 17.649 61.1856 18.1489 62.2327 17.349Z" fill="#EC6265"/>
<path d="M59.5029 17.6157C58.7549 18.3823 58.2688 19.4821 59.6899 22.0151C61.111 24.5147 63.3922 25.9811 66.571 26.681C69.7498 27.3809 69.862 25.2479 68.4409 22.5816C66.9824 19.9487 61.9711 15.1161 59.5029 17.6157Z" fill="#E34D95"/>
<path d="M69.7121 25.5477C70.0113 23.5814 67.5057 23.4814 65.4862 23.7147C65.3366 25.4477 64.9253 26.6476 64.8505 27.4808C66.2342 27.7474 69.3382 28.0474 69.7121 25.5477Z" fill="#322767"/>
<path d="M68.4411 22.5815C68.4037 22.4815 68.3289 22.3815 68.2915 22.3149C67.1321 22.6482 66.085 22.9148 65.5614 22.4815C64.1777 21.315 64.1778 22.1816 62.607 21.515C61.4477 21.0151 60.0266 18.8821 59.3535 17.7822C58.7177 18.5488 58.3811 19.6819 59.69 22.0149C61.1111 24.5146 63.3924 25.981 66.5712 26.6809C66.9452 26.7809 67.2817 26.8142 67.5809 26.8142C68.0671 26.6476 68.5533 26.4476 69.0394 26.281C69.563 25.5477 69.2638 24.1813 68.4411 22.5815Z" fill="#AC2F88"/>
<path d="M66.9822 9.31685C65.9351 9.65013 64.4018 11.8498 64.1774 14.6494C63.9904 17.449 63.3172 23.9147 65.6733 25.9477C68.0293 27.9474 70.1984 26.1477 70.4602 23.1814C70.722 20.2152 70.5349 8.21701 66.9822 9.31685Z" fill="#E34D95"/>
<path d="M65.7487 5.58434C65.8235 5.31771 65.5991 4.65115 65.3747 4.28454C64.926 3.61797 64.926 3.61797 64.926 3.15137C64.926 2.81809 64.2528 2.35149 64.2154 3.11804C64.2154 3.58464 64.7016 4.31786 64.2528 4.18455C63.6171 3.95125 62.9439 2.65145 62.7943 2.81809C62.0838 3.51798 62.1212 5.21773 63.6545 6.35089C64.1032 6.68418 65.3373 7.01746 65.7487 5.58434Z" fill="#EC6265"/>
<path d="M63.2421 1.95117H61.26C60.9608 1.95117 60.7739 2.15114 60.8486 2.41777L61.8584 6.4505C61.9332 6.71713 62.2324 6.9171 62.5315 6.9171H64.5136C64.8128 6.9171 64.9998 6.71713 64.925 6.4505L63.9153 2.41777C63.8405 2.15114 63.5413 1.95117 63.2421 1.95117Z" fill="#322767"/>
<path d="M65.037 6.45063L64.0273 2.4179C63.9525 2.11794 63.6159 1.85132 63.2419 1.85132H61.2599C61.0729 1.85132 60.9233 1.91797 60.8485 2.01796C60.7363 2.11794 60.6989 2.28459 60.7363 2.45123L61.746 6.48395C61.8208 6.78391 62.1574 7.05054 62.5314 7.05054H64.5134C64.7004 7.05054 64.85 6.98388 64.9248 6.88389C65.0744 6.75058 65.1118 6.58394 65.037 6.45063ZM64.7752 6.75058C64.7004 6.81724 64.6256 6.85056 64.5134 6.85056H62.5314C62.307 6.85056 62.0452 6.6506 61.9704 6.45063L60.9607 2.4179C60.9233 2.31791 60.9607 2.21793 60.9981 2.15127C61.0729 2.08462 61.1477 2.05129 61.2599 2.05129H63.2419C63.4663 2.05129 63.7281 2.25126 63.8029 2.45123L64.8126 6.48395C64.85 6.58394 64.85 6.68392 64.7752 6.75058Z" fill="#ADA6D2"/>
<path d="M81.343 28.2475C82.6519 27.2143 81.717 20.1487 81.6048 18.5822C81.343 15.1827 81.2682 11.15 80.9316 9.21697C80.5202 6.85066 77.491 5.85081 74.2001 6.05078C75.2472 6.31741 76.4813 6.75068 76.7431 7.45057C77.2667 8.75038 77.5284 8.51708 77.0423 10.9834C76.5561 13.4497 76.3691 14.3495 77.4536 16.0826C78.5382 17.8157 80.5576 17.849 79.3609 20.4486C78.1642 23.0482 74.0131 24.4147 73.4147 28.814C73.3773 28.9474 73.3773 29.0807 73.3773 29.214C74.8358 29.2473 75.9577 29.2806 76.2569 29.2806C78.3138 29.3473 80.782 28.7141 81.343 28.2475Z" fill="#AC2F88"/>
<path d="M66.9826 10.5167C65.711 11.6499 65.4493 12.783 66.1972 14.8827C66.9452 16.9824 67.2818 16.3491 66.5338 18.0489C65.7859 19.7486 65.5241 21.9816 65.1875 23.5147C64.9257 24.7812 64.5891 24.7479 65.4867 25.8477C65.5241 25.8811 65.5989 25.9477 65.6363 25.981C67.9923 27.9807 70.1613 26.181 70.4231 23.2148C70.6475 20.7818 70.5353 12.2498 68.5159 9.88345C68.1793 9.85012 67.6183 9.98343 66.9826 10.5167Z" fill="#AC2F88"/>
</svg>
