<svg width="64" height="74" viewBox="0 0 64 74" fill="none" xmlns="http://www.w3.org/2000/svg">
<path d="M13.8839 7.13403C13.8839 7.13403 3.43071 12.1376 2.71417 14.1913C1.99762 16.2823 1.99761 18.9708 6.12829 18.5974C10.2168 18.2613 16.2864 9.03837 13.8839 7.13403Z" fill="#AE283E"/>
<path d="M18.3092 4.85634C18.3092 4.85634 21.4704 7.32077 21.5547 10.2706C21.639 13.2205 15.9488 12.9964 15.7802 11.2415C15.6116 9.48648 15.9488 4.52029 18.3092 4.85634Z" fill="#205379"/>
<path d="M22.693 24.0117C22.693 24.0117 22.693 23.9744 22.6508 23.9744C22.0607 23.0036 21.3863 22.1821 20.7541 21.4726C19.2367 19.867 17.8036 18.7841 17.4664 17.3652C16.792 14.378 22.1029 9.18781 19.7003 7.95559C16.5391 6.34998 13.968 6.05126 11.9869 8.77707C9.37365 12.3617 8.10916 14.378 5.03223 23.5637C7.60336 24.8332 14.5159 27.5964 22.693 24.0117Z" fill="#E34D95"/>
<path d="M21.0491 71.2092C20.9227 71.0598 20.8384 70.5744 20.8384 70.425C19.616 70.5744 18.8573 70.7238 18.3515 70.5744C18.2672 70.9851 16.8763 73.1135 17.4242 73.3749C18.5201 73.8977 24.9269 73.935 24.9269 73.3749C24.9269 72.6281 21.2177 71.4332 21.0491 71.2092Z" fill="#205379"/>
<path d="M3.97861 71.2092C4.10505 71.0598 4.18935 70.5744 4.18935 70.425C5.41169 70.5744 6.17037 70.7238 6.67617 70.5744C6.76047 70.9851 8.15141 73.1135 7.60347 73.3749C6.50758 73.8977 0.10083 73.935 0.10083 73.3749C0.10083 72.6281 3.81001 71.4332 3.97861 71.2092Z" fill="#205379"/>
<path d="M18.3096 2.31726C18.3096 2.31726 19.279 3.13873 18.9418 4.25893C18.6468 5.37912 16.75 5.52848 16.1178 5.0804C15.5277 4.63233 14.9797 2.20524 16.2864 2.05588C17.6352 1.94386 18.3096 2.31726 18.3096 2.31726Z" fill="#205379"/>
<path d="M15.6544 7.09692C15.6544 7.09692 14.7692 7.58234 14.6006 8.2918C14.432 9.00125 15.3171 9.37465 16.2444 9.11327C17.1717 8.8519 17.3403 7.95574 17.4246 7.545C17.5089 7.13426 16.2023 6.87288 15.6544 7.09692Z" fill="#205379"/>
<path d="M17.3827 4.55762L17.4248 7.39545C17.4248 7.88086 16.1182 9.07574 15.2752 8.4783C15.0223 8.2916 15.3595 7.65682 15.5702 7.17141L16.2025 4.70698L17.3827 4.55762Z" fill="#EC6265"/>
<path d="M15.8647 6.20076C16.5391 6.01406 17.2557 5.08057 17.2557 5.08057H16.1598L15.8647 6.20076Z" fill="#322767"/>
<path d="M17.382 2.72796L17.5927 3.81082C17.7613 4.66963 17.1291 5.52845 16.1596 5.67781C15.2745 5.82717 14.3893 5.34175 14.2629 4.33358C14.1364 3.43742 14.853 2.65328 15.1059 2.24254C15.696 1.38373 17.0448 1.49575 17.382 2.72796Z" fill="#EC6265"/>
<path d="M17.3406 3.81085C17.3828 3.73617 17.4249 3.62415 17.4249 3.51213C17.467 3.32543 17.5513 3.06405 17.8464 3.25075C18.2679 3.51213 18.015 4.48297 17.5092 4.48297C17.0877 4.48297 17.2563 4.03489 17.3406 3.81085Z" fill="#EC6265"/>
<path d="M14.7694 3.47473C14.7694 3.36271 14.7694 3.28803 14.7694 3.17601C14.7694 2.98932 14.7695 2.72794 14.4322 2.83996C13.9686 3.02666 13.9686 3.99749 14.4744 4.10951C14.8116 4.14685 14.8116 3.69877 14.7694 3.47473Z" fill="#EC6265"/>
<path d="M16.2026 4.29633C16.2026 4.29633 15.6969 4.33367 15.0225 4.14697C15.0225 4.14697 15.1068 4.59505 15.3597 4.78175C15.5704 4.96845 15.9497 4.74441 16.2026 4.29633Z" fill="white"/>
<path d="M16.0334 5.37901C15.654 5.37901 15.0218 5.26699 14.7268 5.04295C14.4739 4.85625 14.2631 4.44552 14.2209 4.3335V4.37084C14.3474 5.37901 15.2325 5.82709 16.1177 5.71507C16.7078 5.60305 17.1714 5.26699 17.4243 4.78157C16.9185 5.22965 16.3706 5.34167 16.0334 5.37901Z" fill="#AE283E"/>
<path d="M20.7964 21.4353C19.279 19.8296 17.8459 18.7468 17.5087 17.3279C16.8343 14.3407 22.1452 9.15044 19.7426 7.91822C19.279 7.69418 18.8153 7.47015 18.3517 7.28345C17.3823 8.70236 15.7384 11.2788 15.6541 11.9883C15.5698 12.8844 14.9797 24.4224 21.5129 22.2567C21.26 21.9953 21.0071 21.6966 20.7964 21.4353Z" fill="#DD8B8C"/>
<path d="M14.4744 1.64516C14.5166 1.57048 14.5587 1.45846 14.6009 1.38378C14.7273 1.08506 15.1066 0.375605 16.3711 0.263585C16.5397 0.263585 16.7084 0.0395456 16.9191 0.00220576C17.7621 -0.0351341 17.8885 0.412945 18.1414 0.487624C18.9001 0.749003 19.0266 1.04772 19.0266 1.94388C19.0266 2.8027 18.7737 2.91471 18.7737 2.91471C18.7737 2.91471 16.9191 3.10141 15.7811 2.84003C14.7273 2.616 14.2637 2.13058 14.4744 1.64516Z" fill="#F8AF40"/>
<path d="M24.4214 30.1728C24.3371 28.6045 24.0842 27.2603 23.6627 26.1028V26.0654C23.6205 25.9908 23.6205 25.9161 23.5784 25.8414V25.8041C23.4519 25.5053 23.3255 25.2066 23.199 24.9452C23.199 24.9452 23.199 24.9452 23.199 24.9079C23.1569 24.8332 23.1147 24.7585 23.1147 24.7212C22.9883 24.4598 22.8197 24.1984 22.6932 23.9371C22.1031 22.9662 21.4287 22.1447 20.7965 21.4353C19.2791 19.8297 17.846 18.7468 17.5088 17.3279C17.5088 17.2906 17.5088 17.2906 17.5088 17.2532C15.9071 15.6103 16.2865 12.9965 16.8344 11.4282C17.4245 9.8226 18.8155 8.17964 19.3634 7.73156C19.0262 7.43284 18.7311 7.28349 18.141 7.20881L15.6121 10.8681L12.5351 9.97195C13.4624 8.29166 14.4319 7.39551 15.2327 6.72339C14.0104 6.83541 12.9566 7.43284 11.9872 8.73974C9.2896 12.399 8.06724 14.4527 4.77956 24.1984C4.48451 25.0573 4.18947 25.9534 3.93657 26.8122C0.606736 37.0433 2.4192 63.7413 3.00929 69.7531C3.09359 70.4999 3.76798 71.0599 4.61098 71.0599C5.70687 71.0599 7.18211 71.06 8.32015 71.0226C9.16315 70.9853 9.8797 70.3878 9.8797 69.641C10.1326 62.9199 10.9756 33.6081 12.8723 31.7784C12.8723 31.7784 16.6658 64.7122 17.0452 69.8651C17.0873 70.2385 17.4245 70.5372 17.846 70.5745C19.1526 70.6492 21.8502 70.7239 23.3255 70.6492C23.7891 70.6492 24.1685 70.3132 24.1685 69.8651C24.1685 64.7122 24.5478 32.3759 24.4214 30.1728Z" fill="#289BC5"/>
<path d="M10.3437 13.2952L15.2753 14.49C15.2753 14.49 14.4744 16.5064 12.4934 16.3944C10.5123 16.2824 9.79578 14.266 10.3437 13.2952Z" fill="#205379"/>
<path d="M24.4214 30.1729C24.3371 28.6046 24.0842 27.2604 23.6627 26.1029V26.0655C23.6206 25.9908 23.6206 25.9162 23.5784 25.8415V25.8041C23.452 25.5054 23.3255 25.2067 23.199 24.9453C23.199 24.9453 23.199 24.9453 23.199 24.908C23.1569 24.8333 23.1147 24.7586 23.1147 24.7213C22.9883 24.4599 22.8197 24.1985 22.6932 23.9371C22.1031 22.9663 21.4287 22.1448 20.7965 21.4354C20.4172 21.0246 20.0378 20.6512 19.7006 20.2778C20.5436 23.9371 21.9346 30.621 21.9767 35.3631C22.061 41.5242 20.2907 55.0039 15.5699 55.2279C16.2865 61.9118 16.9609 67.9235 17.0873 69.8652C17.1295 70.2386 17.4667 70.5373 17.8882 70.5746C19.1948 70.6493 21.8924 70.724 23.3677 70.6493C23.8313 70.6493 24.2106 70.3132 24.2106 69.8652C24.1685 64.7123 24.5478 32.3759 24.4214 30.1729Z" fill="#205379"/>
<path d="M7.73037 47.7598C7.01383 53.9209 4.44271 55.4892 2.16663 55.5639C2.37737 61.9863 2.79886 67.4753 3.05176 69.8277C3.13606 70.5745 3.81045 71.1346 4.65345 71.1346C5.74934 71.1346 7.22458 71.1346 8.36262 71.0972C9.20562 71.0599 9.92217 70.4625 9.92217 69.7157C10.1751 63.0692 10.9759 34.3175 12.8726 31.9277C12.3669 32.4505 8.99487 36.7819 7.73037 47.7598Z" fill="#205379"/>
<path d="M9.28957 15.3489C9.20527 15.3489 9.12098 15.3115 9.03668 15.2368C8.91023 15.1248 8.95237 14.9381 9.07882 14.8261L13.926 11.2788C14.0525 11.1668 14.2633 11.2041 14.3897 11.3162C14.5162 11.4282 14.474 11.6149 14.3475 11.7269L9.50032 15.2742C9.41602 15.3115 9.37387 15.3489 9.28957 15.3489Z" fill="#205379"/>
<path d="M19.0258 1.94378C19.0258 1.04762 18.8993 0.748901 18.1406 0.487522C18.0985 0.487522 18.0563 0.450182 18.0563 0.412842C17.7612 0.487521 17.3819 0.599541 17.1712 0.82358C16.7497 1.23432 16.3282 2.16781 16.2439 2.42919C16.2017 2.54121 16.4546 2.76525 16.7497 2.98929C17.7613 3.02663 18.815 2.95195 18.815 2.95195C18.815 2.95195 19.0258 2.80259 19.0258 1.94378Z" fill="#F2904C"/>
<path d="M14.5163 1.98133C14.432 1.83198 13.8419 2.80281 14.7692 3.10153C16.7502 3.69897 17.6775 3.02685 17.6775 3.02685C17.6775 3.02685 14.9799 2.80281 14.5163 1.98133Z" fill="#FCCC82"/>
<path d="M20.3329 8.66502C21.8924 9.63586 24.2107 20.4271 20.0378 22.8542C15.865 25.2813 7.13999 16.0583 9.20533 14.49C11.2707 12.9218 16.5394 18.6721 17.4245 18.2987C18.0146 18.0747 17.6774 7.02207 20.3329 8.66502Z" fill="#EC6265"/>
<path d="M21.9345 12.4736C21.3866 12.6977 20.9651 12.9591 20.7543 13.2578C19.8692 14.5647 20.8808 16.8797 21.0915 18.2613C21.3023 19.6055 19.827 20.8378 18.4361 21.2112C17.0452 21.5472 17.0452 21.5472 15.2749 20.5017C13.5046 19.4562 12.9566 17.9626 11.6921 16.693C11.1442 16.1329 10.0062 15.7969 8.91028 15.5728C9.54252 18.4853 16.4129 24.9078 19.9957 22.8168C22.7354 21.2858 22.6932 16.1329 21.9345 12.4736Z" fill="#AE283E"/>
<path d="M11.2698 17.7387L9.75242 9.52394C9.66812 9.15054 9.33092 8.88916 8.90943 8.88916H3.21922C2.67128 8.88916 2.29193 9.2999 2.37623 9.78532L3.89361 18.0001C3.97791 18.3735 4.3151 18.6349 4.7366 18.6349H10.4268C10.9326 18.6349 11.3541 18.1868 11.2698 17.7387Z" fill="#205379"/>
<path d="M4.7369 9.4865H7.47664C7.77169 9.4865 7.9403 9.22512 7.856 9.00108L7.81384 8.88906C7.72954 8.77704 7.6031 8.66502 7.4345 8.66502H6.80225C6.67581 8.66502 6.54933 8.59034 6.46504 8.51566L6.17001 8.10492C6.08571 7.99291 5.95924 7.95557 5.83279 7.95557H5.74851C5.49561 7.95557 5.327 8.14227 5.36915 8.32896C5.36915 8.553 5.20054 8.70236 4.98979 8.70236H4.82121C4.61046 8.70236 4.44185 8.85172 4.44185 9.03842V9.1131C4.35755 9.33714 4.52615 9.4865 4.7369 9.4865Z" fill="#205379"/>
<path d="M2.33508 14.1166C2.33508 14.1166 2.37724 13.0338 2.84088 12.7351C3.30453 12.4363 4.56903 12.2496 4.48473 12.399C4.40043 12.5857 3.30452 12.9218 3.30452 12.9218C3.30452 12.9218 4.56903 12.8097 4.90622 12.9591C5.24342 13.1085 4.99051 13.6312 4.73761 13.8179C4.48472 14.0046 3.47312 15.0501 2.88302 15.1248C2.37723 15.1995 2.33508 14.1166 2.33508 14.1166Z" fill="#EC6265"/>
<path d="M22.3143 15.1249C22.2721 14.6022 22.1878 14.0794 22.1035 13.5566L18.9423 14.3781C18.9844 14.3408 19.5324 15.5357 22.3143 15.1249Z" fill="#205379"/>
<path d="M22.5663 14.1539C22.2291 11.1667 21.0068 9.113 20.2902 8.70226C18.7307 7.73143 18.1827 11.2414 17.9298 14.3032C18.6042 14.5646 20.4588 15.0127 22.5663 14.1539Z" fill="#205379"/>
<path d="M20.4167 14.6394C21.049 14.602 21.8077 14.4527 22.5664 14.154C22.2292 11.1668 21.0068 9.11309 20.2903 8.70235C20.206 8.66501 20.1638 8.62767 20.1217 8.59033C20.0374 9.07575 19.9952 9.78521 20.2481 10.2706C20.6696 11.0921 21.3019 12.5857 20.8804 13.3325C20.7118 13.6312 20.5432 14.1166 20.4167 14.6394Z" fill="#E34D95"/>
<path d="M45.6228 2.20526C46.5079 2.27994 47.2666 2.84004 47.6038 3.5495C47.8146 3.99757 48.1517 4.40831 48.6997 4.48299C49.8799 4.63235 50.4278 5.15511 50.6807 5.90191C50.9336 6.61136 49.627 7.32082 49.627 7.32082C49.627 7.32082 50.0485 9.00112 48.3204 9.26249C46.5922 9.52387 42.4615 9.29983 42.1243 7.28348C41.7871 5.26713 41.7028 3.40014 43.2202 2.57866C43.8946 2.16792 44.8219 2.13058 45.6228 2.20526Z" fill="#289BC5"/>
<path d="M50.639 5.90185C50.3861 5.19239 49.8381 4.63229 48.6579 4.48293C48.11 4.40825 47.7728 3.99751 47.562 3.54944C47.3513 3.1387 47.0141 2.7653 46.6348 2.54126C47.0141 3.47476 47.4777 4.52027 47.8571 4.85633C48.5736 5.52845 48.1522 6.31258 45.7918 6.87268C44.2322 7.24608 43.2206 7.05938 41.9983 6.76066C42.0404 6.91002 42.0404 7.05938 42.0826 7.20874C42.4198 9.22509 46.5504 9.44913 48.2786 9.18775C50.0067 8.92637 49.5852 7.24608 49.5852 7.24608C49.5852 7.24608 50.8919 6.6113 50.639 5.90185Z" fill="#205379"/>
<path d="M30.069 34.9151C30.4484 34.5043 30.4484 33.0108 30.5749 33.0854C30.7435 33.1601 30.7435 33.3842 30.7435 33.7949C30.7435 34.2056 31.2914 34.3923 31.2071 33.9443C31.1228 33.4588 31.3757 33.0854 31.5022 32.5627C31.5443 32.264 31.3757 31.1811 30.617 31.0691C30.2798 31.0317 29.9005 31.1811 29.7319 31.2931C29.0996 31.7412 29.2261 33.4588 29.3525 34.2056C29.4368 34.6164 29.8583 35.1391 30.069 34.9151Z" fill="#AE283E"/>
<path d="M41.3658 9.85992C41.408 8.96376 40.2278 8.47835 39.4691 9.07578C38.8369 9.59854 38.0782 10.3453 37.4038 11.4282C35.8442 13.9673 30.2805 26.2148 29.6904 30.1355C29.1003 34.0561 33.7789 31.8904 35.6335 28.1938C37.193 25.1319 41.1129 14.3407 41.3658 9.85992Z" fill="#AE283E"/>
<path d="M59.5745 71.9935C59.2373 72.5163 55.6967 72.5163 55.0644 72.3296C54.7272 72.2175 55.0223 71.9188 55.3595 71.6574C54.2636 72.1429 52.9148 72.815 52.8726 73.151C52.7883 73.7111 59.2794 73.6738 60.3332 73.151C60.8811 72.8523 60.5018 72.2549 59.996 71.5828C59.8274 71.6574 59.6588 71.8068 59.5745 71.9935Z" fill="#93D2DD"/>
<path d="M55.3593 71.6573C56.0337 71.3959 56.5395 71.2092 56.7503 70.9852C57.1296 70.4251 49.1633 66.6164 44.9905 30.21C44.864 29.2392 51.3551 40.5158 55.7387 52.838C58.4784 60.5673 59.785 71.3212 59.9958 71.5826C59.8272 71.6946 59.7007 71.844 59.5743 71.9933C59.2371 72.5161 55.6965 72.5161 55.0643 72.3294C54.6849 72.2174 55.0221 71.9187 55.3593 71.6573Z" fill="#EC6265"/>
<path d="M59.5744 71.9935C59.2372 72.5163 55.6967 72.5163 55.0644 72.3296C54.7272 72.2175 55.0223 71.9188 55.3595 71.6574C54.2636 72.1429 52.9148 72.815 52.8726 73.151C52.7883 73.7111 59.2794 73.6738 60.3331 73.151C60.8811 72.8523 60.5017 72.2549 59.9959 71.5828C59.8273 71.6574 59.6587 71.8068 59.5744 71.9935Z" fill="#289BC5"/>
<path d="M55.3593 71.6573C56.0337 71.3959 56.5395 71.2092 56.7503 70.9852C57.0032 70.6118 49.4162 65.1601 45.7913 52.838C44.0632 46.901 46.3393 42.0841 44.9905 30.21C44.864 29.2392 51.3551 40.5158 55.7387 52.838C58.4784 60.5673 59.785 71.3212 59.9958 71.5826C59.8272 71.6946 59.7007 71.844 59.5743 71.9933C59.2371 72.5161 55.6965 72.5161 55.0643 72.3294C54.6849 72.2174 55.0221 71.9187 55.3593 71.6573Z" fill="#EC6265"/>
<path d="M38.4146 12.3617C38.6675 11.9509 38.6675 11.4655 38.4146 11.0921C38.0352 10.532 37.9931 9.82255 38.6253 9.22511C40.0162 7.84354 43.2196 7.0594 43.2196 7.0594C44.5684 6.64866 45.9594 7.0594 47.266 7.73152C52.0711 10.1586 45.5379 14.5274 46.2123 17.4772C46.2544 17.7013 46.3387 17.9253 46.4651 18.112C44.0626 18.4481 39.4261 18.8215 35.9698 17.6639C36.8971 15.3488 37.6137 13.7432 38.4146 12.3617Z" fill="#6B2A86"/>
<path d="M55.7383 52.838C53.42 46.3409 50.5538 40.1798 48.3621 35.8857C48.3621 35.8857 46.8025 48.2826 48.5307 51.2698C50.2588 54.2943 56.0333 59.6339 56.1598 63.1065C56.2441 65.8323 57.2978 69.6036 59.8268 70.7238C59.3632 68.11 58.0565 59.3725 55.7383 52.838Z" fill="#AE283E"/>
<path d="M46.4655 18.0746C46.3812 17.8506 46.2969 17.6639 46.2126 17.4398C45.5382 14.49 52.0714 10.0839 47.2664 7.69413C46.8027 7.47009 46.3391 7.28339 45.8754 7.13403C45.7911 7.91817 45.6225 9.11305 45.3275 10.0092C44.8638 11.3908 44.1894 11.9135 42.9671 11.9882C41.7447 12.1002 41.3654 11.4655 40.9017 12.2123C40.4381 12.9217 42.7563 15.0501 42.9671 18.3733C44.3159 18.336 45.5382 18.224 46.4655 18.0746Z" fill="#6B2A86"/>
<path d="M45.9177 4.70703L45.9598 7.5822C45.9598 8.06762 44.6532 9.26249 43.8102 8.66506C43.5573 8.47836 43.8945 7.84358 44.1053 7.35816L44.7375 4.89373L45.9177 4.70703Z" fill="#EC6265"/>
<path d="M44.3999 6.34993C45.0743 6.16323 45.7909 5.22974 45.7909 5.22974H44.695L44.3999 6.34993Z" fill="#322767"/>
<path d="M45.9169 2.87734L46.1276 3.96019C46.2962 4.81901 45.664 5.67783 44.6945 5.86452C43.8094 6.01388 42.9242 5.52847 42.7978 4.52029C42.6713 3.62413 43.3879 2.84 43.6408 2.42926C44.2309 1.5331 45.6218 1.64512 45.9169 2.87734Z" fill="#EC6265"/>
<path d="M45.8748 3.92291C45.917 3.84823 45.9591 3.73621 45.9591 3.62419C46.0013 3.43749 46.0856 3.17611 46.3806 3.36281C46.8021 3.62419 46.5492 4.59503 46.0434 4.59503C45.6641 4.59503 45.7905 4.14695 45.8748 3.92291Z" fill="#EC6265"/>
<path d="M43.3036 3.58679C43.3036 3.47477 43.3036 3.4001 43.3036 3.28808C43.3036 3.10138 43.3036 2.84 42.9664 2.95202C42.5028 3.13872 42.5028 4.10955 43.0086 4.22157C43.3458 4.29625 43.3458 3.84817 43.3036 3.58679Z" fill="#EC6265"/>
<path d="M43.3875 4.37109C43.3875 4.37109 43.8511 4.52045 44.5676 4.52045C44.5676 4.52045 43.6825 5.34193 43.3875 4.37109Z" fill="white"/>
<path d="M44.5676 5.49132C44.1882 5.49132 43.556 5.3793 43.2609 5.15526C43.008 4.96856 42.7973 4.55782 42.7551 4.4458V4.48314C42.8816 5.49132 43.7667 5.9394 44.6519 5.82738C45.242 5.71536 45.7056 5.3793 45.9585 4.89388C45.4527 5.34196 44.9048 5.49132 44.5676 5.49132Z" fill="#AE283E"/>
<path d="M33.4411 27.0737C26.5286 49.8137 36.6024 69.9399 36.6024 69.9399C36.6024 69.9399 36.8553 71.0601 36.7288 71.2094C36.6867 71.2841 35.7594 71.5455 35.0007 71.8442C34.6635 72.1056 34.3263 72.4043 34.7056 72.5163C35.2957 72.703 38.8785 72.7403 39.2157 72.2549C39.3421 72.0682 39.4686 71.9562 39.6372 71.8442C39.1735 71.2094 43.5571 33.4215 45.7489 31.4051C45.791 31.4051 33.694 26.2149 33.4411 27.0737Z" fill="#EC6265"/>
<path d="M39.2578 72.2921C38.9206 72.8148 35.3379 72.7402 34.7478 72.5535C34.4106 72.4414 34.7057 72.1427 35.0429 71.8813C33.947 72.3668 32.556 73.0015 32.5139 73.3376C32.4296 73.8977 38.9206 73.9724 39.9743 73.4496C40.5223 73.1882 40.1429 72.5535 39.6372 71.8813C39.5107 71.956 39.3421 72.1054 39.2578 72.2921Z" fill="#289BC5"/>
<path d="M46.803 9.59863C46.803 9.59863 45.7493 12.2124 47.1824 14.2288C47.7303 13.2579 48.4047 12.2871 48.7419 11.3536L46.803 9.59863Z" fill="#265789"/>
<path d="M43.094 41.636C41.5766 40.0304 37.4881 38.5368 37.3195 42.1588C37.1509 45.7808 35.5071 51.7551 36.6451 53.9582C37.7832 56.1239 37.193 58.8497 37.741 64.1146C38.1625 68.11 38.0782 70.8358 39.5956 71.9187C39.6377 71.8813 39.6377 71.8813 39.6799 71.844C39.3849 71.4333 41.3237 53.6968 43.2626 41.8227C43.1783 41.7854 43.1362 41.7107 43.094 41.636Z" fill="#AE283E"/>
<path d="M49.5004 20.7631C48.1937 19.2695 46.5499 18.4853 46.2549 17.2905C46.2127 17.1784 46.2127 17.0291 46.1705 16.9171C42.1242 17.2158 38.6679 16.805 36.4761 16.4316C35.6753 18.0746 34.7901 20.203 33.6099 23.1528C33.3149 23.8996 33.0198 24.6464 32.7669 25.3932C29.8586 33.0479 29.1842 39.5077 29.7322 48.8053C29.7743 49.2534 37.4456 50.6723 43.5573 50.6349C47.2243 50.6349 50.0062 50.1495 55.8228 47.7224C51.9872 39.3583 55.4013 27.5963 49.5004 20.7631Z" fill="#205379"/>
<path d="M42.9246 1.72011C42.9667 1.64543 43.0089 1.53341 43.0511 1.45873C43.1775 1.16001 43.5568 0.450555 44.8213 0.338536C44.9899 0.338536 45.1585 0.114497 45.3693 0.0771569C46.2123 0.0398171 46.3387 0.487895 46.5916 0.562575C47.3503 0.823954 47.4768 1.12267 47.4768 2.01883C47.4768 2.87765 47.2239 2.98967 47.2239 2.98967C47.2239 2.98967 45.3693 3.17637 44.2313 2.91499C43.1775 2.72829 42.7138 2.20553 42.9246 1.72011Z" fill="#F8AF40"/>
<path d="M47.4779 2.01848C47.4779 1.12233 47.3515 0.823607 46.5928 0.562228C46.5506 0.562228 46.5085 0.524889 46.5085 0.487549C46.2134 0.562229 45.8341 0.674247 45.6233 0.898287C45.2018 1.30902 44.7803 2.24252 44.696 2.5039C44.6539 2.61592 44.9068 2.83996 45.2018 3.064C46.2134 3.10134 47.2672 3.02666 47.2672 3.02666C47.2672 3.02666 47.4779 2.8773 47.4779 2.01848Z" fill="#F2904C"/>
<path d="M42.9676 2.0558C42.8833 1.90644 42.2932 2.87727 43.2205 3.17599C45.2015 3.77343 46.1288 3.10131 46.1288 3.10131C46.1288 3.10131 43.4312 2.87727 42.9676 2.0558Z" fill="#FCCC82"/>
<path d="M46.5073 17.9252C46.3808 17.7385 46.2544 17.5145 46.2122 17.2905C46.1701 17.1784 46.1701 17.0291 46.1279 16.9171C42.0816 17.2158 38.6253 16.805 36.4335 16.4316C36.2227 16.8424 36.0541 17.2531 35.8434 17.7012C37.5294 18.1493 41.66 19.0081 46.5073 17.9252Z" fill="#FAD5D6"/>
<path d="M49.5 20.763C48.1933 19.2694 46.5495 18.4853 46.2544 17.2904C46.2123 17.1784 46.2123 17.029 46.1701 16.917C45.1164 16.9917 44.0626 17.029 43.0932 17.029C43.4304 19.2321 44.3998 25.5425 44.3577 28.9778C44.3155 33.2345 42.9246 30.8448 42.7138 35.6616C42.5031 40.4784 46.2123 41.3373 46.5073 44.9966C46.6759 46.7142 46.4652 48.6559 46.7181 50.3735C49.1628 50.0748 51.7339 49.328 55.7803 47.6477C51.9868 39.3582 55.4009 27.5962 49.5 20.763Z" fill="#289BC5"/>
<path d="M29.2689 15.4979C29.2689 15.4979 27.2036 15.2365 27.3722 13.8923C27.4987 12.548 28.2573 12.3987 28.2573 12.3987C28.2573 12.3987 28.6789 12.2866 29.1425 12.3987C30.4491 12.6227 34.2426 13.7056 34.2426 13.7056C34.2426 13.7056 32.1773 16.0953 29.2689 15.4979Z" fill="#F18E90"/>
<path d="M28.2156 12.399C28.2156 12.399 30.1545 12.1377 29.6065 13.6313C29.6065 13.6313 29.3536 14.3781 28.6371 14.3781L36.7298 15.5729C36.7298 15.5729 37.3199 13.8553 35.6761 13.5192C34.0744 13.2205 28.9743 12.1003 28.2156 12.399Z" fill="#FAD5D6"/>
<path d="M34.3266 15.1997C34.4109 15.013 34.4952 14.7516 34.5374 14.5276C34.5795 14.1169 34.6638 13.6688 34.6638 13.2954C33.6101 13.0714 32.2191 12.81 30.9546 12.5859C30.9968 12.7353 31.0389 12.9593 30.9968 13.1834C30.8282 13.8182 30.9968 13.7435 30.8703 14.0049C30.7017 14.3783 30.3645 14.5276 30.3224 14.6023L34.3266 15.1997Z" fill="#F7B9BB"/>
<path d="M31.1657 12.2124C31.1657 12.2124 56.6241 16.2078 59.3638 16.6558C62.2722 17.1413 62.8201 17.1786 62.8623 18.2988C62.9044 19.419 62.6515 20.4645 60.0382 20.4272C58.6052 20.3898 48.6157 18.5975 46.8032 18.4108C44.9908 18.2241 30.7863 15.8344 29.2689 15.4983C29.2689 15.4983 32.2616 15.2369 31.1657 12.2124Z" fill="#FAD5D6"/>
<path d="M54.4318 18.3362C52.0714 17.6641 48.9101 17.1413 46.1283 17.216C43.3464 17.2907 40.7753 16.6559 38.4149 16.0211C36.0123 15.3864 34.8743 15.6104 33.3569 15.6104C32.4717 15.6104 31.2915 15.3117 30.4907 15.0876C29.9006 15.461 29.2262 15.4984 29.2262 15.4984C30.7436 15.8344 44.9481 18.2242 46.7605 18.4109C48.573 18.5976 58.5624 20.3899 59.9955 20.4272C61.7237 20.4646 62.4402 20.0165 62.6931 19.3817C60.4592 19.2324 56.1599 18.859 54.4318 18.3362Z" fill="#F7B9BB"/>
<path d="M29.3522 19.4184C29.3522 19.4184 27.2869 19.3437 27.2869 17.9995C27.2869 16.6552 28.0034 16.4312 28.0034 16.4312C28.0034 16.4312 28.4249 16.3192 28.8886 16.3565C30.1952 16.4685 34.073 17.2527 34.073 17.2527C34.073 17.2527 32.3448 19.7544 29.3522 19.4184Z" fill="#F18E90"/>
<path d="M28.0455 16.4317C28.0455 16.4317 29.9423 15.9836 29.5629 17.5519C29.5629 17.5519 29.3943 18.2987 28.6778 18.3733L36.8548 18.8961C36.8548 18.8961 37.2763 17.1411 35.5903 16.9544C33.9465 16.7677 28.7621 16.0583 28.0455 16.4317Z" fill="#FAD5D6"/>
<path d="M34.4102 18.7094C34.4945 18.4853 34.5366 18.2613 34.5366 18.0372C34.5366 17.6265 34.5788 17.1784 34.5366 16.805C33.4829 16.693 32.0498 16.5063 30.7853 16.3943C30.8696 16.5436 30.9117 16.7303 30.8696 16.9917C30.7853 17.6265 30.9118 17.5518 30.8275 17.8132C30.701 18.1866 30.3638 18.3733 30.3217 18.448L34.4102 18.7094Z" fill="#F7B9BB"/>
<path d="M30.9543 16.021C30.9543 16.021 56.75 17.9253 59.4897 18.1867C62.4402 18.4481 62.9881 18.4481 63.1146 19.5309C63.241 20.6138 63.2832 22.6301 60.6699 22.7795C59.2368 22.8542 48.9523 20.9499 47.0977 20.9125C45.2852 20.8752 30.8701 19.643 29.3527 19.4189C29.3527 19.4189 32.3453 18.8962 30.9543 16.021Z" fill="#FAD5D6"/>
<path d="M48.6153 8.62772C49.922 9.18782 57.2982 13.7433 56.2444 19.6056C54.7692 27.8204 37.3613 23.1156 39.511 20.8379C40.3961 19.9044 49.0368 20.8005 49.9641 19.7923C51.0179 18.7095 47.5194 12.5111 46.4235 10.2707C45.6649 8.59039 47.5194 8.14231 48.6153 8.62772Z" fill="#EC6265"/>
<path d="M37.3613 19.3816C37.9514 19.3816 39.3002 20.2777 39.3002 20.1284C39.3424 19.979 39.1316 19.8297 38.7523 19.6056C38.3729 19.3816 38.5415 18.8588 38.9209 19.1949C39.3002 19.5309 39.806 19.5683 40.354 19.8297C40.649 19.979 41.492 20.7632 41.1548 21.3606C40.9862 21.622 40.6069 21.8087 40.4383 21.846C39.6374 22.0327 38.1622 20.8752 37.6142 20.3151C37.2349 20.0164 37.0241 19.3816 37.3613 19.3816Z" fill="#EC6265"/>
<path d="M48.6146 8.62762C48.3617 8.5156 48.1088 8.47826 47.8559 8.44092C48.5303 9.33707 49.6262 10.6813 50.68 11.5775C52.4081 13.0711 54.347 15.4608 54.6842 16.8797C55.0214 18.336 55.6958 20.203 53.2089 21.3232C50.68 22.4434 49.6262 22.5554 46.6336 22.2193C43.641 21.8833 40.9855 20.8751 40.1004 21.5099C39.974 21.5845 39.8475 21.6966 39.7632 21.8459C42.0393 24.1237 55.0635 26.6254 56.328 19.5309C57.2975 13.7432 49.9213 9.18771 48.6146 8.62762Z" fill="#AE283E"/>
</svg>
