<svg width="74" height="66" viewBox="0 0 74 66" fill="none" xmlns="http://www.w3.org/2000/svg">
<path d="M48.3241 13.6561C48.1183 10.0888 44.39 7.76279 41.4557 9.80194C40.2954 10.6083 39.3414 11.5686 39.0256 12.6548C38.0193 16.1156 45.8809 18.2358 47.6105 17.8928C48.344 17.75 48.45 15.8383 48.3241 13.6561Z" fill="#319CC5"/>
<g opacity="0.15">
<path opacity="0.15" d="M39.0256 12.6547C39.2094 12.0168 39.6171 11.416 40.1613 10.8665C40.3693 10.6566 40.8386 11.1241 40.7552 11.4076V11.4076C40.0396 13.9037 43.9248 15.6913 46.8019 16.3784C47.6004 16.5691 48.4184 17.7471 47.6105 17.8927V17.8927C45.8809 18.2357 38.0193 16.1155 39.0256 12.6547Z" fill="#020203"/>
</g>
<path d="M44.592 13.1052C44.519 12.9342 44.3354 12.8392 44.1548 12.8835C44.0258 12.9152 43.8646 12.9563 43.6868 13.0051C43.0666 13.1755 43.1971 13.6893 43.8397 13.6622L44.2517 13.6448C44.5226 13.6334 44.6984 13.3546 44.592 13.1052V13.1052Z" fill="#215379"/>
<path d="M66.9149 59.6259C66.8412 59.635 66.7693 59.5983 66.7335 59.5332V59.5332C66.6716 59.4206 66.743 59.2811 66.8706 59.2655L68.5176 59.0645C68.5953 59.055 68.6703 59.0969 68.703 59.1682V59.1682C68.7537 59.2788 68.6823 59.4068 68.5615 59.4218L66.9149 59.6259Z" fill="#F08482"/>
<path d="M68.464 59.4331C68.6862 59.406 68.912 59.449 69.097 59.575C69.3987 59.7803 69.8511 60.1343 70.0324 60.5138C70.3154 61.1062 68.5859 61.1062 67.8626 60.6697V60.6697C67.2803 60.2931 67.5774 59.5413 68.2657 59.4573L68.464 59.4331Z" fill="#F08482"/>
<path d="M69.3085 60.1396C68.4149 61.3949 65.2997 60.5982 65.7934 62.0578C65.8311 62.1691 65.9086 62.2511 66.0381 62.291C66.9815 62.6027 72.2016 62.1974 72.9563 61.7297C73.5066 61.4115 71.0477 60.3142 69.6752 59.7431C69.5001 59.6702 69.4144 59.9822 69.3085 60.1396V60.1396V60.1396Z" fill="#6D2B86"/>
<path d="M72.9875 61.7299C73.547 61.3601 72.0271 61.0422 71.3916 61.2562C70.5009 61.5561 69.4768 62.064 68.1448 62.0417C67.3735 62.0417 66.8171 61.9909 66.423 61.9242C66.094 61.8685 65.7483 62.2002 66.0693 62.2911V62.2911C67.0127 62.6029 72.2328 62.1976 72.9875 61.7299V61.7299Z" fill="white"/>
<path d="M27.322 37.2535C27.2906 37.0321 27.448 36.8284 27.6702 36.803V36.803C27.8948 36.7773 28.0956 36.944 28.1116 37.1696L28.2076 38.5206C28.2238 38.7482 28.0211 38.9302 27.7965 38.8897V38.8897C27.648 38.8629 27.5333 38.7439 27.5121 38.5945L27.322 37.2535Z" fill="#F08482"/>
<path d="M27.4999 38.5117C27.5311 38.7282 27.495 38.9497 27.3772 39.1341C27.1803 39.4423 26.8335 39.9104 26.4472 40.0918C25.8497 40.3724 25.8183 38.6887 26.2586 37.9716V37.9716C26.6219 37.3797 27.3789 37.6716 27.4779 38.3591L27.4999 38.5117Z" fill="#F08482"/>
<path d="M26.793 39.3751C25.5322 38.4927 26.2881 35.4411 24.8194 35.9004C24.6947 35.9394 24.6031 36.0224 24.5603 36.1637C24.2773 37.0991 24.7804 42.2747 25.2521 43.023C25.5953 43.5675 26.6545 41.1241 27.206 39.7527C27.2805 39.5674 26.9596 39.4852 26.793 39.3751V39.3751V39.3751Z" fill="#6D2B86"/>
<path d="M25.2209 42.9914C25.597 43.5882 25.9321 42.0488 25.6893 41.3865C25.3701 40.516 24.8656 39.5151 24.8435 38.2211C24.8435 37.4466 24.8855 36.8906 24.9391 36.493C24.9853 36.1512 24.6659 35.8156 24.529 36.1322V36.1322C24.246 37.0675 24.7492 42.2432 25.2209 42.9914V42.9914Z" fill="white"/>
<path d="M49.7226 24.6457C46.7829 24.6969 44.8459 22.0202 44.5137 19.0989C44.4134 18.2166 44.2995 17.6109 44.2458 17.3506C44.2259 17.2537 44.2007 17.1599 44.1754 17.0643C43.5429 14.6757 44.0434 11.4406 44.9066 9.97347C47.894 4.76664 52.9569 5.14078 54.8123 7.85332C55.5984 8.97575 57.0764 12.2807 57.5796 13.8708C57.8439 14.6799 58.2049 16.1137 58.5565 17.6076C59.2694 20.6359 57.4692 23.7171 54.3978 24.2121C52.9612 24.4436 51.3667 24.617 49.7226 24.6457Z" fill="#319CC5"/>
<g opacity="0.15">
<g opacity="0.15">
<path opacity="0.15" d="M44.2447 17.3434C44.2255 17.2515 44.2015 17.1622 44.1773 17.0715C43.5419 14.6822 44.0426 11.442 44.9066 9.97336C44.9547 9.88976 45.0032 9.80761 45.0523 9.72688C46.344 7.60252 49.2808 9.76912 50.3783 12V12V12C51.7209 14.8287 51.8892 17.8165 49.2692 19.5313C49.0474 19.6765 48.8677 19.8172 48.7431 19.9505C48.0982 20.6539 47.7766 21.8965 47.6075 23.0605C47.4866 23.8926 46.7891 24.5199 45.958 24.3927V24.3927C45.2075 24.2779 44.6886 23.601 44.6977 22.8419C44.7328 19.9075 44.3552 17.873 44.2447 17.3434Z" fill="#020203"/>
</g>
</g>
<path d="M28.0677 37.4075C28.062 36.7489 28.4615 36.6094 29.0807 36.3848C31.157 35.6317 35.7865 34.1237 38.4596 34.5733C39.3401 34.7292 41.8244 35.6645 42.6734 35.1345C44.4344 34.0744 43.9627 29.803 44.3715 27.184V27.184C44.6008 25.6381 46.0714 24.5047 47.6307 24.6093C49.6717 24.7463 51.7057 24.6065 53.533 24.3524C56.9448 23.8778 60.4134 25.7884 61.2405 29.1324L68.3178 57.7439C68.494 58.4564 67.5479 59.2253 66.8162 59.2832V59.2832C66.3944 59.3166 66.4607 59.093 66.2199 58.745C64.6625 56.494 58.8506 47.9922 57.7363 44.8934C57.0759 43.0539 57.6105 41.7444 57.5476 40.622C57.4847 39.5619 57.2017 38.533 56.7614 37.5664V37.5664C55.5708 35.5481 52.9327 35.9052 52.086 38.0902C51.7091 39.0627 51.2531 39.9213 50.6294 40.5284C44.7172 46.3903 32.223 40.9926 28.8052 39.3475C28.2717 39.0907 28.0728 37.9996 28.0677 37.4075V37.4075Z" fill="#215379"/>
<path d="M57.5972 14.0745C57.807 14.6422 57.1872 15.1847 56.6605 14.8866C55.3676 14.1549 53.911 13.2596 52.7247 12.3425C51.2536 11.2053 52.1187 10.2706 53.6074 11.3846C53.8563 11.5708 54.1212 11.7753 54.4028 11.9999C55.4919 12.8638 56.7487 13.506 57.2699 13.7561C57.4278 13.8318 57.5365 13.9102 57.5972 14.0745V14.0745Z" fill="#215379"/>
<g opacity="0.25">
<g opacity="0.25">
<path opacity="0.25" d="M28.8214 39.3859C28.2806 39.1262 28.0725 38.0141 28.0676 37.4142V37.4142C28.0621 36.7449 28.4691 36.6062 29.0984 36.3782C31.1833 35.623 35.794 34.1248 38.4595 34.5732C39.34 34.729 41.8243 35.6644 42.6733 35.1344C44.4343 34.0743 43.9626 29.8028 44.3714 27.1838C44.4454 26.6852 44.5054 26.2004 44.5515 25.7294C44.6292 24.9364 45.3781 24.3633 46.1678 24.4691V24.4691C46.8685 24.5631 47.4021 25.1746 47.3347 25.8784C47 29.3744 46.4516 34.0187 45.7551 35.0408C44.623 36.7245 42.9878 37.7534 43.1764 38.9382V38.9382C43.5231 41.1378 44.9035 43.2719 42.6772 43.2229C37.0984 43.1001 31.0565 40.4594 28.8214 39.3859Z" fill="#020203"/>
</g>
</g>
<g opacity="0.25">
<path opacity="0.25" d="M55.1129 34.7535C54.2954 33.3996 53.952 30.0108 55.1908 30.9941C55.2006 31.0019 55.2104 31.0101 55.2203 31.0187C56.0379 31.7359 59.214 39.1252 59.7486 41.0271C60.2517 42.929 62.6417 44.5191 64.0568 44.5191V44.5191C64.431 44.5191 65.1093 44.6813 65.1995 45.0445L68.3474 57.7124C68.5244 58.4247 67.5788 59.194 66.8471 59.2519V59.2519C66.4256 59.2852 66.492 59.0618 66.2514 58.714C64.6944 56.4636 58.8818 47.961 57.7675 44.8621C57.1071 43.0225 57.6417 41.713 57.5788 40.5906C57.5159 39.5305 57.2329 38.5016 56.7926 37.5351L55.1129 34.7535Z" fill="#020203"/>
</g>
<path d="M59.0607 19.9142C59.2617 20.8679 58.4818 21.6743 57.5209 21.5117C56.8776 21.4029 56.273 21.262 55.7069 21.098C53.201 20.3722 54.1659 18.0896 56.7427 18.497L57.8386 18.6703C58.4388 18.7652 58.9353 19.3196 59.0607 19.9142V19.9142Z" fill="#215379"/>
<path d="M62.6891 27.1743C62.9885 26.0773 62.212 24.9141 60.9549 24.5762C59.6978 24.2383 58.436 24.8537 58.1366 25.9507C57.8373 27.0477 58.6137 28.2109 59.8709 28.5488C61.128 28.8867 62.3898 28.2714 62.6891 27.1743Z" fill="#6D2B86"/>
<path d="M66.0694 5.7953C62.0757 4.73522 58.0191 7.04244 56.9499 10.9398C56.5726 12.3428 56.6355 13.777 57.0443 15.0553C57.8619 17.5808 58.2078 19.9192 57.6103 22.1017V22.1017C57.5933 22.1524 57.6225 22.2069 57.6742 22.2208L64.9363 24.1652C64.9899 24.1795 65.0454 24.1497 65.0631 24.0971V24.0971C65.6606 21.9146 67.17 20.0751 69.1512 18.2979C70.1574 17.3937 70.9436 16.1778 71.3209 14.7747C72.3901 10.9086 70.0316 6.85537 66.0694 5.7953Z" fill="#FCC12F"/>
<path d="M60.2198 27.1839C58.1444 26.6227 56.9179 24.5337 57.484 22.4759V22.4759C57.5183 22.323 57.6732 22.2295 57.8244 22.2705L64.7535 24.1468C64.9088 24.1888 65.0034 24.3456 64.9682 24.5025V24.5025C64.4336 26.5291 62.2953 27.7451 60.2198 27.1839Z" fill="#319CC5"/>
<path d="M51.0362 4.04348C50.7231 3.87537 50.3365 4.05596 50.2645 4.40391L49.9559 5.89546C49.9226 6.05658 49.9253 6.22861 50.0569 6.32742C50.5293 6.68222 51.968 7.12299 52.3899 6.73087C52.5471 6.57497 52.4528 6.26319 52.2641 5.92022L51.2386 4.23533C51.1894 4.15449 51.1195 4.08826 51.0362 4.04348V4.04348Z" fill="#F08482"/>
<path d="M51.4901 4.68103C51.4032 4.53879 51.1669 4.43989 51.0006 4.42832V4.42832C50.6681 4.40518 50.5105 4.71 50.7117 4.97574C50.8121 5.10838 50.9482 5.24393 51.1317 5.35887V5.35887C51.4919 5.60883 51.7822 5.15955 51.5537 4.78537L51.4901 4.68103Z" fill="#272D64"/>
<path d="M51.3517 4.29886C52.4276 4.19219 53.2167 3.02902 53.6297 2.02985C53.7351 1.77479 53.7964 1.48933 53.7731 1.181C53.7102 0.370353 52.4209 -0.440291 51.446 0.276817C51.3648 0.338163 51.2926 0.404696 51.2285 0.474212C50.707 1.03952 49.8494 1.8138 50.0624 2.55286V2.55286C50.2511 3.20761 50.4083 4.39239 51.3517 4.29886V4.29886Z" fill="#319CC5"/>
<path d="M50.8176 2.77123L50.4403 4.14308C50.3459 4.61076 50.6604 5.04726 51.1006 5.1408C51.478 5.23434 51.6981 5.20316 52.1698 5.1408C52.5472 5.07844 52.7358 4.7043 52.7044 4.20544C52.6729 3.55069 52.4528 2.9583 52.327 2.64651C52.044 1.9294 51.1321 1.89822 50.8176 2.77123Z" fill="#F08482"/>
<path d="M50.5973 2.45932C50.7394 2.29024 51.0139 2.69488 51.0448 2.91358C51.0605 3.02429 51.1058 3.14394 51.1948 3.26996C51.4149 3.58175 51.069 3.8 50.8803 3.45703C50.6916 3.11407 50.4401 2.61521 50.5973 2.45932V2.45932Z" fill="#04946F"/>
<path d="M50.8795 3.45672C50.848 3.36325 50.848 3.26978 50.848 3.20747C50.848 3.05169 50.7852 2.80244 50.5338 2.92706C50.1882 3.114 50.2824 4.01754 50.6909 4.04869C51.0052 4.07985 50.9423 3.67482 50.8795 3.45672Z" fill="#F08482"/>
<path d="M52.0583 4.08816C51.8642 3.9832 51.8733 3.731 52.0939 3.73397V3.73397C52.2547 3.73615 52.5698 3.84873 52.4955 3.99136C52.4718 4.03681 52.4378 4.07939 52.3891 4.11158C52.2967 4.15739 52.1741 4.15081 52.0583 4.08816Z" fill="white"/>
<g opacity="0.1">
<g opacity="0.1">
<path opacity="0.1" d="M52.295 4.64192C51.8548 4.57957 51.5718 5.23432 50.7542 4.6731C50.6066 4.58533 50.5144 4.33283 50.4777 4.17323C50.4768 4.1696 50.4711 4.17022 50.4711 4.17394V4.17394C50.4711 4.17414 50.4711 4.17435 50.4711 4.17455C50.3769 4.64211 50.6913 5.07845 51.1315 5.17196C51.5089 5.2655 51.729 5.23432 52.2007 5.17196C52.2987 5.15807 52.3906 5.11944 52.4678 5.05881C52.6234 4.93669 52.487 4.68951 52.295 4.64192V4.64192Z" fill="#020203"/>
</g>
</g>
<path d="M46.3849 10.4099C47.6742 8.91331 49.9698 8.81978 51.3849 10.1916C52.9886 11.6882 56.1647 14.4631 58.6175 15.1802C60.0404 15.5906 66.8266 15.368 69.1885 15.2761C69.6708 15.2573 70.1037 15.5613 70.2516 16.0208V16.0208C70.3853 16.4361 70.2558 16.8874 69.9027 17.1436C68.0348 18.4993 61.8525 22.428 55.4729 20.2935C47.8314 17.7369 45.2528 13.746 45.41 12.343C45.4729 11.8129 45.8188 11.0646 46.3849 10.4099Z" fill="#319CC5"/>
<g opacity="0.1">
<path opacity="0.1" d="M58.2722 19.6079C59.7814 19.6311 60.3253 20.9767 58.8173 20.9115C57.7236 20.8642 56.6013 20.6743 55.4734 20.2938V20.2938C54.8805 20.0978 55.1293 19.3112 55.7482 19.3943C56.593 19.5077 57.4652 19.5912 58.2722 19.6079V19.6079Z" fill="#020203"/>
</g>
<path d="M70.1062 15.5923C70.0387 15.3674 70.0542 15.1233 70.1776 14.9235C70.2893 14.7427 70.4367 14.543 70.5673 14.4945C70.8188 14.401 70.9446 14.6192 71.1018 14.4945C71.2905 14.3698 71.7937 14.3074 71.8566 14.7128C71.9391 15.2365 71.701 15.6744 71.3742 16.0173C70.9606 16.4513 70.2787 16.1665 70.1062 15.5923V15.5923Z" fill="#F08482"/>
<g opacity="0.1">
<path opacity="0.1" d="M69.1201 18.3602C68.6834 18.7355 68.3006 19.1375 67.9218 19.5167C67.8614 19.5771 67.7863 19.6358 67.7109 19.6759V19.6759C67.6122 19.7284 67.5297 19.7923 67.4322 19.8468C63.5664 22.0095 59.3011 21.7211 58.0991 21.5844C57.9134 21.5632 57.7928 21.3931 57.8226 21.2086V21.2086C57.8556 21.005 58.0436 20.8455 58.249 20.8638C62.5944 21.2494 66.5543 19.3054 68.7366 17.9457C69.075 17.7349 69.4205 18.0981 69.1201 18.3602V18.3602Z" fill="#020203"/>
</g>
<path d="M19.5029 2.91284C19.5849 2.93958 19.6588 2.97291 19.7373 3.00865C20.6109 3.40642 26.3283 6.20315 30.8182 13.1535C35.2503 20.0144 17.7637 13.6505 14.5553 12.4396C14.2204 12.3133 13.898 12.1602 13.6463 11.9057C12.919 11.1704 11.7052 9.22358 14.2145 5.76422C16.7353 2.28691 18.9696 2.73892 19.5029 2.91284Z" fill="#C7CEE0"/>
<path d="M10.9131 48.666V48.666C10.604 47.1849 14.2881 47.0415 15.2796 48.1843C17.7001 50.9741 21.9142 53.1725 28.9407 50.1103C29.4828 49.874 29.8087 49.305 29.7557 48.7161V48.7161C29.7126 48.2375 29.4334 47.8146 29.0023 47.6024C27.2832 46.7562 22.7556 44.6814 20.4413 45.0804C19.0577 45.2987 18.7432 41.4325 18.4916 40.0295C18.2086 38.2523 17.4225 36.5998 16.1017 35.3527C15.2558 34.545 14.4411 34.0159 14.1863 33.2412C14.1844 33.2355 14.181 33.2278 14.1785 33.2223V33.2223C14.1456 33.153 14.0792 33.0962 14.0047 33.1141C12.8041 33.4031 11.4402 33.3407 10.6601 33.2747C10.4077 33.2533 10.2084 33.4208 10.1583 33.6691V33.6691C9.87532 34.9786 8.55457 37.0675 8.01999 39.3436C6.38608 46.3242 4.16283 60.9012 3.92193 62.4922C3.90927 62.5758 3.96577 62.6469 4.04872 62.6634V62.6634C4.23642 62.7006 6.26135 61.7054 6.34593 61.5338C7.89963 58.3808 11.4033 50.975 10.9131 48.666Z" fill="#319CC5"/>
<path d="M4.08931 63.2574C4.40378 63.5691 4.1522 63.9433 4.74968 64.068C4.9583 64.1197 5.1453 64.15 5.3286 64.1766C5.3882 64.1852 5.42145 64.1394 5.41125 64.0801V64.0801C5.40956 64.0702 5.40849 64.0631 5.40572 64.0535C5.3766 63.9529 5.37052 63.856 5.37921 63.762C5.42035 63.3173 5.25719 62.9028 4.81909 62.8159L4.0891 62.6712C3.99154 62.6518 3.90691 62.63 3.89173 62.7283V62.7283C3.87211 62.8554 3.92498 63.1297 4.02873 63.2057C4.04937 63.2208 4.06972 63.2379 4.08931 63.2574Z" fill="#F08482"/>
<path d="M4.74971 64.0679C4.18368 63.912 4.43526 63.569 4.08935 63.2572V63.2572C3.90487 63.0743 3.63092 63.2568 3.39421 63.3638C3.32163 63.3966 3.23888 63.4238 3.14596 63.4443C2.51703 63.5378 1.76232 63.6937 1.66798 63.8808C1.54219 64.1614 4.68682 65.1279 5.2843 65.0032C5.36876 64.9846 5.42522 64.9438 5.45952 64.8849C5.6739 64.5168 5.16318 64.1703 4.74971 64.0679V64.0679Z" fill="#6D2B86"/>
<path d="M30.3788 49.3207C30.5989 48.9154 31.0077 49.0401 30.9763 48.4789C30.9763 48.2781 30.9559 48.0773 30.9151 47.909C30.902 47.8549 30.84 47.843 30.7852 47.8528V47.8528C30.7697 47.8556 30.7492 47.8605 30.7361 47.8692C30.6438 47.9311 30.5453 47.9654 30.4445 47.9832C30.0133 48.0593 29.6872 48.3315 29.7264 48.7676L29.7945 49.5235C29.804 49.6287 29.8026 49.7207 29.9077 49.7101V49.7101C30.04 49.6969 30.2817 49.5815 30.3194 49.454C30.3325 49.4101 30.3517 49.3654 30.3788 49.3207Z" fill="#F08482"/>
<path d="M30.9749 48.4477C31.0063 49.0401 30.5975 48.9154 30.3774 49.2896V49.2896C30.2337 49.5269 30.5244 49.7123 30.6955 49.9307C30.7235 49.9664 30.7493 50.0067 30.772 50.0522C30.8076 50.1233 30.8355 50.1983 30.8718 50.2691C31.1471 50.807 31.4898 51.4117 31.6667 51.4409C31.9812 51.4721 31.9812 48.2295 31.6667 47.6683C31.626 47.6036 31.5768 47.5641 31.5202 47.5448C31.1306 47.4121 30.9749 48.0362 30.9749 48.4477V48.4477Z" fill="#6D2B86"/>
<g opacity="0.2">
<g opacity="0.2">
<g opacity="0.2">
<path opacity="0.2" d="M20.4102 45.1114C19.0266 45.3297 18.7121 41.4635 18.4605 40.0605C18.1775 38.2833 17.3913 36.6309 16.0706 35.3837C15.2246 34.576 14.4099 34.0469 14.1551 33.2721C14.1533 33.2664 14.15 33.2588 14.1474 33.2535V33.2535C14.1147 33.1845 14.0479 33.1283 13.9739 33.1471C13.7769 33.197 13.5798 33.2359 13.3828 33.2692C13.0648 33.323 12.8433 33.6221 12.9536 33.9252C13.2684 34.7905 13.9199 35.6102 14.5926 36.662C15.5989 38.2521 15.9448 42.3054 16.7624 44.2073C17.58 46.1092 19.8127 46.0156 20.3787 46.7015C20.9762 47.3875 20.8504 49.1023 19.3725 49.6635V49.6635C18.6068 49.9447 18.0489 50.5565 18.7989 50.8772C21.2979 51.9457 24.6761 52.0624 29.1972 50.0147C29.5691 49.8462 29.7884 49.4569 29.7518 49.0503V49.0503C29.7001 48.4753 29.2196 47.7453 28.7004 47.493C26.82 46.5795 22.6288 44.733 20.4102 45.1114Z" fill="#020203"/>
</g>
</g>
</g>
<g opacity="0.2">
<g opacity="0.2">
<g opacity="0.2">
<path opacity="0.2" d="M11.1333 42.3057C10.0641 42.6174 9.34081 47.0448 9.05779 49.2585C8.96527 50.071 8.63944 51.0707 8.13633 51.9637C7.01784 53.949 4.91714 55.8847 4.5606 58.1353C4.32011 59.6534 4.13173 60.8946 4.01273 61.6914C3.93113 62.2378 4.29391 62.7495 4.83584 62.857V62.857C5.28806 62.9467 5.74256 62.732 5.95074 62.3206C7.21858 59.8154 11.4487 51.1929 10.9131 48.6973C10.4497 46.4765 11.6093 44.3393 12.1312 43.2268C12.3073 42.8514 12.3334 42.3452 11.9332 42.237C11.7511 42.1878 11.4941 42.1899 11.1333 42.3057Z" fill="#020203"/>
</g>
</g>
</g>
<path d="M14.7608 27.704C13.3027 26.9344 11.1326 25.964 11.1326 24.3153V24.3153C11.1326 22.5069 12.4533 21.8834 13.3024 22.2263C14.5602 22.7252 14.969 24.8141 15.8181 25.2506C16.6671 25.6871 18.5225 25.4065 19.2143 26.4043C19.9061 27.402 18.1766 28.3997 16.7929 28.3685C16.2011 28.3418 15.4541 28.0699 14.7608 27.704Z" fill="#319CC5"/>
<g opacity="0.2">
<g opacity="0.2">
<g opacity="0.2">
<path opacity="0.2" d="M11.4032 23.0531C11.652 22.5685 12.1387 23.0229 12.1387 23.5676V23.5676V23.5676C12.1387 25.2173 14.2961 26.2594 15.8395 26.8422C16.328 27.0267 16.8523 27.1529 17.3588 27.1843V27.1843C18.1575 27.2371 18.6418 27.9346 17.8805 28.1815C17.5004 28.3048 17.1104 28.3691 16.7928 28.3691C16.199 28.3557 15.4488 28.0839 14.7535 27.7139C13.2981 26.9394 11.1324 25.9646 11.1324 24.3159V24.3159C11.1324 23.8001 11.2349 23.3811 11.4032 23.0531Z" fill="#020203"/>
</g>
</g>
</g>
<path d="M12.1382 29.3041C12.7042 28.5558 12.8614 27.1216 12.1067 26.4045C11.2891 25.5627 9.81113 24.0661 9.43377 22.7566C9.22733 22.0146 9.40206 18.4382 9.47139 17.1789C9.4858 16.9172 9.32675 16.6785 9.07991 16.5903V16.5903C8.8562 16.5105 8.60848 16.5717 8.46088 16.7578C7.68882 17.7312 5.45009 20.9414 6.44636 24.3467C7.38975 27.6204 9.30798 29.5223 10.3143 30.1147C10.786 30.4265 11.8551 29.6782 12.1382 29.3041Z" fill="#215379"/>
<path d="M9.33079 16.7253C9.4381 16.754 9.55261 16.7479 9.651 16.6963C9.75905 16.6397 9.887 16.5594 9.90475 16.4891C9.93617 16.3644 9.8419 16.3021 9.90475 16.2087C9.9676 16.1152 10.0304 15.8348 9.77904 15.8036C9.51142 15.7568 9.28322 15.8664 9.09842 16.0265C8.84356 16.2474 9.00493 16.6383 9.33079 16.7253V16.7253Z" fill="#F08482"/>
<g opacity="0.15">
<g opacity="0.15">
<g opacity="0.15">
<path opacity="0.15" d="M12.1869 29.144C12.1992 29.2051 12.1874 29.2737 12.1491 29.3229V29.3229C12.143 29.3307 12.1355 29.3388 12.1294 29.3466C11.8337 29.7242 10.7812 30.4548 10.3143 30.177C9.33943 29.5846 7.4212 27.6827 6.44636 24.4089C5.34932 20.6593 8.17478 17.1461 8.64527 16.5955C8.68568 16.5482 8.74856 16.5333 8.80763 16.5528V16.5528C8.90312 16.5844 8.94629 16.6954 8.89762 16.7834C8.45612 17.5818 6.67084 21.0374 7.38975 23.5048C7.98724 25.5314 9.11932 27.0903 10.8174 28.088C11.3556 28.3548 12.0644 28.5371 12.1869 29.144Z" fill="#020203"/>
</g>
</g>
</g>
<path d="M8.86771 34.3546C9.74822 30.8002 9.55954 29.3037 10.5973 27.4641C11.0061 26.747 11.2891 26.6223 11.7608 26.4976C12.3583 26.3105 13.1444 26.2793 13.8048 26.6223C15.0941 27.2771 14.7168 30.4885 15.1256 32.2345V32.2345C15.5909 34.2338 14.8036 36.0342 12.7795 35.6924C10.7363 35.3475 8.76363 34.7846 8.86771 34.3546Z" fill="#215379"/>
<path d="M12.8961 25.0525C13.0756 25.042 13.2217 25.1953 13.2025 25.3742L13.0819 26.4979C13.0505 26.7473 12.3901 27.2773 12.0442 26.9344C11.9498 26.8408 12.1385 26.529 12.2643 26.2796L12.6393 25.244C12.6789 25.1346 12.7799 25.0593 12.8961 25.0525V25.0525Z" fill="#F08482"/>
<path d="M0.346697 28.3063V28.3063C0.213294 28.3063 0.079167 28.2095 0.0520269 28.0789C0.0351076 27.9975 0.0563049 27.9083 0.126587 27.8386L13.3341 11.5322C13.3421 11.5216 13.3508 11.5117 13.36 11.5025C13.5613 11.3028 13.9733 11.6549 13.7991 11.8786C13.7916 11.8881 13.7834 11.8974 13.7743 11.9063L0.724342 28.0183C0.619632 28.1476 0.513062 28.3063 0.346697 28.3063V28.3063Z" fill="white"/>
<path d="M12.55 25.4309C12.493 25.6004 12.6336 25.7369 12.7759 25.6287C12.8056 25.6061 12.8342 25.5828 12.8615 25.5596C12.9762 25.462 12.9128 25.2882 12.7633 25.2697V25.2697C12.6744 25.2586 12.59 25.3117 12.5615 25.3966L12.55 25.4309Z" fill="#272D64"/>
<path d="M13.3339 24.0973L13.3653 24.6585C13.3968 25.095 13.0509 25.5315 12.6106 25.5626C12.2018 25.5938 11.8245 25.3132 11.8245 24.7832C11.8245 24.3155 12.2018 23.9725 12.3276 23.7543C12.6421 23.3178 13.2396 23.4425 13.3339 24.0973Z" fill="#F08482"/>
<path d="M13.2494 24.6937C13.263 24.6696 13.2817 24.6497 13.2924 24.6242V24.6242C13.3174 24.5639 13.3407 24.4992 13.3737 24.4428C13.4087 24.3829 13.4583 24.3454 13.5225 24.4091C13.6797 24.5649 13.5225 25.0322 13.3026 25.0011C13.135 24.9734 13.1908 24.798 13.2494 24.6937Z" fill="#F08482"/>
<path d="M12.1073 24.3153V24.3153C12.1073 24.2121 12.1513 24.103 12.1147 24.0065C12.0987 23.9644 12.0595 23.9417 11.9816 23.9726C11.8817 24.0009 11.8142 24.1192 11.7909 24.2487C11.7405 24.5288 12.1073 24.5999 12.1073 24.3153V24.3153Z" fill="#F08482"/>
<path d="M12.3145 25.0626C12.4713 25.0311 12.5384 24.8582 12.3823 24.8233V24.8233C12.2442 24.7925 12.0045 24.8871 12.1044 24.9873C12.1378 25.0207 12.1798 25.0484 12.2328 25.0634C12.2571 25.0694 12.285 25.0685 12.3145 25.0626Z" fill="white"/>
<g opacity="0.1">
<g opacity="0.1">
<g opacity="0.1">
<g opacity="0.1">
<path opacity="0.1" d="M12.5479 25.3756C12.3907 25.3756 12.0762 25.2509 11.9819 25.1573C11.9014 25.0775 11.8438 24.8841 11.8091 24.8098C11.8042 24.7993 11.7932 24.8028 11.7932 24.8144V24.8144C11.7932 25.3444 12.1706 25.625 12.5794 25.5939C12.6041 25.5911 12.6283 25.5875 12.652 25.5829C12.8068 25.553 12.7055 25.3756 12.5479 25.3756V25.3756Z" fill="#020203"/>
</g>
</g>
</g>
</g>
<g opacity="0.1">
<path opacity="0.1" d="M19.191 9.26136C20.8605 6.91001 21.098 4.22342 19.7214 3.26069C18.3448 2.29796 15.8755 3.42365 14.206 5.775C12.5365 8.12634 12.299 10.8129 13.6756 11.7757C15.0522 12.7384 17.5215 11.6127 19.191 9.26136Z" fill="#020203"/>
</g>
<g opacity="0.1">
<path opacity="0.1" d="M19.1831 9.22522C17.5164 11.5636 15.0321 12.7172 13.6799 11.7507C13.1811 11.4123 12.9014 10.8347 12.8227 10.1452C12.805 9.9899 12.9885 9.91144 13.1139 10.0047V10.0047C14.4975 10.9712 16.9504 9.84879 18.617 7.47921V7.47921C19.457 6.28545 20.6724 6.24146 20.1061 7.58681C19.8758 8.13394 19.5676 8.68832 19.1831 9.22522Z" fill="#020203"/>
</g>
<path d="M13.5337 29.0493C14.2736 29.6336 13.9742 30.36 13.1875 30.8794C11.6172 31.9161 8.78664 33.4287 6.57298 32.6402C3.95963 31.717 1.43236 28.2902 2.14318 25.6209C2.20627 25.384 2.40404 25.2128 2.64055 25.1481V25.1481C2.96129 25.0604 3.3013 25.1841 3.49667 25.4532C4.28445 26.5381 6.33925 29.1979 7.51637 29.1482C7.85715 29.1295 8.20046 29.0454 8.53157 28.923C10.1537 28.3233 12.1763 27.9776 13.5337 29.0493V29.0493Z" fill="#215379"/>
<path d="M3.02786 25.0516C3.14302 25.0196 3.23893 24.9411 3.31064 24.8455C3.40169 24.7241 3.54568 24.5704 3.71119 24.5339C3.99421 24.4715 3.93132 24.2845 3.71119 24.2845V24.2845C3.46043 24.2845 3.35624 24.2185 3.42955 23.9787C3.47186 23.8403 3.52864 23.7001 3.58541 23.6297C3.7112 23.4738 3.36527 23.505 3.08225 23.7856C2.89499 23.9527 2.70773 24.2856 2.58023 24.6132C2.46934 24.8982 2.73324 25.1334 3.02786 25.0516V25.0516Z" fill="#F08482"/>
<path d="M14.8429 12.4053C14.3397 12.4053 13.8995 12.2806 13.5221 12C12.7674 11.47 12.4215 10.5034 12.5158 9.2563C12.6102 8.07151 13.1447 6.76201 13.9938 5.6084C14.8429 4.42361 15.8806 3.51943 16.9812 3.02057C18.1133 2.49054 19.151 2.49054 19.9057 3.02057C20.6604 3.55061 21.0064 4.51715 20.912 5.76429C20.8177 6.94908 20.2831 8.25858 19.434 9.41219C18.585 10.597 17.5472 11.5012 16.4466 12C15.8806 12.2494 15.346 12.4053 14.8429 12.4053ZM18.5535 3.20765C18.1447 3.20765 17.673 3.33236 17.2013 3.55061C16.1951 4.01829 15.2202 4.86011 14.4655 5.95136C13.6793 7.04262 13.2076 8.25858 13.1133 9.31865C13.019 10.3475 13.2705 11.127 13.868 11.5323C14.434 11.9377 15.2831 11.9065 16.2265 11.5012C17.2328 11.0335 18.2076 10.1917 18.9623 9.1004C19.7485 8.00915 20.2202 6.79319 20.3145 5.73311C20.4089 4.70422 20.1573 3.92475 19.5598 3.51943C19.2768 3.30118 18.9623 3.20765 18.5535 3.20765Z" fill="white"/>
<path d="M6.44699 12.3115C6.54132 12.8104 6.16397 13.3092 5.59794 13.4028C5.03191 13.4963 4.49733 13.1845 4.403 12.6857C4.30866 12.1868 4.68601 11.688 5.25204 11.5944C5.81807 11.5009 6.35265 11.8127 6.44699 12.3115Z" fill="#6D2B86"/>
<path d="M3.58573 2.98932C1.76184 3.33228 0.598308 5.07828 0.944219 6.85546C1.07001 7.51021 1.38447 8.07143 1.79328 8.50793C2.61029 9.38029 3.2389 10.2526 3.42808 11.2494C3.42836 11.2509 3.4285 11.2524 3.4285 11.2539V11.2539C3.4285 11.2689 3.44218 11.2802 3.45692 11.2773L6.79723 10.6334C6.81319 10.6303 6.82472 10.6163 6.82472 10.6001V10.6001C6.82472 10.598 6.82452 10.5958 6.82413 10.5938C6.6365 9.59703 6.85665 8.56912 7.32786 7.44786C7.54798 6.88664 7.64233 6.23189 7.51655 5.60832C7.13919 3.83114 5.37818 2.64635 3.58573 2.98932Z" fill="#FCC12F"/>
<path d="M5.47267 12.7795C4.52929 12.9666 3.61735 12.343 3.42867 11.4076V11.4076C3.41161 11.34 3.455 11.2719 3.52355 11.2588L6.69852 10.6523C6.76945 10.6388 6.83864 10.6829 6.85629 10.7529V10.7529C7.01352 11.7194 6.41606 12.6236 5.47267 12.7795Z" fill="#215379"/>
<g opacity="0.1">
<path opacity="0.1" d="M7.29639 7.47904C6.85659 8.56916 6.60507 9.62817 6.79264 10.625C6.79303 10.627 6.79323 10.6291 6.79323 10.6312V10.6312C6.79323 10.6475 6.78165 10.6614 6.76568 10.6644L3.45654 11.2776C3.44194 11.2803 3.42847 11.2691 3.42847 11.2543V11.2543C3.42847 11.2525 3.42828 11.2508 3.42789 11.2491C3.42269 11.226 3.41728 11.2028 3.41167 11.1797C3.31312 10.7733 3.56392 10.3598 3.95987 10.2251C5.16184 9.81627 6.03867 8.89543 6.49006 7.77275C6.85941 6.85411 7.66682 6.56084 7.29639 7.47904V7.47904Z" fill="#020203"/>
</g>
<g opacity="0.15">
<path opacity="0.15" d="M10.5108 32.2195C10.5504 32.2162 10.571 32.2706 10.5391 32.2943V32.2943C10.5365 32.2962 10.5338 32.2978 10.5308 32.299C9.24262 32.8279 7.798 33.1073 6.57298 32.6713C3.92616 31.7363 1.36762 28.2331 2.17209 25.5498C2.2233 25.379 2.36625 25.2546 2.53839 25.208L2.6001 25.1913C2.60714 25.1894 2.6144 25.1885 2.62169 25.1885V25.1885C2.66762 25.1885 2.70502 25.2238 2.70632 25.2697C2.72264 25.8431 2.94202 29.3089 5.8497 31.0501C7.96076 32.3218 9.9583 32.2652 10.5108 32.2195Z" fill="#020203"/>
</g>
<path d="M9.62886 32.606C10.2017 32.4454 10.4493 32.8401 9.88303 33.0228C9.75677 33.0636 9.62745 33.1002 9.49532 33.1319C9.33067 33.1713 9.18582 33.0209 9.21676 32.8545V32.8545C9.23423 32.7605 9.30612 32.6896 9.3989 32.6667C9.47563 32.6478 9.5523 32.6275 9.62886 32.606Z" fill="#272D64"/>
<g opacity="0.15">
<path opacity="0.15" d="M15.8183 34.1765C16.2449 35.055 15.9678 36.0253 14.9934 35.9598V35.9598C14.5509 35.9301 13.9723 35.6629 13.8152 35.2482C13.252 33.7611 13.5198 31.9678 13.931 30.3641V30.3641C14.2416 28.9786 14.7856 28.6987 14.8839 30.1152C14.9381 30.8963 14.9858 31.6673 15.126 32.266C15.2705 32.9301 15.5356 33.5942 15.8183 34.1765Z" fill="#020203"/>
</g>
</svg>
