<svg width="118" height="89" viewBox="0 0 118 89" fill="none" xmlns="http://www.w3.org/2000/svg">
<g clip-path="url(#clip0_379_13209)">
<path opacity="0.1" d="M11.8695 8.912C11.1351 9.22085 10.3814 9.61728 9.9778 10.3122C9.55034 11.0463 9.6015 11.9578 9.68108 12.8072C10.3746 20.1734 12.2015 28.0075 9.04671 34.68C7.51535 37.9172 4.95398 40.5113 2.91672 43.4511C0.879451 46.3909 -0.658731 50.0613 0.287143 53.5197C1.4422 57.7457 5.7532 60.0885 8.65904 63.3406C10.561 65.4668 11.8946 68.0506 13.6692 70.2874C15.4439 72.5242 17.8756 74.4949 20.7087 74.6262C24.7832 74.8164 28.0983 71.2497 32.0933 70.4234C36.186 69.5775 40.3071 71.7302 43.6257 74.307C46.9442 76.8838 49.9626 80.0057 53.829 81.6145C58.0991 83.3927 62.9126 83.1207 67.4078 84.189C71.5005 85.1628 75.2681 87.2337 79.3313 88.3377C83.3944 89.4417 88.1568 89.3749 91.3047 86.5549C95.4077 82.8672 95.0848 76.2984 97.7053 71.4202C100.139 66.8878 104.904 64.1819 108.111 60.1749C113.882 52.9631 113.693 41.9403 108.793 34.0969C103.893 26.2536 95.0178 21.5045 85.9421 20.2679C81.8494 19.7113 77.635 19.7874 73.7004 18.5208C63.1684 15.1327 56.9009 2.99319 46.1484 0.46709C39.3135 -1.13592 32.6663 1.64025 26.8444 5.05716C21.791 8.02348 17.1287 6.70051 11.8695 8.912Z" fill="#329CC5"/>
<path d="M22.1326 32.7091C22.1326 32.7091 18.2525 36.421 14.0882 36.5316C12.3394 36.5669 10.6492 37.1763 9.27126 38.2683C8.61993 38.7902 8.01714 39.3716 7.47046 40.005" stroke="#535461" stroke-width="2" stroke-miterlimit="10"/>
<path d="M4.84414 40.096C5.40348 39.8079 7.53852 39.9992 7.53852 39.9992C7.53852 39.9992 6.43121 41.8604 5.87187 42.1485C5.73791 42.229 5.58907 42.2807 5.43457 42.3005C5.28007 42.3203 5.12321 42.3077 4.97371 42.2635C4.82422 42.2193 4.68528 42.1444 4.56551 42.0435C4.44575 41.9426 4.34771 41.8178 4.27747 41.6769C4.20724 41.536 4.1663 41.382 4.15721 41.2244C4.14812 41.0669 4.17107 40.9091 4.22463 40.7608C4.27819 40.6126 4.36121 40.4771 4.46857 40.3628C4.57592 40.2484 4.7053 40.1576 4.84869 40.096H4.84414Z" fill="#329CC5"/>
<path d="M7.0916 36.8059C7.71574 36.8727 9.40512 38.2095 9.40512 38.2095C9.40512 38.2095 7.47245 39.1614 6.85399 39.0957C6.56465 39.0514 6.3033 38.8957 6.12434 38.661C5.94538 38.4263 5.86259 38.1307 5.8932 37.8357C5.92381 37.5407 6.06547 37.269 6.28868 37.0772C6.5119 36.8854 6.79949 36.7882 7.0916 36.8059V36.8059Z" fill="#329CC5"/>
<path d="M12.4214 34.1542C12.9261 34.531 13.7197 36.55 13.7197 36.55C13.7197 36.55 11.5812 36.3852 11.0765 36.0096C10.8489 35.8232 10.701 35.5552 10.6635 35.2611C10.6259 34.9671 10.7016 34.6697 10.8748 34.4308C11.048 34.1919 11.3053 34.0298 11.5934 33.9783C11.8814 33.9268 12.178 33.9898 12.4214 34.1542V34.1542Z" fill="#329CC5"/>
<path d="M16.8995 33.0698C17.4599 33.3544 18.5786 35.2086 18.5786 35.2086C18.5786 35.2086 16.4436 35.4126 15.8831 35.128C15.7417 35.0654 15.6143 34.9742 15.5088 34.8601C15.4032 34.746 15.3217 34.6114 15.2691 34.4643C15.2166 34.3172 15.1941 34.1609 15.2031 34.0047C15.2121 33.8485 15.2524 33.6959 15.3214 33.556C15.3905 33.4161 15.4869 33.292 15.6049 33.1911C15.7228 33.0902 15.8598 33.0147 16.0074 32.9693C16.155 32.9238 16.3103 32.9092 16.4636 32.9265C16.617 32.9438 16.7653 32.9925 16.8995 33.0698V33.0698Z" fill="#329CC5"/>
<path d="M10.5932 40.3081C10.7796 39.7008 10.2339 37.5988 10.2339 37.5988C10.2339 37.5988 8.6105 39.0185 8.42405 39.6259C8.37151 39.7724 8.34887 39.9283 8.3575 40.084C8.36613 40.2397 8.40585 40.3921 8.47425 40.5318C8.54266 40.6715 8.63832 40.7956 8.75545 40.8967C8.87258 40.9979 9.00874 41.0738 9.15568 41.1201C9.30263 41.1663 9.4573 41.1818 9.61032 41.1656C9.76335 41.1495 9.91155 41.102 10.0459 41.0261C10.1803 40.9502 10.2981 40.8474 10.3922 40.724C10.4863 40.6006 10.5546 40.4591 10.5932 40.3081V40.3081Z" fill="#329CC5"/>
<path d="M15.8149 38.9678C15.8149 38.3317 14.6724 36.4924 14.6724 36.4924C14.6724 36.4924 13.5423 38.3363 13.5435 38.9747C13.5444 39.2804 13.665 39.5731 13.8788 39.7886C14.0927 40.0041 14.3822 40.1246 14.6837 40.1237C14.9852 40.1228 15.2741 40.0005 15.4866 39.7837C15.6992 39.567 15.8181 39.2735 15.8172 38.9678H15.8149Z" fill="#329CC5"/>
<path d="M20.7136 36.9672C20.8182 36.3403 19.9997 34.3316 19.9997 34.3316C19.9997 34.3316 18.5774 35.9589 18.474 36.5858C18.439 36.8799 18.5172 37.1763 18.6922 37.4136C18.8672 37.6509 19.1256 37.8107 19.4138 37.8599C19.7019 37.9092 19.9978 37.844 20.2398 37.678C20.4818 37.512 20.6515 37.2579 20.7136 36.9684V36.9672Z" fill="#329CC5"/>
<path d="M27.1746 22.8789C27.1746 22.8789 22.5009 20.2768 21.1117 16.2906C20.5409 14.6143 19.4491 13.1711 18.0001 12.1776C17.3086 11.7112 16.5764 11.31 15.8127 10.9791" stroke="#535461" stroke-width="2" stroke-miterlimit="10"/>
<path d="M14.9262 8.47257C15.3684 8.92317 15.8448 11.0425 15.8448 11.0425C15.8448 11.0425 13.7575 10.5469 13.3152 10.0952C13.1199 9.87533 13.0155 9.58777 13.0236 9.29204C13.0317 8.99631 13.1517 8.71507 13.3587 8.50654C13.5658 8.29802 13.844 8.17819 14.1358 8.17186C14.4275 8.16554 14.7105 8.27321 14.9262 8.47257V8.47257Z" fill="#329CC5"/>
<path d="M18.7059 9.62844C18.8355 10.2507 18.0999 12.2917 18.0999 12.2917C18.0999 12.2917 16.6141 10.7255 16.4845 10.1021C16.446 9.95131 16.4381 9.79419 16.4612 9.64022C16.4843 9.48625 16.5379 9.33863 16.6189 9.20627C16.6998 9.07391 16.8064 8.95955 16.9322 8.87011C17.058 8.78067 17.2003 8.718 17.3507 8.68589C17.501 8.65377 17.6562 8.65288 17.8069 8.68326C17.9576 8.71364 18.1006 8.77467 18.2274 8.86265C18.3542 8.95064 18.462 9.06376 18.5445 9.19518C18.6269 9.3266 18.6822 9.4736 18.707 9.62729L18.7059 9.62844Z" fill="#329CC5"/>
<path d="M22.8328 13.9604C22.635 14.5631 20.9831 15.9494 20.9831 15.9494C20.9831 15.9494 20.4806 13.8371 20.6784 13.2332C20.7736 12.9428 20.9786 12.7027 21.2484 12.5656C21.5182 12.4284 21.8307 12.4056 22.1172 12.502C22.4036 12.5984 22.6405 12.8063 22.7758 13.0798C22.9111 13.3532 22.9336 13.67 22.8385 13.9604H22.8328Z" fill="#329CC5"/>
<path d="M25.2294 17.942C25.1351 18.57 23.7379 20.2192 23.7379 20.2192C23.7379 20.2192 22.8898 18.2232 22.9841 17.5951C22.9999 17.4399 23.0465 17.2895 23.1213 17.1531C23.196 17.0167 23.2973 16.8971 23.419 16.8016C23.5408 16.7061 23.6803 16.6366 23.8293 16.5974C23.9783 16.5582 24.1336 16.55 24.2858 16.5735C24.438 16.5969 24.5839 16.6514 24.7147 16.7337C24.8454 16.816 24.9584 16.9244 25.0466 17.0522C25.1348 17.1801 25.1965 17.3248 25.228 17.4775C25.2594 17.6303 25.2599 17.7879 25.2294 17.9408V17.942Z" fill="#329CC5"/>
<path d="M16.4938 14.0837C17.1213 14.0768 18.9267 12.9036 18.9267 12.9036C18.9267 12.9036 17.0952 11.7742 16.4676 11.7812C16.1661 11.7847 15.8783 11.9095 15.6676 12.1281C15.4568 12.3467 15.3404 12.6412 15.3438 12.9468C15.3473 13.2525 15.4704 13.5442 15.6861 13.7578C15.9017 13.9715 16.1923 14.0895 16.4938 14.086V14.0837Z" fill="#329CC5"/>
<path d="M19.3542 18.7095C19.9499 18.5124 21.3267 16.846 21.3267 16.846C21.3267 16.846 19.2451 16.324 18.6493 16.521C18.5023 16.5636 18.3653 16.6357 18.2464 16.7332C18.1276 16.8306 18.0293 16.9514 17.9575 17.0882C17.8858 17.225 17.842 17.3751 17.8287 17.5295C17.8155 17.6839 17.8331 17.8394 17.8805 17.9867C17.928 18.134 18.0042 18.2702 18.1047 18.3869C18.2053 18.5037 18.328 18.5987 18.4655 18.6663C18.6031 18.7339 18.7527 18.7726 18.9054 18.7802C19.0581 18.7879 19.2107 18.7642 19.3542 18.7106V18.7095Z" fill="#329CC5"/>
<path d="M22.7422 22.819C23.3629 22.7268 24.9977 21.3209 24.9977 21.3209C24.9977 21.3209 23.0332 20.4496 22.4136 20.5418C22.261 20.5578 22.1132 20.6049 21.979 20.6802C21.8448 20.7556 21.7271 20.8578 21.6329 20.9805C21.5387 21.1032 21.47 21.244 21.4309 21.3944C21.3918 21.5447 21.3831 21.7016 21.4053 21.8554C21.4276 22.0093 21.4804 22.157 21.5604 22.2896C21.6405 22.4223 21.7462 22.5371 21.8712 22.6272C21.9962 22.7174 22.1379 22.7809 22.2878 22.8141C22.4377 22.8472 22.5926 22.8493 22.7433 22.8202L22.7422 22.819Z" fill="#329CC5"/>
<path d="M59.3375 86.0175C82.0665 86.0175 100.492 67.34 100.492 44.3C100.492 21.2601 82.0665 2.58257 59.3375 2.58257C36.6084 2.58257 18.1829 21.2601 18.1829 44.3C18.1829 67.34 36.6084 86.0175 59.3375 86.0175Z" fill="url(#paint0_linear_379_13209)"/>
<path d="M59.3375 85.3261C81.6898 85.3261 99.81 66.9581 99.81 44.3C99.81 21.642 81.6898 3.27402 59.3375 3.27402C36.9851 3.27402 18.865 21.642 18.865 44.3C18.865 66.9581 36.9851 85.3261 59.3375 85.3261Z" fill="#329CC5"/>
<path d="M59.3374 76.9134C77.1063 76.9134 91.5107 62.3119 91.5107 44.3C91.5107 26.2882 77.1063 11.6867 59.3374 11.6867C41.5686 11.6867 27.1641 26.2882 27.1641 44.3C27.1641 62.3119 41.5686 76.9134 59.3374 76.9134Z" fill="#DDE1EC"/>
<path opacity="0.3" d="M60.247 17.4487H58.428V46.2592H60.247V17.4487Z" fill="#535461"/>
<g opacity="0.1">
<path opacity="0.1" d="M86.9632 43.6086H61.27V45.9134H86.9632V43.6086Z" fill="black"/>
<path opacity="0.1" d="M43.1305 34.9855L42.0757 37.0274L58.2421 45.6091L59.2969 43.5673L43.1305 34.9855Z" fill="black"/>
<path opacity="0.1" d="M59.3374 48.2183C61.221 48.2183 62.748 46.6704 62.748 44.761C62.748 42.8516 61.221 41.3038 59.3374 41.3038C57.4537 41.3038 55.9268 42.8516 55.9268 44.761C55.9268 46.6704 57.4537 48.2183 59.3374 48.2183Z" fill="black"/>
</g>
<path d="M86.9635 43.1476H61.2703V45.4525H86.9635V43.1476Z" fill="#535461"/>
<path d="M59.3046 43.109L43.1382 34.5272L42.0834 36.569L58.2498 45.1508L59.3046 43.109Z" fill="#535461"/>
<path d="M59.3376 47.7573C61.2212 47.7573 62.7482 46.2094 62.7482 44.3001C62.7482 42.3907 61.2212 40.8428 59.3376 40.8428C57.454 40.8428 55.927 42.3907 55.927 44.3001C55.927 46.2094 57.454 47.7573 59.3376 47.7573Z" fill="#535461"/>
<g opacity="0.1">
<path opacity="0.1" d="M29.663 48.2183C29.663 30.206 44.0671 15.6049 61.8364 15.6049C66.8237 15.6004 71.7436 16.7731 76.2064 19.0302C80.6691 21.2873 84.5521 24.5667 87.5478 28.6087C82.0726 18.5228 71.4997 11.6867 59.3353 11.6867C41.566 11.6867 27.1619 26.2878 27.1619 44.3C27.1515 51.3761 29.4217 58.2618 33.6273 63.9096C31.0192 59.1027 29.6553 53.7042 29.663 48.2183V48.2183Z" fill="black"/>
</g>
<path d="M75.7188 54.3307C75.7188 54.3307 75.4789 54.8182 75.1504 55.4036C75.0219 55.6341 74.8787 55.8819 74.732 56.1204C74.2125 56.9628 74.732 59.6468 74.732 59.6468L73.5952 59.8047L72.4583 59.2285L72.2502 57.2809V55.8565L73.5463 54.3872L74.1147 53.751L75.7188 54.3307Z" fill="#F8BDC5"/>
<g opacity="0.1">
<path opacity="0.1" d="M75.7185 54.3307C75.7185 54.3307 75.4786 54.8182 75.1501 55.4036C74.6482 55.1317 74.163 54.8292 73.6972 54.4978L73.5971 54.4263L73.5437 54.3872L74.1121 53.751L75.7185 54.3307Z" fill="black"/>
</g>
<path d="M72.915 55.3828C72.915 55.3828 71.5644 55.1719 72.0328 57.3834C72.0328 57.3834 72.0533 59.9764 72.2408 60.3797C72.4284 60.7831 74.5259 61.327 74.8886 60.9064C75.2512 60.4857 74.6544 59.0383 74.6544 59.0383C74.6544 59.0383 73.123 60.17 72.707 58.9588C72.2909 57.7476 72.915 55.3828 72.915 55.3828Z" fill="#5D3E53"/>
<path d="M71.9795 54.9622C71.8322 55.1045 71.7123 55.2733 71.6259 55.4601C71.5187 55.6716 71.4505 55.9013 71.4247 56.1377C71.4111 56.3175 71.3827 56.4961 71.3531 56.6736C71.2235 57.4238 71.7203 59.6468 71.7203 59.6468L69.7467 59.9626L69.0203 59.1732L68.8645 57.4365C69.0584 56.841 69.1634 56.2195 69.176 55.5926C69.176 55.1397 69.4034 54.7352 69.6307 54.4402C69.7849 54.2433 69.9616 54.0658 70.1571 53.9112C70.1571 53.9112 72.3956 54.5935 71.9795 54.9622Z" fill="#F8BDC5"/>
<g opacity="0.1">
<path opacity="0.1" d="M71.9797 54.9622C71.8324 55.1045 71.7125 55.2733 71.6262 55.4601C70.8178 55.0901 69.9686 54.6234 69.6594 54.4505L69.6355 54.4379C69.7896 54.241 69.9663 54.0635 70.1619 53.9089C70.1619 53.9089 72.3958 54.5934 71.9797 54.9622Z" fill="black"/>
</g>
<path d="M71.701 59.4889C71.8121 59.6787 71.8654 59.8976 71.854 60.118C71.8426 60.3384 71.7671 60.5504 71.637 60.7274C71.5069 60.9044 71.3281 61.0383 71.123 61.1124C70.9179 61.1865 70.6958 61.1974 70.4846 61.1438C69.8468 60.9836 69.0908 60.7093 68.8634 60.2772C68.4484 59.4877 68.6553 56.2241 68.6553 56.2241L69.201 55.4082C69.201 55.4082 68.9157 59.0141 69.591 59.3264C70.2663 59.6387 71.6942 59.4728 71.6942 59.4728L71.701 59.4889Z" fill="#5D3E53"/>
<g opacity="0.1">
<path opacity="0.1" d="M76.3985 20.8103C76.0926 21.2146 75.6835 21.5265 75.2154 21.7121C74.7473 21.8978 74.2381 21.9502 73.7427 21.8637C73.7143 21.2736 73.5938 20.6847 73.2778 20.3252C72.4467 19.3779 75.9778 19.5358 75.9778 19.5358C76.0862 19.9708 76.2268 20.3968 76.3985 20.8103V20.8103Z" fill="black"/>
</g>
<g opacity="0.1">
<path opacity="0.1" d="M82.0158 25.7807C81.6338 25.9236 80.1548 26.5286 79.991 27.3941C79.8899 27.0085 79.8139 26.6166 79.7637 26.2209L81.5827 25.2206C81.7552 25.3831 81.9014 25.5721 82.0158 25.7807Z" fill="black"/>
</g>
<g opacity="0.1">
<path opacity="0.1" d="M70.7336 25.8533C70.5917 26.2651 70.4285 26.669 70.2448 27.0634C70.1743 26.5425 69.8844 25.2103 68.7373 24.7804C68.9647 24.4658 69.1238 24.2757 69.1238 24.2757L70.7336 25.8533Z" fill="black"/>
</g>
<g opacity="0.1">
<path opacity="0.1" d="M76.6023 28.7482H73.5896V23.7997C73.6791 23.3245 73.7316 22.8428 73.7465 22.3592C74.3661 22.9654 74.2126 23.9046 74.2126 23.9046L75.8224 27.5923L76.6023 24.3321L76.3431 23.9115L77.4117 22.6231C77.7775 23.1154 78.246 23.5195 78.7839 23.8066C80.8599 24.853 76.6023 28.7482 76.6023 28.7482Z" fill="black"/>
</g>
<g opacity="0.1">
<path opacity="0.1" d="M78.7303 38.8526C78.7303 38.8526 76.3701 38.6624 74.3226 38.5725L74.1169 38.5633C73.8258 38.5518 73.5484 38.5426 73.2767 38.5357C71.2895 38.4873 69.0419 37.7831 68.6599 37.6598C68.8032 37.4347 68.958 37.2174 69.1237 37.0087L72.2399 37.7002C72.2399 37.7002 72.731 37.8592 73.8224 38.349L72.0319 37.0087L77.4888 38.009C77.4888 38.009 77.6787 37.9848 78.6825 38.5541L78.7303 38.8526Z" fill="black"/>
</g>
<g opacity="0.1">
<path opacity="0.1" d="M72.226 18.3834C72.6433 18.3834 72.9707 17.9351 73.3879 17.9581C73.6039 17.9696 73.7892 18.1091 73.9677 18.2347C74.6422 18.7081 75.3927 19.0591 76.1857 19.2719C76.4938 19.3548 76.8201 19.4171 77.1293 19.341C77.4386 19.265 77.7285 19.0183 77.7637 18.6968C77.7724 18.5551 77.7538 18.413 77.7091 18.2785C77.3591 17.0422 76.5671 15.9826 75.4877 15.3064C75.0557 15.0379 74.5282 14.8328 74.0496 15.001C73.6175 15.152 73.339 15.5622 73.0264 15.8999C72.7908 16.1527 72.5232 16.3728 72.2306 16.5545C72.0032 16.6939 71.6621 16.7849 71.5314 17.0408C71.2847 17.5179 71.6724 18.3787 72.226 18.3834Z" fill="black"/>
</g>
<path opacity="0.05" d="M70.9675 30.3005C70.9675 30.3005 73.5118 31.2478 75.1739 30.5114L76.005 30.5644C76.005 30.5644 77.3863 31.5463 78.8472 31.1072" fill="black"/>
<path opacity="0.05" d="M83.0154 28.7217C83.0154 28.7217 82.6004 29.722 82.8073 30.0377Z" fill="black"/>
<path opacity="0.05" d="M66.45 28.4059C66.45 28.4059 66.658 29.4062 66.45 29.722Z" fill="black"/>
<path d="M109.517 51.1996C109.517 51.1996 104.76 56.0213 107.445 63.1755C110.131 70.3297 102.843 82.2273 102.843 82.2273C102.843 82.2273 102.922 82.2157 103.071 82.1904C112.84 80.4422 117.693 69.1174 112.261 60.7036C110.236 57.5748 108.579 53.9055 109.517 51.1996Z" fill="#329CC5"/>
<path opacity="0.1" d="M109.517 51.2802C109.517 51.2802 104.76 56.102 107.445 63.2562C110.131 70.4104 102.843 82.3068 102.843 82.3068C102.843 82.3068 102.922 82.2952 103.071 82.2699C112.84 80.5217 117.693 69.1969 112.261 60.7831C110.236 57.6554 108.579 53.9861 109.517 51.2802Z" fill="black"/>
<path d="M109.517 51.1996C109.517 51.1996 106.831 57.1092 109.517 61.9309C112.202 66.7526 109.971 80.2831 102.842 82.2273" stroke="#535461" stroke-miterlimit="10"/>
<path d="M117.989 70.7008C117.989 70.7008 112.561 69.825 112.067 74.755C111.572 79.685 101.627 80.3684 101.627 80.3684L101.813 80.494C110.022 85.9564 117.869 83.9731 116.686 76.7198C116.249 74.0244 116.286 71.3162 117.989 70.7008Z" fill="#329CC5"/>
<path d="M117.989 70.7008C117.989 70.7008 113.775 71.6377 114.123 75.5213C114.471 79.405 107.87 84.0596 101.631 80.3695" stroke="#535461" stroke-miterlimit="10"/>
<path d="M113.214 80.5482C113.214 80.5482 108.939 79.6816 107.799 78.5257C106.659 77.3698 101.529 75.3485 100.96 76.7971C100.39 78.2457 93.2654 83.1526 98.1096 84.0193C102.954 84.8859 109.509 85.1717 110.933 84.5955C112.358 84.0193 113.214 80.5482 113.214 80.5482Z" fill="#A8A8A8"/>
<path opacity="0.2" d="M98.1095 83.4788C102.955 84.3454 109.509 84.6312 110.933 84.055C112.019 83.6148 112.773 81.5012 113.071 80.5171L113.213 80.547C113.213 80.547 112.358 84.0135 110.933 84.5909C109.509 85.1682 102.954 84.8801 98.1095 84.0146C96.7111 83.7646 96.311 83.1768 96.4622 82.4335C96.5804 82.9187 97.0681 83.2921 98.1095 83.4788Z" fill="black"/>
</g>
<defs>
<linearGradient id="paint0_linear_379_13209" x1="59.3375" y1="86.0175" x2="59.3375" y2="2.58257" gradientUnits="userSpaceOnUse">
<stop stop-color="#808080" stop-opacity="0.25"/>
<stop offset="0.54" stop-color="#808080" stop-opacity="0.12"/>
<stop offset="1" stop-color="#808080" stop-opacity="0.1"/>
</linearGradient>
<clipPath id="clip0_379_13209">
<rect width="118" height="89" fill="white"/>
</clipPath>
</defs>
</svg>
