<svg width="125" height="88" viewBox="0 0 125 88" fill="none" xmlns="http://www.w3.org/2000/svg">
<g clip-path="url(#clip0_379_13312)">
<path d="M12.5198 14.9682C15.8989 14.9682 18.6382 12.1993 18.6382 8.78376C18.6382 5.3682 15.8989 2.59933 12.5198 2.59933C9.14067 2.59933 6.40137 5.3682 6.40137 8.78376C6.40137 12.1993 9.14067 14.9682 12.5198 14.9682Z" fill="#329CC5"/>
<path opacity="0.1" d="M11.7723 21.3735C14.3412 27.2386 11.0642 33.9924 7.20683 39.078C5.91577 40.7834 4.49047 42.5713 4.31148 44.7104C4.09565 47.327 5.84865 49.7321 7.92803 51.3045C11.7209 54.1699 16.901 55.0559 21.4151 53.6099C25.3159 52.3608 28.5955 49.5393 32.5306 48.4019C39.1109 46.4969 46.0861 49.655 51.7215 53.5899C55.7105 56.3715 59.9824 59.761 64.7913 59.1651C68.1749 58.746 71.0466 56.3449 72.9957 53.5181C73.9367 52.1532 74.7553 50.6234 76.1253 49.7029C76.9399 49.1548 77.8967 48.8648 78.8535 48.6573C87.5909 46.7696 96.8639 51.3764 105.485 49.0071C111.309 47.4108 115.952 42.7549 118.84 37.3979C121.727 32.0409 123.075 25.9922 124.197 19.9993C124.995 15.7424 125.657 11.1437 123.823 7.2287C121.884 3.08358 117.393 0.5707 112.88 0.0997848C108.368 -0.371131 103.842 0.928543 99.6842 2.76165C94.4897 5.0577 89.3978 8.27163 83.7282 8.28227C79.8669 8.29025 76.1845 6.79237 72.4929 5.64967C66.3206 3.74073 59.9021 2.79225 53.5061 1.91693C47.3824 1.07886 41.1982 0.299325 35.0377 0.794186C30.6789 1.14405 26.8294 2.82817 22.5995 3.60771C19.8424 4.11587 17.0721 3.74073 14.3662 4.5921C11.034 5.64568 7.60691 8.08672 7.42266 11.9312C7.24894 15.5908 10.4101 18.262 11.7723 21.3735Z" fill="#329CC5"/>
<path d="M79.2141 26.5961C78.6522 25.1155 77.2032 21.6355 76.249 22.3259C75.0435 23.1986 77.4545 27.0537 77.4545 27.0537C77.523 27.7614 76.1674 29.234 75.441 29.9683C75.441 29.9098 75.441 29.8765 75.441 29.8765C75.434 29.9045 75.4234 29.9313 75.4094 29.9564L75.3488 29.9231C75.3326 29.9818 75.3034 30.0359 75.2633 30.0814C75.2633 29.9816 75.2567 29.9231 75.2567 29.9231C75.1172 30.5204 72.6825 31.2773 72.6825 31.2773C72.6825 31.2773 72.6167 31.2773 72.5035 31.2773C71.827 31.2773 70.0661 31.123 69.2502 29.8034C68.8282 29.0885 68.2882 28.4519 67.6538 27.921C67.4365 27.749 67.1726 27.6478 66.897 27.631C64.6426 27.4847 62.8172 26.3314 62.4527 26.0853L62.3856 26.0387L62.3711 26.0813C62.2856 25.9576 62.2026 25.8259 62.125 25.6902L62.0855 25.617C62.6312 25.3401 63.0904 24.9159 63.4121 24.3913C63.7339 23.8668 63.9056 23.2624 63.9083 22.6452C63.9083 22.6226 63.9083 22.5986 63.9083 22.576C64.1066 22.2295 64.211 21.8363 64.211 21.436V21.0369L64.7255 20.574C64.9611 20.3624 65.2046 20.139 65.3244 19.8476C65.3725 19.7297 65.394 19.6025 65.3875 19.4752C65.3991 19.3661 65.3829 19.2558 65.3405 19.1548C65.2981 19.0537 65.231 18.9653 65.1454 18.8978C64.7505 18.6225 64.0925 18.8978 63.8069 18.5147C63.6753 18.3418 63.699 18.1063 63.6345 17.9028C63.5029 17.4891 63.0291 17.2656 62.5909 17.2589C62.1526 17.2523 61.7328 17.4132 61.3117 17.5343C60.4269 17.7882 59.5035 17.8757 58.5874 17.7924C58.3396 17.7478 58.0853 17.7569 57.8412 17.819C57.6921 17.8813 57.5596 17.9781 57.4545 18.1018C57.3493 18.2254 57.2744 18.3723 57.2358 18.5307C57.2033 18.6496 57.1838 18.7719 57.1779 18.8952C56.8107 19.3138 56.6076 19.8536 56.6067 20.413V21.436C56.6075 21.9821 56.8012 22.51 57.1529 22.9246C57.1944 23.4059 57.3392 23.8723 57.5771 24.2913C57.8151 24.7104 58.1406 25.072 58.5308 25.351C58.5308 25.3776 58.5308 25.4046 58.5308 25.4321L58.5479 25.4428C58.5266 25.7599 58.4782 26.0746 58.4032 26.3833V26.3154C58.4032 26.3154 56.5607 27.3065 54.5866 27.3304H54.3694C53.98 27.3171 53.6013 27.4607 53.3166 27.7295C52.7322 28.2855 51.7083 29.1648 51.0792 29.1648C50.9476 29.1648 47.6259 29.8207 47.0758 29.9298L46.0479 28.9121L46.0163 28.972L45.9558 28.9121C45.8434 28.9209 45.7317 28.9373 45.6215 28.9613C45.0951 28.3308 44.0422 26.8648 43.7988 24.8973C43.7988 24.8973 46.0716 22.2807 45.2359 19.8423C44.5226 17.7644 42.5577 22.2182 41.9997 23.5604C41.9021 23.7946 41.89 24.0563 41.9655 24.2987L43.8119 30.3142C43.6361 30.7803 43.5857 31.2853 43.6658 31.7775H43.6448L44.9898 33.5215C44.9898 33.5215 46.0019 33.9578 47.5851 33.9498C48.7455 33.9518 49.8954 33.7287 50.9726 33.2927H51.2846L51.2253 33.3153H52.827L53.8456 36.4295C53.8114 36.7128 53.3192 40.6677 52.9244 41.5523C52.8072 41.8479 52.7543 42.1655 52.7691 42.4835C52.7898 43.0946 52.8884 43.7004 53.0626 44.286L53.9549 44.2528L53.9206 44.3233C53.1652 45.889 51.9031 48.6786 51.1569 51.2859L49.8579 53.9465L50.8318 65.879H50.8713L50.9463 65.891C51.0516 65.9069 51.2095 65.9309 51.4175 65.9575L51.3411 66.0905L49.1946 69.6822C49.1946 69.6822 47.6641 72.8496 51.0503 72.2523C51.0503 72.2523 52.3019 71.8852 52.8125 69.7248L55.0393 67.6137C55.0393 67.6137 55.1433 66.2115 54.5129 65.6515C54.4734 65.0037 54.3734 63.112 54.5273 62.6571C54.7129 62.1063 53.7377 55.7729 53.7377 55.7729C53.7377 55.7729 57.2621 48.3833 59.3968 48.1997C59.5533 48.1886 59.7104 48.2094 59.8587 48.2609C61.613 48.8382 63.7385 53.1257 64.3636 54.4599L64.3926 54.5211V54.5331L64.4163 54.585V54.5996L64.4373 54.6448V54.6568L64.4557 54.6981V54.7074L64.4715 54.7406V54.7539L64.4834 54.7792V54.7898L64.4913 54.8085V54.8191V54.8311L64.4979 54.847L64.7755 63.1546L64.8032 63.1692H64.8163L64.7927 63.3408L64.6716 64.1989C64.6716 64.1989 66.2022 67.458 66.1087 67.8704C66.0153 68.2828 67.1287 69.9363 68.7053 69.4774C70.282 69.0184 69.3436 66.431 69.3436 66.431L67.8249 63.2677L67.7578 63.1267C67.909 63.0328 68.0517 62.9255 68.1842 62.8061C68.1842 62.8061 67.7209 59.4099 68.1842 58.6756C68.6474 57.9413 68.7869 54.5903 68.7869 54.5903C68.7869 54.5903 68.4619 52.2956 67.9052 51.2859L65.5731 42.872C66.2719 43.5291 66.8155 43.7858 67.2695 43.7686H67.3445C67.5441 43.7724 67.7411 43.7228 67.9157 43.6249C68.0094 43.5714 68.0976 43.5086 68.1789 43.4373C68.1944 43.4238 68.2089 43.4091 68.2223 43.3934V43.3934C68.8711 42.8427 67.4801 40.685 66.6917 39.4026C65.9324 38.1655 66.9786 34.8039 67.0576 34.5538C67.1279 34.5017 67.2033 34.4571 67.2827 34.4207C67.4459 34.3501 67.621 34.3117 67.7986 34.3077C68.554 34.3343 69.4831 34.7733 70.6334 34.9941C71.4327 35.1315 72.2428 35.1952 73.0536 35.1843H73.101C73.4234 35.1843 73.7156 35.1777 73.9525 35.1684C74.1686 35.1598 74.38 35.102 74.571 34.9994V34.9994C74.7347 34.9029 74.883 34.7818 75.0106 34.6402L77.0295 32.3349L76.9768 32.3602C77.0747 32.0987 77.0747 31.8101 76.9768 31.5487L79.1102 27.8239C79.2178 27.6404 79.2831 27.4346 79.3011 27.222C79.3191 27.0094 79.2894 26.7955 79.2141 26.5961V26.5961Z" fill="url(#paint0_linear_379_13312)"/>
<path d="M55.2457 67.2983L53.0966 69.3802C52.6044 71.5086 51.3949 71.8691 51.3949 71.8691C48.1271 72.4571 49.6038 69.3416 49.6038 69.3416L51.6766 65.7965L51.9319 65.3588C51.9319 65.3588 53.4098 64.9065 54.3942 65.1779C54.5185 65.2123 54.6333 65.2751 54.7298 65.3615C55.3471 65.9029 55.2457 67.2983 55.2457 67.2983Z" fill="#444176"/>
<path d="M68.4973 69.1541C66.9746 69.6064 65.9007 67.9781 65.9968 67.5697C66.0929 67.1613 64.6057 63.954 64.6057 63.954L64.7215 63.108L64.8294 62.3245L67.33 62.5054L67.5655 63.0056L69.0316 66.125C69.0316 66.125 70.02 68.7018 68.4973 69.1541Z" fill="#444176"/>
<path opacity="0.1" d="M54.7536 65.7153C54.518 66.1237 52.6084 65.9175 51.678 65.7898L51.9333 65.3522C51.9333 65.3522 53.4112 64.8999 54.3956 65.1712C54.5199 65.2057 54.6347 65.2685 54.7312 65.3548C54.7444 65.5756 54.7536 65.7153 54.7536 65.7153Z" fill="black"/>
<path opacity="0.1" d="M67.5683 63.0029C66.2877 63.8649 64.9243 63.2131 64.719 63.1053L64.8269 62.3218L67.3274 62.5027L67.5683 63.0029Z" fill="black"/>
<path d="M67.9157 58.4747C67.4682 59.1983 67.9157 62.5479 67.9157 62.5479C66.4377 63.9061 64.6926 62.9098 64.6926 62.9098L64.4294 54.7193C64.4294 54.7193 61.5196 47.9762 59.46 48.1571C57.4003 48.338 53.9983 55.6239 53.9983 55.6239C53.9983 55.6239 54.938 61.8682 54.759 62.4083C54.58 62.9484 54.759 65.5756 54.759 65.5756C54.4457 66.1184 51.178 65.5756 51.178 65.5756L50.2383 53.8094L51.4859 51.1835C52.2032 48.6134 53.4218 45.8624 54.1509 44.3193C54.5129 43.5517 54.755 43.0834 54.755 43.0834L57.1371 42.5819L64.869 40.9617L67.6472 51.1835C68.1842 52.1785 68.4974 54.4413 68.4974 54.4413C68.4974 54.4413 68.3632 57.751 67.9157 58.4747Z" fill="#565387"/>
<g opacity="0.1">
<path opacity="0.1" d="M65.4082 62.9098L65.145 54.7193C65.145 54.7193 62.2352 47.9762 60.1756 48.1571C60.0835 48.1662 59.9929 48.1867 59.9058 48.2183C61.9141 48.8927 64.4291 54.7193 64.4291 54.7193L64.6923 62.9098C65.2414 63.1926 65.8604 63.3068 66.4729 63.2384C66.1016 63.1932 65.7412 63.082 65.4082 62.9098V62.9098Z" fill="black"/>
<path opacity="0.1" d="M51.8883 65.5796L50.9486 53.8134L52.2015 51.1835C52.9188 48.6134 54.1374 45.8624 54.8665 44.3193C55.2285 43.5517 55.4706 43.0835 55.4706 43.0835L57.8527 42.5819L64.9108 41.0987L64.8726 40.9564L57.1367 42.5819L54.7547 43.0835C54.7547 43.0835 54.5125 43.5517 54.1506 44.3193C53.4189 45.8624 52.2028 48.6187 51.4856 51.1835L50.2327 53.8081L51.1723 65.5743C51.1723 65.5743 52.9569 65.871 54.015 65.8058C53.3028 65.7667 52.593 65.6912 51.8883 65.5796V65.5796Z" fill="black"/>
</g>
<path d="M46.4439 29.1289C46.4439 29.1289 43.892 29.2619 44.25 31.9797L44.9659 32.0701L46.0399 30.8942L46.5768 29.8991V29.673L46.4439 29.1289Z" fill="#CED2DF"/>
<path opacity="0.1" d="M46.4439 29.1289C46.4439 29.1289 43.892 29.2619 44.25 31.9797L44.9659 32.0701L46.0399 30.8942L46.5768 29.8991V29.673L46.4439 29.1289Z" fill="black"/>
<path d="M74.8329 30.124C74.8329 30.124 76.9386 31.2547 76.4004 32.5677L75.7292 32.8337L74.8342 32.3362L74.7026 31.1602L74.7921 30.3461L74.8329 30.124Z" fill="#CED2DF"/>
<path opacity="0.1" d="M74.8329 30.124C74.8329 30.124 76.9386 31.2547 76.4004 32.5677L75.7292 32.8337L74.8342 32.3362L74.7026 31.1602L74.7921 30.3461L74.8329 30.124Z" fill="black"/>
<path d="M61.3128 18.4482H59.5217C57.9888 18.4482 56.7461 19.7043 56.7461 21.2537C56.7461 22.8032 57.9888 24.0593 59.5217 24.0593H61.3128C62.8458 24.0593 64.0884 22.8032 64.0884 21.2537C64.0884 19.7043 62.8458 18.4482 61.3128 18.4482Z" fill="#88455E"/>
<path d="M46.4267 29.5133L44.8593 32.0409L44.7277 31.5912L42.5983 24.578C42.5255 24.339 42.5371 24.0818 42.6312 23.8504C43.1695 22.5281 45.0672 18.1302 45.7555 20.1855C46.561 22.58 44.3671 25.1634 44.3671 25.1634C44.6171 27.2599 45.7818 28.779 46.2398 29.3058C46.3557 29.4428 46.4267 29.5133 46.4267 29.5133Z" fill="#EC8C9C"/>
<path d="M74.4973 30.5989C74.4973 30.5989 76.9597 28.2456 76.8662 27.2958C76.8662 27.2958 74.5381 23.4952 75.7028 22.6399C76.6241 21.9588 78.0231 25.3909 78.5653 26.8502C78.637 27.0445 78.6657 27.2524 78.6496 27.4592C78.6335 27.666 78.5728 27.8668 78.4718 28.0474L75.5291 33.3139L74.4973 30.5989Z" fill="#EC8C9C"/>
<path d="M58.5583 24.038C58.5583 24.038 59.0058 26.934 57.7081 28.0208C56.4105 29.1076 61.4247 29.101 61.4247 29.101L63.2159 27.4262C63.2159 27.4262 61.1562 25.48 61.7827 24.0327L58.5583 24.038Z" fill="#EC8C9C"/>
<path opacity="0.1" d="M58.4689 27.341C58.4689 27.341 60.3943 28.7897 62.3184 27.1601L65.4519 33.7223L65.2729 41.7319C65.2729 41.7319 58.7808 45.1254 56.0947 43.0449C53.4086 40.9643 55.6472 39.8775 55.6472 39.8775L55.0208 33.7237L55.692 29.7408C55.692 29.7408 56.9001 27.8399 56.9909 27.8399C57.0817 27.8399 58.4689 27.341 58.4689 27.341Z" fill="black"/>
<path d="M58.469 27.2506C58.469 27.2506 60.3944 28.7019 62.3198 27.0697L65.4534 33.6319L65.2744 41.6414C65.2744 41.6414 58.7823 45.035 56.0962 42.9544C53.4101 40.8739 55.6487 39.787 55.6487 39.787L55.0222 33.6332L55.6934 29.6504C55.6934 29.6504 56.9016 27.7494 56.9924 27.7494C57.0832 27.7494 58.469 27.2506 58.469 27.2506Z" fill="#EBF1F6"/>
<path opacity="0.1" d="M58.469 26.5735C58.469 26.5735 56.6436 27.6244 54.6616 27.5725C54.4757 27.5666 54.2905 27.5982 54.1167 27.6653C53.943 27.7324 53.7842 27.8338 53.6496 27.9636C53.085 28.5117 52.0966 29.379 51.4846 29.379C51.353 29.379 47.5443 30.1479 47.5443 30.1479L46.5375 29.1302C46.5375 29.1302 45.0372 32.0941 44.3213 31.9584L45.6202 33.6784C45.6202 33.6784 48.0826 34.7639 51.3057 33.4523H53.1863L54.1707 36.5292C54.1707 36.5292 53.6785 40.6929 53.2758 41.5975C52.8731 42.5021 53.4074 44.2674 53.4074 44.2674L56.9437 44.1343C56.9437 44.1343 57.1227 42.3691 57.3911 42.1389C57.6596 41.9088 56.4515 34.1294 56.4515 34.1294C56.4515 34.1294 55.646 29.7395 58.6006 28.1565L58.469 26.5735Z" fill="black"/>
<path opacity="0.1" d="M57.1357 42.5872C57.0055 43.1241 56.9127 43.6695 56.858 44.2195L54.1509 44.3232C54.5128 43.5557 54.755 43.0874 54.755 43.0874L57.1357 42.5872Z" fill="black"/>
<path opacity="0.1" d="M46.4268 29.5134L44.8594 32.0409L44.7278 31.5912C45.3029 31.0139 45.9767 29.8073 46.2452 29.3045C46.3558 29.4429 46.4268 29.5134 46.4268 29.5134Z" fill="black"/>
<path d="M58.4689 26.5735C58.4689 26.5735 56.5527 27.6244 54.5721 27.5725C54.3861 27.5666 54.2009 27.5982 54.0272 27.6653C53.8534 27.7324 53.6946 27.8338 53.56 27.9636C52.9954 28.5117 52.007 29.379 51.3951 29.379C51.2635 29.379 47.4548 30.1479 47.4548 30.1479L46.444 29.1289C46.444 29.1289 44.9437 32.0927 44.2278 31.9571L45.5267 33.6771C45.5267 33.6771 47.9891 34.7626 51.2121 33.451H53.0928L54.0772 36.5265C54.0772 36.5265 53.585 40.6903 53.1823 41.5949C52.7796 42.4994 53.3139 44.2647 53.3139 44.2647L56.8502 44.1317C56.8502 44.1317 57.0292 42.3664 57.2976 42.1363C57.5661 41.9061 56.358 34.1267 56.358 34.1267C56.358 34.1267 55.5525 29.7368 58.5071 28.1538L58.4689 26.5735Z" fill="#CED2DF"/>
<path opacity="0.1" d="M62.3196 26.2994C62.3196 26.2994 64.1463 27.7069 66.585 27.8692C66.8518 27.8861 67.1069 27.986 67.3154 28.1552C67.9305 28.6826 68.4517 29.3124 68.8565 30.0175C69.8409 31.6471 72.2586 31.4662 72.2586 31.4662C72.2586 31.4662 74.6091 30.7199 74.7433 30.1359C74.7433 30.1359 74.8104 33.3286 76.2884 32.557L74.3445 34.8211C74.222 34.9642 74.0718 35.0803 73.9032 35.1625C73.7345 35.2446 73.5511 35.291 73.3641 35.2987C72.6336 35.328 71.3649 35.3373 70.2937 35.1271C68.6815 34.8105 67.5181 34.0416 66.6679 34.72C66.6679 34.72 65.5493 38.2492 66.3099 39.517C67.0706 40.7847 68.4156 42.9105 67.7879 43.4546C67.1601 43.9987 66.3994 43.9521 65.1465 42.6405C63.8936 41.3288 63.7581 39.1113 63.7581 39.1113L64.0713 33.4097C64.0713 33.4097 62.8632 29.1103 61.7024 28.2509L62.3196 26.2994Z" fill="black"/>
<path opacity="0.1" d="M76.4661 32.4998L74.517 34.7732C74.3875 34.9241 74.2272 35.0448 74.0472 35.1271V35.1271C73.8872 35.2001 73.7147 35.2412 73.5392 35.2482C72.8088 35.2787 71.5401 35.2881 70.4688 35.0766C68.9606 34.7799 67.8446 34.0882 67.0102 34.5551C66.9511 34.588 66.8947 34.6258 66.8417 34.6682C66.8417 34.6682 65.7231 38.1974 66.4838 39.4651C67.2445 40.7329 68.5895 42.8586 67.9617 43.4027C67.8566 43.4961 67.7387 43.5736 67.6116 43.6328C67.0484 43.8896 66.3495 43.6674 65.3204 42.5886C64.0675 41.2756 63.9319 39.0594 63.9319 39.0594L64.2451 33.3578C64.2451 33.3578 63.037 29.0584 61.8762 28.1991L62.3882 26.3433C62.7409 26.5854 64.5018 27.7228 66.6785 27.8678C66.9454 27.8847 67.2005 27.9846 67.409 28.1538C68.0239 28.6813 68.5451 29.3112 68.9501 30.0162C69.9345 31.6458 72.3521 31.4649 72.3521 31.4649C72.9317 31.278 73.4977 31.0504 74.0459 30.7838V30.7838C74.3894 30.6135 74.6921 30.4273 74.8355 30.2517C74.8758 30.2058 74.9051 30.1512 74.9211 30.092C74.9211 30.092 74.9895 33.2687 76.4661 32.4998Z" fill="black"/>
<path d="M76.3766 32.545L74.4288 34.8211C74.3217 34.946 74.1933 35.0506 74.0498 35.1297V35.1297C73.8658 35.2307 73.6614 35.2876 73.4523 35.296C72.7219 35.3266 71.4532 35.3359 70.3819 35.1244C68.9276 34.8384 67.8366 34.1839 67.0141 34.5577C66.9201 34.5991 66.8317 34.6523 66.7509 34.716C66.7509 34.716 65.6322 38.2452 66.3929 39.513C67.1536 40.7807 68.4986 42.9065 67.8708 43.4506C67.7896 43.5212 67.7014 43.5832 67.6076 43.6355C67.0286 43.9587 66.3126 43.7685 65.2269 42.6365C63.974 41.3235 63.8384 39.1073 63.8384 39.1073L64.1516 33.4057C64.1516 33.4057 62.9435 29.1063 61.7827 28.2469L62.3197 26.3008L62.3842 26.346C62.7369 26.5881 64.4978 27.7255 66.6745 27.8705C66.9414 27.8874 67.1965 27.9873 67.405 28.1565C68.0199 28.6839 68.5411 29.3138 68.9461 30.0189C69.9305 31.6484 72.3481 31.4675 72.3481 31.4675C72.9277 31.2806 73.4937 31.053 74.0419 30.7864V30.7864C74.4485 30.5762 74.7802 30.3461 74.8315 30.1359C74.8315 30.1359 74.8315 30.1772 74.8315 30.2503C74.871 30.7997 75.0684 33.2248 76.3766 32.545Z" fill="#CED2DF"/>
<path opacity="0.1" d="M61.8221 24.1058H58.532C58.6043 24.6346 58.6251 25.1693 58.5938 25.7021C59.0961 26.0594 59.6851 26.2716 60.2977 26.3162C60.9102 26.3607 61.5232 26.2358 62.0709 25.9549C61.755 25.3642 61.5629 24.6938 61.8221 24.1058Z" fill="black"/>
<path d="M60.5285 26.2542C62.3333 26.2542 63.7963 24.7754 63.7963 22.9511C63.7963 21.1269 62.3333 19.6481 60.5285 19.6481C58.7238 19.6481 57.2607 21.1269 57.2607 22.9511C57.2607 24.7754 58.7238 26.2542 60.5285 26.2542Z" fill="#EC8C9C"/>
<path opacity="0.1" d="M59.8494 22.3632C60.214 22.3193 60.5785 22.1889 60.9378 22.2621C61.2642 22.3286 61.5419 22.5561 61.8683 22.6252C62.4973 22.7583 63.0817 22.29 63.5568 21.8537L64.5833 20.9092C64.811 20.7003 65.0452 20.4808 65.1624 20.1935C65.2795 19.9062 65.2387 19.5284 64.9887 19.3474C64.6136 19.0814 63.9674 19.3474 63.6963 18.9696C63.5739 18.7994 63.5923 18.5706 63.5291 18.367C63.3975 17.96 62.9448 17.7378 62.521 17.7325C62.0973 17.7272 61.6919 17.8841 61.2866 17.9985C60.4326 18.2489 59.5398 18.3351 58.6544 18.2526C58.4155 18.2084 58.1699 18.217 57.9345 18.2779C57.7897 18.3404 57.6613 18.4364 57.5599 18.5582C57.4584 18.6799 57.3866 18.824 57.3502 18.979C57.1475 19.7026 57.4937 20.8693 57.8411 21.5171C58.1885 22.1649 59.1559 22.4496 59.8494 22.3632Z" fill="black"/>
<path d="M59.8494 22.2727C60.214 22.2288 60.5785 22.0984 60.9378 22.1716C61.2642 22.2381 61.5419 22.4656 61.8683 22.5348C62.4973 22.6678 63.0817 22.1995 63.5568 21.7632L64.5833 20.8187C64.811 20.6099 65.0452 20.3904 65.1624 20.103C65.2795 19.8157 65.2387 19.4379 64.9887 19.257C64.6136 18.9909 63.9674 19.257 63.6963 18.8792C63.5739 18.7089 63.5923 18.4801 63.5291 18.2766C63.3975 17.8695 62.9448 17.6474 62.521 17.642C62.0973 17.6367 61.6919 17.7937 61.2866 17.9081C60.4326 18.1585 59.5398 18.2447 58.6544 18.1622C58.4155 18.118 58.1699 18.1266 57.9345 18.1874C57.7897 18.25 57.6613 18.3459 57.5599 18.4677C57.4584 18.5895 57.3866 18.7336 57.3502 18.8885C57.1475 19.6122 57.4937 20.7788 57.8411 21.4267C58.1885 22.0745 59.1559 22.3525 59.8494 22.2727Z" fill="#88455E"/>
<path opacity="0.1" d="M54.1494 36.5505C54.1494 36.5505 54.8654 36.6409 55.2233 37.0932C55.5813 37.5455 56.2077 37.6812 56.2077 37.6812" fill="black"/>
<path opacity="0.1" d="M47.702 30.5762C47.702 30.5762 48.2863 31.8945 47.9257 32.0276C47.5651 32.1606 47.702 33.1131 47.702 33.1131" fill="black"/>
<g opacity="0.1">
<path opacity="0.1" d="M47.9036 30.124C47.9036 30.124 51.7083 29.3551 51.8399 29.3551C52.4532 29.3551 53.4403 28.4877 54.0049 27.9397C54.1766 27.7734 54.3878 27.6547 54.6182 27.5951H54.5695C54.3835 27.5892 54.1983 27.6208 54.0246 27.6879C53.8508 27.7551 53.692 27.8565 53.5574 27.9862C52.9928 28.5343 52.0044 29.4016 51.3925 29.4016C51.2859 29.4016 48.8512 29.8898 47.8628 30.088L47.9036 30.124Z" fill="black"/>
<path opacity="0.1" d="M58.4743 26.7637V26.5948C57.559 27.0665 56.5741 27.385 55.5579 27.5379C56.5661 27.4472 57.552 27.1855 58.4743 26.7637V26.7637Z" fill="black"/>
<path opacity="0.1" d="M53.7694 44.2421C53.7694 44.2421 53.2325 42.4769 53.6378 41.5723C54.0432 40.6677 54.5328 36.5039 54.5328 36.5039L53.551 33.427H51.665L51.5505 33.4723H53.0969L54.0774 36.5505C54.0774 36.5505 53.5852 40.7142 53.1825 41.6188C52.7797 42.5234 53.3141 44.2887 53.3141 44.2887L56.8504 44.1557V44.1277L53.7694 44.2421Z" fill="black"/>
</g>
<g opacity="0.1">
<path opacity="0.1" d="M67.9155 42.7269C67.8343 42.7976 67.7461 42.8595 67.6523 42.9118C67.0732 43.2351 66.3573 43.0449 65.2715 41.9128C64.2766 40.8712 63.987 39.2523 63.9094 38.639L63.8831 39.1073C63.8831 39.1073 64.0147 41.3248 65.2715 42.6365C66.3573 43.7725 67.0732 43.9588 67.6523 43.6355C67.7461 43.5832 67.8343 43.5212 67.9155 43.4506C68.1037 43.287 68.1142 42.9797 68.0155 42.5966C67.9911 42.6463 67.9571 42.6906 67.9155 42.7269V42.7269Z" fill="black"/>
<path opacity="0.1" d="M75.7433 32.6129L74.476 34.0935C74.3689 34.2184 74.2405 34.3229 74.0969 34.4021V34.4021C73.913 34.5031 73.7086 34.56 73.4994 34.5684C72.769 34.599 71.5003 34.6083 70.4291 34.3968C68.9748 34.1108 67.8838 33.4563 67.0612 33.8301C66.9673 33.8714 66.8788 33.9246 66.798 33.9884C66.798 33.9884 66.0755 36.2685 66.1861 37.8209C66.2716 36.3696 66.798 34.712 66.798 34.712C66.8788 34.6483 66.9673 34.5951 67.0612 34.5537C67.8851 34.1799 68.9748 34.8344 70.4291 35.1204C71.5003 35.3306 72.7677 35.3213 73.4994 35.292C73.7086 35.2836 73.913 35.2267 74.0969 35.1258C74.2402 35.0478 74.3685 34.9446 74.476 34.8211L76.4251 32.5477C76.3242 32.6112 76.2101 32.6501 76.0918 32.6614C75.9735 32.6727 75.8542 32.6561 75.7433 32.6129V32.6129Z" fill="black"/>
</g>
<path d="M18.5093 48.9073C18.5248 48.9225 18.5447 48.9322 18.5661 48.935C18.5875 48.9379 18.6092 48.9337 18.6281 48.9231C18.5879 48.9238 18.5479 48.9185 18.5093 48.9073V48.9073Z" fill="url(#paint1_linear_379_13312)"/>
<path d="M31.9212 26.8714C31.6843 26.8023 31.3461 26.6892 30.9394 26.5455C31.362 25.996 31.6713 25.3663 31.8488 24.6938L31.8146 24.7071C31.8265 24.6659 31.8383 24.6259 31.8488 24.5834C31.0684 24.904 30.2051 24.3612 29.6549 23.6642C29.1048 22.9671 28.7337 22.1024 28.1309 21.4612C27.8797 21.2062 27.6096 20.9709 27.3229 20.7575C27.1452 20.6245 26.9544 20.4742 26.7372 20.4675C26.3858 20.4569 26.1108 20.8054 25.7725 20.9078C25.55 20.9585 25.3182 20.9498 25.1 20.8826C24.2275 20.6804 23.3891 20.3066 22.4982 20.2081C22.0215 20.1486 21.5376 20.2038 21.086 20.3691C20.6386 20.5407 20.4346 20.8826 20.0727 21.1566C19.6778 21.4506 18.9066 21.4439 18.4473 21.4958C17.89 21.5602 17.3287 21.5837 16.768 21.5663C16.4458 21.5381 16.1213 21.5501 15.802 21.6022C15.1348 21.7499 14.5991 22.286 14.099 22.7995C13.9625 22.9156 13.8643 23.0711 13.8174 23.2451C13.811 23.2941 13.811 23.3438 13.8174 23.3928C13.8124 23.5269 13.8352 23.6606 13.8845 23.7852C14.0385 24.247 14.256 24.6845 14.5307 25.0849C14.7347 25.3802 14.9729 25.6582 15.0887 26.0081C15.1436 26.1801 15.1725 26.3595 15.1743 26.5402C15.1686 26.7321 15.1488 26.9233 15.115 27.1122C15.0267 27.6345 14.8815 28.1454 14.6821 28.6354C14.5582 28.8869 14.473 29.1561 14.4294 29.4335C14.4256 29.4902 14.4256 29.5471 14.4294 29.6038C14.3965 30.4818 15.273 31.1137 15.4427 31.9863C15.4567 32.0587 15.465 32.1321 15.4677 32.2058C15.4493 32.7499 15.1427 33.282 14.6899 33.4935C14.7294 33.5095 14.7702 33.5228 14.811 33.5361C14.7721 33.5608 14.7316 33.583 14.6899 33.6026C14.7729 33.6345 14.8571 33.6625 14.9426 33.6851C14.4281 34.1381 13.9957 34.6783 13.6647 35.2814C12.142 38.1468 1.82934 43.7592 1.82934 43.7592L1.98201 43.847L1.8583 43.9282C0.966004 44.5281 -1.12786 46.2774 0.764646 48.4897C0.764646 48.4897 2.24259 46.1324 3.27833 45.1281C3.32439 45.0828 3.37046 45.0416 3.40994 45.003C3.43269 45.0384 3.44795 45.0782 3.45474 45.1199C3.46154 45.1616 3.45973 45.2042 3.44942 45.2451L10.2298 41.394C10.2298 41.394 12.6395 39.6886 13.312 39.3041C13.7854 39.0061 14.3005 38.7818 14.84 38.639L14.761 38.6723C15.0145 38.6018 15.2759 38.5642 15.5388 38.5605C16.7391 38.5791 18.0393 39.4678 18.4671 42.9863C19.0409 47.6981 18.775 48.5482 18.5908 48.6639C18.5681 48.6622 18.5456 48.6582 18.5236 48.652C18.5293 48.657 18.5355 48.6614 18.5421 48.6653C18.5171 48.6635 18.4924 48.659 18.4684 48.652C18.4816 48.6642 18.4978 48.6729 18.5153 48.6771C18.5328 48.6813 18.5511 48.6809 18.5684 48.6759C18.5809 48.6797 18.594 48.6809 18.6069 48.6792C18.6198 48.6776 18.6322 48.6733 18.6434 48.6666C18.6737 48.6684 18.704 48.6684 18.7342 48.6666C18.7342 48.71 18.7311 48.7544 18.725 48.7996C18.7158 48.7996 18.671 48.8249 18.725 48.8275C18.7105 49.0936 18.7118 49.3823 18.725 49.6842C18.1288 49.7175 17.5327 49.7534 17.0141 49.7853L17.0602 49.5366L17.0812 49.4248C17.5392 49.3876 17.9735 49.2519 18.0249 48.8768C18.1367 48.052 17.0168 47.6117 16.0639 47.5571C15.1111 47.5026 9.39673 47.887 9.39673 47.887C9.39673 47.887 8.53997 49.0085 11.2576 49.3503C11.3384 49.3929 11.4222 49.4373 11.509 49.4834C12.5737 50.0966 14.0174 51.226 14.7097 51.7821L14.8058 51.8592L14.4952 52.1146C16.1758 52.4991 17.8011 58.9908 18.6974 61.9586C19.5936 64.9265 21.5546 64.8187 23.1799 64.3784C24.7026 63.966 24.8908 59.4963 24.9158 58.9349V58.8777L27.6243 62.2593L27.8296 62.516C27.9085 62.5577 27.9866 62.5967 28.0638 62.6331C30.1142 63.6188 32.3792 61.7285 31.7356 59.5735C31.0842 57.4011 30.0734 54.1885 29.3996 52.8303C28.835 51.6929 28.1059 49.804 27.6637 48.6214C27.7212 48.5981 27.777 48.5709 27.8309 48.5402C27.8309 48.5402 27.8203 48.487 27.8032 48.3899L27.8309 48.3753C27.8309 48.3753 27.1728 44.9538 27.1439 42.5221C27.1439 42.4795 27.1439 42.4352 27.1439 42.389C27.1439 42.3624 27.1439 42.3358 27.1439 42.3106C27.6335 42.1975 27.9441 42.1536 27.9441 42.1536L27.9533 42.0472L27.8967 42.0591L28.1691 38.9077C28.1691 38.9077 29.1693 36.7567 28.4034 35.8614C28.1705 35.5996 28.015 35.2769 27.9546 34.9302C27.823 34.1068 27.9546 32.7326 29.7379 31.5912C32.4832 29.8313 33.5544 28.3986 33.5544 28.3986C33.5544 28.3986 33.6018 27.3716 31.9212 26.8714ZM26.4687 29.0584V27.6018C26.9781 27.5765 27.4979 27.6363 28.0099 27.6018C28.2612 27.584 28.5102 27.5417 28.7534 27.4754L28.8771 27.5619C28.1281 28.1442 27.321 28.6458 26.4687 29.0584V29.0584ZM18.6842 51.8912C18.8856 52.0322 19.0882 52.1785 19.287 52.3262C19.4107 53.0445 19.5199 53.5513 19.5278 53.5873C19.3007 52.996 19.0182 52.4281 18.6842 51.8912V51.8912Z" fill="url(#paint2_linear_379_13312)"/>
<path d="M23.0351 50.6939L22.9167 51.3444L22.8259 51.8419L22.66 52.7518L21.0518 53.8892C21.0518 53.8892 20.907 53.7642 20.6675 53.566C20.0095 53.0179 18.6237 51.9058 17.6063 51.3045C17.3449 51.1358 17.062 51.0037 16.7654 50.9121L23.0351 50.6939Z" fill="#FFBDC6"/>
<path opacity="0.1" d="M23.0352 50.6939L22.9168 51.3444C22.5623 51.3643 22.2067 51.3461 21.856 51.2899L18.1039 51.3444C17.9262 51.3338 17.7604 51.3191 17.6051 51.3032C17.3437 51.1344 17.0608 51.0024 16.7642 50.9107L23.0352 50.6939Z" fill="black"/>
<path d="M21.8558 51.1835C21.8558 51.1835 23.7325 51.508 23.8391 50.6953C23.9457 49.8825 22.8744 49.4541 21.965 49.3929C21.0556 49.3317 15.5847 49.7202 15.5847 49.7202C15.5847 49.7202 14.62 51.0198 18.1037 51.2367L21.8558 51.1835Z" fill="#7679B4"/>
<path opacity="0.1" d="M23.0351 50.6939L22.9167 51.3444L22.8259 51.8419L22.66 52.7518L21.0518 53.8892C21.0518 53.8892 20.907 53.7642 20.6675 53.566C20.0095 53.0179 18.6237 51.9058 17.6063 51.3045C17.3449 51.1358 17.062 51.0037 16.7654 50.9121L23.0351 50.6939Z" fill="black"/>
<path opacity="0.1" d="M23.0352 50.6939L22.9168 51.3444C22.5623 51.3643 22.2067 51.3461 21.856 51.2899L18.1039 51.3444C17.9262 51.3338 17.7604 51.3191 17.6051 51.3032C17.3437 51.1344 17.0608 51.0024 16.7642 50.9107L23.0352 50.6939Z" fill="black"/>
<path opacity="0.1" d="M21.8558 51.1835C21.8558 51.1835 23.7325 51.508 23.8391 50.6953C23.9457 49.8825 22.8744 49.4541 21.965 49.3929C21.0556 49.3317 15.5847 49.7202 15.5847 49.7202C15.5847 49.7202 14.62 51.0198 18.1037 51.2367L21.8558 51.1835Z" fill="black"/>
<path d="M25.9554 24.4703H16.1467V36.2272H25.9554V24.4703Z" fill="#A66477"/>
<path opacity="0.1" d="M25.9554 24.4703H16.1467V36.2272H25.9554V24.4703Z" fill="black"/>
<path d="M4.64971 44.5986C4.48783 44.6398 4.28253 44.7968 4.05222 45.0256C3.06122 46.0153 1.64776 48.3367 1.64776 48.3367C-0.163145 46.1577 1.84122 44.435 2.70062 43.843C2.90855 43.6993 3.04806 43.6222 3.04806 43.6222L4.64971 44.5986Z" fill="#FFBDC6"/>
<path d="M22.9285 28.1818C22.9285 28.1818 23.4115 31.5952 25.0724 32.408C26.7333 33.2208 22.9285 34.7373 22.9285 34.7373L17.7288 32.7872C17.7288 32.7872 20.6768 31.8121 20.0872 28.94L22.9285 28.1818Z" fill="#FFBDC6"/>
<path d="M17.3591 48.7158L17.2406 49.3663L17.1498 49.8638L16.984 50.7737L15.3758 51.9111C15.3758 51.9111 15.231 51.7861 14.9915 51.5879C14.3335 51.0398 12.9476 49.9277 11.9303 49.3264C11.6689 49.1577 11.386 49.0256 11.0894 48.934L17.3591 48.7158Z" fill="#FFBDC6"/>
<path opacity="0.1" d="M17.3589 48.7158L17.2405 49.3663C16.886 49.3862 16.5304 49.3679 16.1798 49.3118L12.4276 49.3663C12.25 49.3557 12.0842 49.341 11.9289 49.3251C11.6674 49.1563 11.3845 49.0243 11.0879 48.9326L17.3589 48.7158Z" fill="black"/>
<path d="M16.1745 49.204C16.1745 49.204 18.0512 49.5286 18.1578 48.7158C18.2644 47.903 17.1931 47.4694 16.2811 47.4161C15.369 47.3629 9.9021 47.7407 9.9021 47.7407C9.9021 47.7407 8.93742 49.0404 12.421 49.2572L16.1745 49.204Z" fill="#7679B4"/>
<path opacity="0.1" d="M17.1444 49.8652L16.9786 50.7751L15.3704 51.9125C15.3704 51.9125 15.2256 51.7874 14.9861 51.5892L17.1128 49.8266L17.1444 49.8652Z" fill="black"/>
<path d="M27.7558 62.2686C27.6821 62.2322 27.6075 62.1937 27.5321 62.1529L27.336 61.9001L24.746 58.5744V58.633C24.7289 59.185 24.542 63.5882 23.0864 63.994C21.5321 64.4276 19.6554 64.5354 18.7987 61.6101C17.9419 58.6849 16.3863 52.2916 14.7781 51.9125L17.1628 49.9343C17.1628 49.9343 18.7421 51.7967 19.3869 53.5899C19.3633 53.4755 18.2722 48.326 19.1724 47.4161H26.9977C26.9977 47.4161 28.2033 50.8935 29.035 52.6175C29.6799 53.9557 30.6472 57.1191 31.2723 59.2595C31.8909 61.3773 29.7299 63.2397 27.7558 62.2686Z" fill="#7679B4"/>
<path opacity="0.1" d="M27.5375 48.3899C26.3307 49.1122 21.0243 48.8182 19.295 48.7012L18.8251 48.6666C18.7738 48.6666 18.833 48.6373 18.833 48.6373L18.8817 48.1451L20.1675 44.8407L27.0558 40.8073C26.9163 41.2317 26.8689 41.8822 26.8808 42.6285C26.915 45.0203 27.5375 48.3899 27.5375 48.3899Z" fill="black"/>
<path d="M27.5373 48.2289C26.3305 48.9513 21.0241 48.6573 19.2948 48.5402L18.825 48.5056H18.7473L18.8329 48.483L19.2566 48.3699L20.1674 44.6851L27.0556 40.649C26.9161 41.0734 26.8688 41.7239 26.8806 42.4702C26.9148 44.858 27.5373 48.2289 27.5373 48.2289Z" fill="#F2F1F2"/>
<path opacity="0.1" d="M26.8807 42.4649C25.4805 42.7908 22.3982 43.7499 21.2138 46.0566C20.4241 47.5971 19.7661 48.2582 19.2963 48.5349L18.8264 48.5003L18.8343 48.471L19.2581 48.358L20.1688 44.6731L27.0571 40.6371C26.915 41.0734 26.8689 41.7186 26.8807 42.4649Z" fill="black"/>
<path opacity="0.1" d="M3.04153 43.6235L4.64976 44.5986C4.48789 44.6399 4.28258 44.7968 4.05227 45.0256C3.92066 44.6266 3.07575 44.0785 2.69409 43.8444C2.90203 43.7007 3.04153 43.6235 3.04153 43.6235Z" fill="black"/>
<path opacity="0.1" d="M18.5425 48.568C18.5247 48.578 18.5042 48.582 18.484 48.5794C18.4637 48.5768 18.4449 48.5677 18.4302 48.5535C18.4667 48.5639 18.5045 48.5688 18.5425 48.568V48.568Z" fill="black"/>
<path d="M22.177 32.1912C22.177 32.1912 20.7294 32.3535 19.7107 31.2706C19.7107 31.2706 15.423 32.5171 13.9753 35.3346C12.5276 38.1521 2.66504 43.6781 2.66504 43.6781C2.66504 43.6781 4.37593 44.6532 4.21931 45.1414L10.7049 41.3488C10.7049 41.3488 13.0093 39.6686 13.6529 39.2895C14.2964 38.9104 17.834 36.5811 18.5842 42.9198C19.3343 49.2586 18.5842 48.507 18.5842 48.507C18.5842 48.507 19.6568 48.8861 21.2163 45.8464C22.7759 42.8067 27.5953 42.1084 27.5953 42.1084L27.8585 38.9157C27.8585 38.9157 28.8153 36.7979 28.0822 35.9146C27.8587 35.6547 27.7102 35.3376 27.6532 34.9981C27.5308 34.1866 27.6532 32.8337 29.3641 31.7096C31.9962 29.9803 33.0096 28.5675 33.0096 28.5675C33.0096 28.5675 33.0635 27.5379 31.4553 27.051C29.8471 26.5642 23.3075 23.9089 23.3075 23.9089L23.093 24.8295L28.2388 28.5143C28.2388 28.5143 25.6659 30.6268 23.6326 30.5736C23.6247 30.5643 23.9998 32.1367 22.177 32.1912Z" fill="#565388"/>
<path opacity="0.1" d="M23.1705 29.6677C23.0438 29.2311 22.9449 28.7868 22.8744 28.3374L20.033 29.101C20.1574 29.649 20.1351 30.2207 19.9685 30.7572C20.5492 30.9138 21.1627 30.8938 21.7322 30.6998C22.3018 30.5057 22.802 30.1463 23.1705 29.6663V29.6677Z" fill="black"/>
<path d="M20.8108 30.7013C22.4985 30.7013 23.8667 29.3184 23.8667 27.6124C23.8667 25.9065 22.4985 24.5235 20.8108 24.5235C19.1231 24.5235 17.7549 25.9065 17.7549 27.6124C17.7549 29.3184 19.1231 30.7013 20.8108 30.7013Z" fill="#FFBDC6"/>
<path opacity="0.1" d="M22.4351 20.5873C23.2826 20.6844 24.0894 21.0529 24.9238 21.2524C25.1323 21.3185 25.3544 21.3272 25.5673 21.2777C25.8911 21.1766 26.1543 20.8334 26.4886 20.844C26.6952 20.844 26.8834 20.993 27.0492 21.13C27.3239 21.3407 27.5822 21.5724 27.8218 21.8231C28.3969 22.455 28.7548 23.3063 29.28 23.9928C29.8051 24.6792 30.6329 25.2139 31.3791 24.8987C30.8724 26.8941 29.2089 28.4199 27.4111 28.5436C26.6939 28.5928 25.9635 28.4425 25.2646 28.6553C25.0914 28.7267 24.9087 28.7715 24.7224 28.7884C24.3276 28.7884 24.0012 28.4172 23.7512 28.0567C23.1668 27.208 22.6983 26.2449 22.0403 25.472C21.8231 25.2166 21.5665 24.9732 21.2598 24.9266C20.9532 24.88 20.6702 25.0277 20.3965 25.1714C19.9451 25.4082 19.4832 25.6529 19.1331 26.0573C18.783 26.4617 18.5619 27.067 18.7067 27.6151C18.7843 27.9104 18.9633 28.1764 18.9699 28.4864C18.9699 28.9786 18.5461 29.3391 18.4606 29.8167C18.4417 30.0183 18.4347 30.2208 18.4395 30.4233C18.4013 31.0804 17.9776 31.6205 17.5327 32.0316C17.3603 32.1925 17.1682 32.3641 17.1182 32.6129C17.084 32.7818 17.1182 32.9614 17.0958 33.133C17.0313 33.56 16.6102 33.7755 16.2377 33.8314C15.8027 33.8959 15.3586 33.8426 14.9506 33.6771C15.477 33.4283 15.7916 32.7193 15.6705 32.0808C15.5047 31.2015 14.6308 30.5709 14.7045 29.6743C14.7457 29.3998 14.8274 29.133 14.9467 28.8828C15.1374 28.3991 15.2759 27.896 15.3599 27.3823C15.446 26.9869 15.4374 26.5764 15.3349 26.185C15.223 25.8405 14.9954 25.5665 14.8006 25.2751C14.5368 24.8791 14.3286 24.4479 14.182 23.9941C14.1289 23.8599 14.1086 23.7148 14.1228 23.5711C14.1653 23.4015 14.2569 23.2486 14.386 23.1321C14.8651 22.6252 15.3783 22.0971 16.0153 21.9508C16.3197 21.8995 16.6292 21.8875 16.9366 21.9149C17.4732 21.9321 18.0103 21.909 18.5435 21.8457C18.983 21.7938 19.7279 21.8005 20.0991 21.5105C20.4452 21.2444 20.6413 20.9052 21.069 20.7349C21.5055 20.5734 21.9746 20.5227 22.4351 20.5873V20.5873Z" fill="black"/>
<path opacity="0.1" d="M24.134 52.4818C24.134 52.4818 25.9028 56.003 25.3672 57.0872Z" fill="black"/>
<path opacity="0.1" d="M27.3412 61.9001L24.7512 58.5744V58.633C24.7512 58.633 24.6012 57.5581 25.0947 57.9199C26.1752 58.7101 27.9045 60.0058 27.9413 60.2293C27.9782 60.4528 27.5913 61.3494 27.3412 61.9001Z" fill="black"/>
<g opacity="0.1">
<path opacity="0.1" d="M23.676 30.5643C23.676 30.5643 23.8945 31.4795 23.1877 31.9371C24.2761 31.7482 24.3235 30.8929 24.2906 30.5204C24.0875 30.5536 23.8818 30.5683 23.676 30.5643V30.5643Z" fill="black"/>
<path opacity="0.1" d="M3.30991 43.4612C3.30991 43.4612 13.1725 37.9353 14.6202 35.1178C15.6586 33.0958 18.1604 31.8839 19.4896 31.3598C18.5197 31.6883 15.2558 32.9481 14.0293 35.3346C12.5816 38.1521 2.71899 43.6781 2.71899 43.6781L3.30991 43.4612Z" fill="black"/>
<path opacity="0.1" d="M25.595 30.1346C27.273 29.6025 28.8773 28.2895 28.8773 28.2895L23.7314 24.6047L23.8486 24.0992L23.3564 23.8996L23.1418 24.8202L28.2877 28.505C27.4619 29.1611 26.5571 29.7087 25.595 30.1346V30.1346Z" fill="black"/>
<path opacity="0.1" d="M25.6277 42.6205C26.2852 42.3936 26.96 42.2215 27.6452 42.1057L27.6544 42.0006C26.964 42.1539 26.2864 42.3612 25.6277 42.6205V42.6205Z" fill="black"/>
<path opacity="0.1" d="M19.3909 48.2968H19.3435C19.3255 48.3069 19.3049 48.3109 19.2845 48.3083C19.2641 48.3056 19.2451 48.2965 19.2303 48.2821C19.2671 48.2925 19.3053 48.2974 19.3435 48.2968C19.5198 48.193 19.7844 47.3842 19.2303 42.7016C18.6381 37.7025 16.3139 38.0949 15.0413 38.6696C16.3415 38.3078 18.1314 38.6204 18.6407 42.9185C19.1948 47.601 18.9302 48.4112 18.7539 48.5136C18.9825 48.505 19.2037 48.4297 19.3909 48.2968Z" fill="black"/>
<path opacity="0.1" d="M18.7529 48.5148C18.715 48.5155 18.6772 48.5106 18.6406 48.5003C18.6553 48.5145 18.6742 48.5235 18.6944 48.5262C18.7146 48.5288 18.7351 48.5248 18.7529 48.5148V48.5148Z" fill="black"/>
</g>
<path d="M22.4351 20.4822C23.2826 20.5793 24.0894 20.9478 24.9238 21.1473C25.1323 21.2134 25.3544 21.2221 25.5673 21.1726C25.8911 21.0715 26.1543 20.7283 26.4886 20.7389C26.6952 20.7389 26.8834 20.8879 27.0492 21.0249C27.3239 21.2356 27.5822 21.4673 27.8218 21.718C28.3969 22.3499 28.7548 23.2012 29.28 23.8876C29.8051 24.5741 30.6329 25.1088 31.3791 24.7936C30.8724 26.789 29.2089 28.3148 27.4111 28.4385C26.6939 28.4877 25.9635 28.3374 25.2646 28.5502C25.0914 28.6216 24.9087 28.6664 24.7224 28.6833C24.3276 28.6833 24.0012 28.3121 23.7512 27.9516C23.1668 27.1029 22.6983 26.1398 22.0403 25.3669C21.8231 25.1115 21.5665 24.8681 21.2598 24.8215C20.9532 24.7749 20.6702 24.9226 20.3965 25.0663C19.9451 25.3031 19.4832 25.5478 19.1331 25.9522C18.783 26.3566 18.5619 26.9619 18.7067 27.51C18.7843 27.8053 18.9633 28.0713 18.9699 28.3813C18.9699 28.8735 18.5461 29.234 18.4606 29.7116C18.4417 29.9132 18.4347 30.1157 18.4395 30.3182C18.4013 30.9753 17.9776 31.5154 17.5327 31.9265C17.3603 32.0874 17.1682 32.259 17.1182 32.5078C17.084 32.6767 17.1182 32.8563 17.0958 33.0279C17.0313 33.455 16.6102 33.6705 16.2377 33.7263C15.8027 33.7908 15.3586 33.7375 14.9506 33.572C15.477 33.3233 15.7916 32.6142 15.6705 31.9757C15.5047 31.0964 14.6308 30.4658 14.7045 29.5692C14.7457 29.2947 14.8274 29.0279 14.9467 28.7777C15.1374 28.294 15.2759 27.7909 15.3599 27.2772C15.446 26.8818 15.4374 26.4713 15.3349 26.0799C15.223 25.7354 14.9954 25.4614 14.8006 25.17C14.5368 24.774 14.3286 24.3428 14.182 23.889C14.1289 23.7548 14.1086 23.6097 14.1228 23.466C14.1653 23.2964 14.2569 23.1435 14.386 23.027C14.8651 22.5201 15.3783 21.992 16.0153 21.8457C16.3197 21.7944 16.6292 21.7824 16.9366 21.8098C17.4732 21.827 18.0103 21.8039 18.5435 21.7406C18.983 21.6887 19.7279 21.6954 20.0991 21.4054C20.4452 21.1393 20.6413 20.8001 21.069 20.6298C21.5055 20.4683 21.9746 20.4176 22.4351 20.4822V20.4822Z" fill="#A66477"/>
<path d="M109.694 13.5488C109.694 13.5315 109.694 13.5155 109.694 13.4996C109.694 13.4836 109.694 13.465 109.686 13.449H109.665C109.665 13.4131 109.665 13.3772 109.665 13.3386C109.613 12.1054 107.925 9.48082 107.249 10.2471C106.657 10.9202 107.55 12.6229 108.006 13.3891L108.046 13.4583L108.024 13.4437C108.024 13.4437 106.141 19.1213 105.918 19.3421C105.696 19.5629 104.146 24.0273 102.102 24.5302C101.698 24.6273 101.362 24.7151 101.081 24.7962L101.103 24.7204C101.234 24.2854 101.396 23.8743 101.462 23.3901C101.528 22.9059 101.462 22.3192 101.22 22.0838C101.102 21.9667 100.957 21.9508 100.859 21.7645C100.796 21.6012 100.762 21.4277 100.759 21.2524L100.586 19.1L100.707 19.0628C101.438 18.826 102.148 18.2646 102.231 17.509C102.205 17.5188 102.179 17.5272 102.153 17.5343C102.163 17.4903 102.17 17.4459 102.175 17.4012C101.561 17.646 100.991 17.0022 100.399 16.7135C99.4236 16.2306 98.3089 16.6856 97.3021 16.796C96.1611 16.9223 95.0779 16.4434 93.9119 16.5299C93.2776 16.5791 92.5721 17.0141 92.6064 17.646C92.6261 17.9932 92.8696 18.2872 92.9696 18.6198C93.2223 19.4246 92.6603 20.2321 92.1681 20.9185C91.8444 21.3694 91.5338 21.9188 91.4785 22.4483C90.3454 21.251 89.1201 19.8676 88.978 19.3474L85.6996 13.6698C85.6996 13.6698 85.622 13.7536 85.497 13.8774C85.4772 13.8162 85.4535 13.7443 85.4272 13.6725C85.0087 12.4872 83.8242 9.61517 82.3226 10.142C80.821 10.6687 82.9451 13.6126 83.869 14.7859L84.0006 14.9482C83.9231 14.9675 83.8418 14.9638 83.7663 14.9376L87.4224 21.2763C87.4224 21.2763 88.087 22.4895 88.6963 22.8194C88.6963 22.8194 93.2381 28.6074 93.2933 29.7648C93.3486 30.9221 95.3359 34.0097 95.3359 34.0097C95.3359 34.0097 96.0005 39.0261 94.8371 39.9081H94.8516H94.8608H94.8753H94.8884H94.9147H94.9318H94.949H94.9713H94.9898H95.0161H95.0292C94.974 39.9626 94.9174 40.0225 94.8595 40.0877C93.9974 41.0534 92.8959 43.1233 94.4015 46.6432C96.6164 51.8313 96.9494 53.8639 96.9494 53.8639C96.9494 53.8639 92.738 54.0848 91.9088 54.2497C91.1745 54.396 88.3199 54.4985 87.6672 54.5158C87.4342 54.2417 86.7459 53.6351 85.8168 54.5158C84.6534 55.6186 83.8229 59.3047 83.8229 59.3047C83.8229 59.3047 83.3794 62.2819 84.8758 61.509C84.8758 61.509 86.6485 59.028 87.146 58.9176C87.3934 58.8631 87.6553 58.4946 87.8554 58.1394L87.8659 58.1461C87.8777 58.1461 87.9264 58.1195 88.0054 58.0875C88.3739 57.9399 89.3886 57.5847 90.1887 57.7616C90.627 57.8587 92.5063 57.8814 94.4765 57.876C94.0317 58.9535 93.2341 61.7338 93.2341 61.7338C93.2341 61.7338 92.9012 64.3265 94.0067 64.2201C94.7963 64.1416 96.0071 62.1023 96.6388 60.9383C97.0968 60.5991 98.4089 59.3832 99.3788 59.475L105.914 56.9395C105.914 56.9395 107.465 56.0576 106.634 53.1363C105.976 50.8136 104.104 46.0592 103.364 44.2062L103.342 44.1583C103.163 43.71 103.055 43.4439 103.055 43.4439C102.751 42.598 102.551 41.7173 102.461 40.822C102.454 40.7515 102.449 40.6796 102.444 40.6091C102.535 40.5703 102.622 40.5198 102.701 40.4588C102.701 40.4588 102.091 34.2305 102.701 33.568L102.711 33.556V33.5481L102.722 33.5348L102.745 33.5042L102.774 33.4669C102.807 33.423 102.847 33.3685 102.891 33.302C103.24 32.7858 103.89 31.6072 103.703 30.2157C103.696 30.1554 103.686 30.0947 103.674 30.0335C103.603 29.6561 103.475 29.2919 103.295 28.9533C103.269 28.8123 103.253 28.6696 103.247 28.5263C103.247 28.4451 103.247 28.356 103.247 28.2602V28.2443C103.247 28.2186 103.247 28.1928 103.247 28.1671V28.1485C103.247 28.086 103.257 28.0155 103.267 27.9569V27.933C103.267 27.909 103.27 27.8847 103.278 27.8598V27.8292C103.278 27.8053 103.289 27.7813 103.294 27.7574V27.7321C103.302 27.7002 103.31 27.6683 103.32 27.6363V27.6204C103.328 27.5938 103.337 27.5676 103.347 27.5419L103.359 27.5113L103.385 27.4474L103.398 27.4155C103.409 27.3916 103.42 27.3676 103.432 27.3437L103.442 27.3237C103.457 27.2945 103.474 27.2656 103.492 27.2373L103.506 27.2146L103.549 27.1521L103.571 27.1242L103.617 27.0683L103.638 27.0444C103.661 27.0191 103.685 26.9938 103.711 26.9699C104.431 26.3047 107.644 21.4027 107.644 21.4027C107.644 21.4027 108.419 20.2999 108.419 19.5842C108.462 19.5683 109.832 14.9522 109.694 13.5488ZM101.07 54.7539C100.991 53.9983 100.912 53.0618 100.84 52.0933L102.093 54.0675C102.093 54.0675 101.974 54.6688 101.07 54.7539Z" fill="url(#paint3_linear_379_13312)"/>
<path d="M88.0066 54.3362C88.0066 54.3362 87.2564 53.1389 86.1299 54.2284C85.0033 55.3179 84.2005 58.9416 84.2005 58.9416C84.2005 58.9416 83.7715 61.8682 85.2192 61.1086C85.2192 61.1086 86.9301 58.6702 87.417 58.5625C87.904 58.4547 88.4356 57.0992 88.4356 57.0992L88.0066 54.3362Z" fill="#493545"/>
<path d="M96.0466 57.2615C96.0466 57.2615 95.028 56.7733 94.7069 57.1537C94.3858 57.5342 93.3132 61.3255 93.3132 61.3255C93.3132 61.3255 92.9921 63.8184 94.0633 63.7093C95.1346 63.6002 97.0113 59.6972 97.0113 59.6972L96.0466 57.2615Z" fill="#493545"/>
<path opacity="0.05" d="M96.0466 57.2615C96.0466 57.2615 95.028 56.7733 94.7069 57.1537C94.3858 57.5342 93.3132 61.3255 93.3132 61.3255C93.3132 61.3255 92.9921 63.8184 94.0633 63.7093C95.1346 63.6002 97.0113 59.6972 97.0113 59.6972L96.0466 57.2615Z" fill="black"/>
<path d="M99.5842 49.8931L101.889 53.5234C101.889 53.5234 101.728 54.3362 100.334 54.1739L95.5636 57.2082C95.5636 57.2082 95.149 60.9024 96.4743 60.5672C96.6888 60.5126 98.1852 58.9416 99.2617 59.0507L105.588 56.5577C105.588 56.5577 107.088 55.6904 106.284 52.8197C105.48 49.949 102.822 43.2923 102.822 43.2923L98.6195 45.6682L99.5842 49.8931Z" fill="#3E3D77"/>
<path opacity="0.05" d="M99.5842 49.8931L101.889 53.5234C101.889 53.5234 101.728 54.3362 100.334 54.1739L95.5636 57.2082C95.5636 57.2082 95.149 60.9024 96.4743 60.5672C96.6888 60.5126 98.1852 58.9416 99.2617 59.0507L105.588 56.5577C105.588 56.5577 107.088 55.6904 106.284 52.8197C105.48 49.949 102.822 43.2923 102.822 43.2923L98.6195 45.6682L99.5842 49.8931Z" fill="black"/>
<path d="M101.032 55.2568C101.353 57.316 99.5315 57.4783 99.5315 57.4783C99.5315 57.4783 91.3298 57.6406 90.3651 57.4238C89.4004 57.2069 88.1133 57.8029 88.1133 57.8029C86.4511 56.7733 87.7922 54.2271 87.7922 54.2271C87.7922 54.2271 91.2232 54.1194 92.0273 53.9611C92.8314 53.8028 96.9046 53.578 96.9046 53.578C96.9046 53.578 96.5835 51.5732 94.4383 46.481C92.9814 43.0223 94.0435 40.9869 94.8818 40.0385C95.0958 39.7868 95.3434 39.5665 95.6175 39.384L102.211 39.7086C102.204 40.0447 102.216 40.3809 102.248 40.7156C102.361 41.8645 102.656 42.9875 103.123 44.0412C102.748 44.0412 100.336 46.3173 100.336 46.3173C100.336 46.3173 100.709 53.1988 101.032 55.2568Z" fill="#3E3D77"/>
<path opacity="0.1" d="M88.2738 54.4439C88.2738 54.4439 91.7048 54.3362 92.5089 54.1779C93.313 54.0196 97.3862 53.7988 97.3862 53.7988C97.3862 53.7988 97.0651 51.794 94.9199 46.7018C93.463 43.2431 94.5251 41.2078 95.3634 40.2593C95.5774 40.0076 95.825 39.7873 96.0991 39.6048L102.208 39.9054C102.208 39.8416 102.208 39.7724 102.208 39.7125L95.6148 39.3879C95.3407 39.5705 95.093 39.7908 94.8791 40.0424C94.0447 40.9922 92.9787 43.0262 94.4356 46.4849C96.5861 51.5732 96.9045 53.5779 96.9045 53.5779C96.9045 53.5779 92.8247 53.7948 92.0272 53.9571C91.2297 54.1193 87.7921 54.2231 87.7921 54.2231C87.7921 54.2231 86.4523 56.7706 88.1132 57.8042C88.1132 57.8042 88.1632 57.7803 88.2448 57.7457C87.1406 56.5976 88.2738 54.4439 88.2738 54.4439Z" fill="black"/>
<path d="M98.0826 19.4978H94.7595V28.0035H98.0826V19.4978Z" fill="#493545"/>
<path opacity="0.1" d="M98.0826 19.4978H94.7595V28.0035H98.0826V19.4978Z" fill="black"/>
<path d="M99.9829 18.25C100.097 18.2819 100.226 18.2859 100.304 18.4455C100.352 18.5731 100.378 18.7081 100.382 18.8446L100.591 21.4732C100.594 21.6453 100.627 21.8155 100.688 21.9761C100.776 22.1543 100.923 22.1756 101.037 22.29C101.267 22.5215 101.334 23.1015 101.271 23.5737C101.208 24.046 101.049 24.4504 100.924 24.8774C100.745 25.4893 100.626 26.1771 100.375 26.6932C100.124 27.2093 99.667 27.4914 99.3722 27.0577C99.0774 26.624 99.1169 25.7487 99.0616 25.0317C98.9695 23.8344 98.5076 22.8022 98.476 21.5969C98.4497 20.6218 98.7089 19.7119 98.8708 18.7874C98.9866 18.1529 98.9932 17.3826 99.1617 16.812C99.3025 17.4904 99.5709 18.1356 99.9829 18.25Z" fill="#493545"/>
<path opacity="0.1" d="M99.9829 18.25C100.097 18.2819 100.226 18.2859 100.304 18.4455C100.352 18.5731 100.378 18.7081 100.382 18.8446L100.591 21.4732C100.594 21.6453 100.627 21.8155 100.688 21.9761C100.776 22.1543 100.923 22.1756 101.037 22.29C101.267 22.5215 101.334 23.1015 101.271 23.5737C101.208 24.046 101.049 24.4504 100.924 24.8774C100.745 25.4893 100.626 26.1771 100.375 26.6932C100.124 27.2093 99.667 27.4914 99.3722 27.0577C99.0774 26.624 99.1169 25.7487 99.0616 25.0317C98.9695 23.8344 98.5076 22.8022 98.476 21.5969C98.4497 20.6218 98.7089 19.7119 98.8708 18.7874C98.9866 18.1529 98.9932 17.3826 99.1617 16.812C99.3025 17.4904 99.5709 18.1356 99.9829 18.25Z" fill="black"/>
<path d="M85.9156 14.5132L84.6298 15.5974C84.6298 15.5974 84.4771 15.4165 84.2494 15.1238C83.3558 13.9705 81.3015 11.0772 82.7531 10.5597C84.2047 10.0422 85.3523 12.8637 85.7576 14.029C85.8603 14.3243 85.9156 14.5132 85.9156 14.5132Z" fill="#C77485"/>
<path d="M109.126 14.1341C108.59 14.9469 107.84 14.1341 107.84 14.1341C107.84 14.1341 107.744 13.9891 107.608 13.755C107.167 13.0007 106.303 11.3286 106.875 10.6661C107.533 9.90919 109.164 12.4926 109.214 13.7044C109.229 13.8535 109.199 14.0036 109.126 14.1341V14.1341Z" fill="#C77485"/>
<path d="M95.9385 22.9112C95.9385 22.9112 97.0111 26.3792 96.6886 27.4075C96.3662 28.4358 98.9944 29.6331 98.9944 29.6331H101.996C101.996 29.6331 103.069 27.4115 102.8 26.761C102.532 26.1105 100.228 25.6237 100.228 25.6237C100.228 25.6237 98.8878 25.6237 98.9417 21.9933L95.9385 22.9112Z" fill="#C77485"/>
<path opacity="0.1" d="M85.9157 14.5132L84.6299 15.5974C84.6299 15.5974 84.4772 15.4165 84.2495 15.1238C84.7167 15.04 85.4419 14.3509 85.7591 14.029C85.8604 14.3243 85.9157 14.5132 85.9157 14.5132Z" fill="black"/>
<path opacity="0.1" d="M109.126 14.1341C108.59 14.9469 107.84 14.1341 107.84 14.1341C107.84 14.1341 107.744 13.9891 107.608 13.755L107.625 13.7004C107.973 13.9519 109.053 13.7377 109.214 13.7004C109.23 13.8508 109.199 14.0025 109.126 14.1341V14.1341Z" fill="black"/>
<path opacity="0.1" d="M102.245 40.7142C100.587 41.4791 95.199 40.117 94.8752 40.0358C95.0892 39.7841 95.3368 39.5638 95.6109 39.3813L102.204 39.7059C102.199 40.0425 102.212 40.3792 102.245 40.7142V40.7142Z" fill="black"/>
<path d="M96.6363 25.8911C96.6363 25.8911 95.3505 26.3247 93.5277 24.6446C93.5277 24.6446 89.4479 20.5806 89.1847 19.6055L86.0261 14.0184C86.0261 14.0184 84.6864 15.4817 84.1494 15.2649L87.687 21.4958C87.687 21.4958 88.3306 22.6931 88.9202 23.0124C88.9202 23.0124 93.3158 28.7019 93.3685 29.8393C93.4211 30.9767 95.3491 34.023 95.3491 34.023C95.3491 34.023 95.9927 38.953 94.8661 39.8203C94.8661 39.8203 101.137 41.4459 102.477 40.3617C102.477 40.3617 101.887 34.2425 102.477 33.5893C102.477 33.5893 104.3 31.4223 103.067 29.0385C103.067 29.0385 102.803 27.7388 103.496 27.0883C104.188 26.4378 107.302 21.6156 107.302 21.6156C107.302 21.6156 108.052 20.5314 108.052 19.8277C108.052 19.8277 109.446 15.06 109.236 13.8135C109.236 13.8135 108.003 14.0796 107.628 13.8135C107.628 13.8135 105.805 19.4007 105.591 19.6109C105.376 19.821 103.88 24.2162 101.893 24.7045C99.9054 25.1927 99.5882 25.4082 99.5882 25.4082C99.5882 25.4082 103.447 27.8466 101.571 28.9294C99.6961 30.0122 96.6363 25.8911 96.6363 25.8911Z" fill="#FFAAC4"/>
<path opacity="0.1" d="M99.0723 23.7453C99.0086 23.2349 98.9826 22.7205 98.9946 22.2062L95.9927 23.1267C96.0717 23.3289 96.1346 23.537 96.1809 23.7493C96.5244 23.9023 96.9876 24.2641 97.3864 24.2641C97.9896 24.284 98.5824 24.1016 99.0723 23.7453V23.7453Z" fill="black"/>
<path d="M97.3323 24.1032C98.8718 24.1032 100.12 22.8417 100.12 21.2856C100.12 19.7296 98.8718 18.4681 97.3323 18.4681C95.7929 18.4681 94.5449 19.7296 94.5449 21.2856C94.5449 22.8417 95.7929 24.1032 97.3323 24.1032Z" fill="#C77485"/>
<path opacity="0.1" d="M94.0159 16.945C93.4026 16.9929 92.7183 17.4212 92.7525 18.0424C92.7709 18.3843 93.0025 18.673 93.1039 19.0002C93.3474 19.7918 92.8051 20.5859 92.3287 21.2617C91.8523 21.9375 91.4075 22.8328 91.8155 23.5484C91.9317 23.7207 92.0574 23.8864 92.1918 24.0446C92.6959 24.7324 92.6893 25.6609 92.9131 26.487C93.1988 27.5439 93.8742 28.4499 94.8004 29.019C95.7266 29.5881 96.8333 29.7769 97.8931 29.5466C97.4941 29.0319 97.2952 28.3875 97.3337 27.7348C97.364 27.2612 97.5153 26.7664 97.3337 26.3287C97.0995 25.766 96.4125 25.5438 96.0585 25.0516C95.7044 24.5594 95.7281 23.877 95.8992 23.2904C96.0703 22.7037 96.3664 22.1596 96.5086 21.561C96.5436 21.3864 96.5876 21.2136 96.6402 21.0435C96.8876 20.3332 97.6272 19.9208 98.351 19.7439C99.0749 19.5669 99.8356 19.5563 100.542 19.3235C101.249 19.0907 101.936 18.5453 102.018 17.7963C101.423 18.0371 100.871 17.4092 100.298 17.1206C99.3526 16.647 98.2747 17.0926 97.3008 17.2017C96.1914 17.3268 95.1385 16.8625 94.0159 16.945Z" fill="black"/>
<path d="M93.962 16.8372C93.3487 16.8851 92.6643 17.3135 92.6985 17.9347C92.717 18.2766 92.9486 18.5652 93.0499 18.8925C93.2934 19.684 92.7512 20.4782 92.2748 21.1539C91.7983 21.8297 91.3535 22.725 91.7615 23.4407C91.8778 23.613 92.0034 23.7786 92.1379 23.9369C92.6419 24.6246 92.6354 25.5531 92.8591 26.3792C93.1448 27.4361 93.8202 28.3422 94.7464 28.9112C95.6727 29.4803 96.7794 29.6691 97.8391 29.4389C97.4402 28.9241 97.2412 28.2797 97.2798 27.627C97.31 27.1535 97.4614 26.6586 97.2798 26.2209C97.0455 25.6582 96.3585 25.4361 96.0045 24.9439C95.6505 24.4517 95.6742 23.7693 95.8453 23.1826C96.0163 22.596 96.3125 22.0519 96.4546 21.4533C96.4897 21.2786 96.5336 21.1059 96.5862 20.9358C96.8336 20.2254 97.5732 19.813 98.2971 19.6361C99.0209 19.4592 99.7816 19.4485 100.488 19.2157C101.195 18.9829 101.882 18.4375 101.964 17.6886C101.369 17.9294 100.817 17.3015 100.244 17.0128C99.2986 16.5392 98.2208 16.9849 97.2469 17.094C96.1401 17.2177 95.0911 16.7481 93.962 16.8372Z" fill="#493545"/>
<path opacity="0.1" d="M100.094 27.5446C100.094 27.5446 101.21 28.5516 101.429 28.9959Z" fill="black"/>
<path opacity="0.1" d="M102.509 33.5587C102.509 33.5587 101.115 33.5587 100.471 33.721C99.8277 33.8833 98.2734 33.721 98.2734 33.721" fill="black"/>
<g opacity="0.1">
<path opacity="0.1" d="M101.567 28.9254C101.447 28.9949 101.317 29.0452 101.182 29.0744C101.531 29.1527 101.897 29.0998 102.211 28.9254C104.088 27.8412 100.228 25.4042 100.228 25.4042H99.584C99.584 25.4042 103.444 27.8426 101.567 28.9254Z" fill="black"/>
<path opacity="0.1" d="M109.245 13.908C109.245 13.8734 109.237 13.8401 109.232 13.8095C109.012 13.8557 108.789 13.8899 108.565 13.912C108.791 13.9371 109.019 13.9358 109.245 13.908V13.908Z" fill="black"/>
<path opacity="0.1" d="M95.5109 39.8163C96.6361 38.949 95.9939 34.019 95.9939 34.019C95.9939 34.019 94.0645 30.9846 94.0106 29.8473C93.9566 28.7099 89.5623 23.0203 89.5623 23.0203C88.9727 22.6957 88.3291 21.5038 88.3291 21.5038C88.3291 21.5038 84.6836 15.4897 84.1479 15.2728L87.6855 21.5038C87.6855 21.5038 88.3291 22.7011 88.9187 23.0203C88.9187 23.0203 93.3144 28.7099 93.367 29.8473C93.4196 30.9846 95.349 34.023 95.349 34.023C95.349 34.023 95.9926 38.953 94.866 39.8203C94.866 39.8203 98.7208 40.8193 101.032 40.7289C98.7155 40.6464 95.5109 39.8163 95.5109 39.8163Z" fill="black"/>
<path opacity="0.1" d="M96.6676 25.9336L96.636 25.8924C96.5993 25.9034 96.562 25.9118 96.5242 25.9177C96.5742 25.9243 96.6215 25.9296 96.6676 25.9336Z" fill="black"/>
</g>
<g opacity="0.1">
<path opacity="0.1" d="M109.232 13.8029L109.199 13.8095C109.143 15.4737 108 19.3834 108 19.3834C108 20.0871 107.25 21.1713 107.25 21.1713C107.25 21.1713 104.142 25.9935 103.444 26.644C102.747 27.2945 103.015 28.5942 103.015 28.5942L103.022 28.6075C103.001 28.1698 103.053 27.4914 103.497 27.0763C104.193 26.4258 107.303 21.6036 107.303 21.6036C107.303 21.6036 108.053 20.5194 108.053 19.8157C108.053 19.8237 109.447 15.056 109.232 13.8029Z" fill="black"/>
<path opacity="0.1" d="M102.426 33.1517C102.506 33.6119 102.452 33.1251 102.48 33.5853C102.48 33.5853 103.796 32.0249 103.436 30.096C103.544 31.8201 102.426 33.1517 102.426 33.1517Z" fill="black"/>
</g>
<path opacity="0.1" d="M61.8274 88C92.9124 88 118.112 85.5533 118.112 82.5352C118.112 79.5171 92.9124 77.0705 61.8274 77.0705C30.7425 77.0705 5.54321 79.5171 5.54321 82.5352C5.54321 85.5533 30.7425 88 61.8274 88Z" fill="#329CC5"/>
<path d="M40.0098 76.9907C40.0098 76.9907 38.0936 70.4125 40.3691 65.5717C41.3368 63.5471 41.6287 61.2598 41.2008 59.0533C40.9895 58.0074 40.6837 56.9832 40.2875 55.9937" stroke="#535461" stroke-width="2" stroke-miterlimit="10"/>
<path d="M41.7062 52.9367C41.7062 53.7429 40.2585 56.0802 40.2585 56.0802C40.2585 56.0802 38.8108 53.7429 38.8108 52.9367C38.7961 52.736 38.8226 52.5344 38.8885 52.3445C38.9544 52.1546 39.0583 51.9804 39.1938 51.833C39.3293 51.6855 39.4934 51.5678 39.676 51.4874C39.8585 51.407 40.0554 51.3654 40.2546 51.3654C40.4537 51.3654 40.6506 51.407 40.8332 51.4874C41.0157 51.5678 41.1798 51.6855 41.3153 51.833C41.4508 51.9804 41.5548 52.1546 41.6207 52.3445C41.6866 52.5344 41.713 52.736 41.6983 52.9367H41.7062Z" fill="#329CC5"/>
<path d="M44.0894 57.4011C43.6564 58.0782 41.1875 59.2462 41.1875 59.2462C41.1875 59.2462 41.2322 56.4912 41.6652 55.8141C41.7613 55.6383 41.8921 55.4844 42.0495 55.3619C42.2069 55.2395 42.3876 55.151 42.5803 55.1022C42.773 55.0533 42.9736 55.0451 43.1696 55.078C43.3655 55.1109 43.5527 55.1842 43.7195 55.2933C43.8862 55.4025 44.0289 55.5452 44.1388 55.7125C44.2486 55.8798 44.3232 56.0682 44.3579 56.2659C44.3926 56.4636 44.3867 56.6664 44.3405 56.8617C44.2943 57.057 44.2088 57.2407 44.0894 57.4011V57.4011Z" fill="#329CC5"/>
<path d="M43.9855 65.0329C43.2735 65.3961 40.5637 65.1446 40.5637 65.1446C40.5637 65.1446 41.9785 62.7887 42.6905 62.4256C42.8612 62.322 43.0511 62.2551 43.2486 62.2291C43.446 62.2031 43.6466 62.2185 43.8378 62.2744C44.0291 62.3303 44.2068 62.4255 44.3601 62.5539C44.5133 62.6824 44.6386 62.8415 44.7283 63.0212C44.8179 63.2008 44.8699 63.3973 44.8811 63.5982C44.8922 63.7991 44.8623 64.0002 44.793 64.1888C44.7238 64.3775 44.6169 64.5497 44.4788 64.6947C44.3408 64.8397 44.1746 64.9544 43.9908 65.0316L43.9855 65.0329Z" fill="#329CC5"/>
<path d="M42.6207 70.7876C41.9797 71.2665 39.2607 71.4833 39.2607 71.4833C39.2607 71.4833 40.261 68.9199 40.9032 68.4397C41.2123 68.2499 41.5804 68.1838 41.9352 68.2546C42.29 68.3254 42.6058 68.5278 42.8204 68.8221C43.0349 69.1164 43.1327 69.4812 43.0945 69.8447C43.0564 70.2082 42.885 70.5441 42.6141 70.7863L42.6207 70.7876Z" fill="#329CC5"/>
<path d="M38.1529 59.4032C38.7254 59.9646 41.3904 60.5472 41.3904 60.5472C41.3904 60.5472 40.7324 57.8721 40.1652 57.3093C40.0328 57.1594 39.8713 57.0386 39.6907 56.9545C39.5102 56.8704 39.3144 56.8248 39.1156 56.8205C38.9168 56.8162 38.7193 56.8534 38.5354 56.9297C38.3514 57.006 38.185 57.1197 38.0465 57.2639C37.9079 57.408 37.8003 57.5795 37.7302 57.7675C37.6601 57.9556 37.629 58.1562 37.639 58.3569C37.649 58.5577 37.6998 58.7541 37.7882 58.9341C37.8766 59.1141 38.0008 59.2738 38.1529 59.4032Z" fill="#329CC5"/>
<path d="M36.6434 66.1557C37.3554 66.5188 40.0652 66.2674 40.0652 66.2674C40.0652 66.2674 38.6557 63.9115 37.9437 63.555C37.6061 63.4133 37.228 63.406 36.8853 63.5344C36.5426 63.6629 36.2606 63.9176 36.096 64.2475C35.9314 64.5774 35.8964 64.958 35.9979 65.3129C36.0994 65.6678 36.33 65.9708 36.6434 66.161V66.1557Z" fill="#329CC5"/>
<path d="M36.0643 72.9214C36.7052 73.4003 39.4242 73.6171 39.4242 73.6171C39.4242 73.6171 38.424 71.0537 37.7818 70.5735C37.6313 70.4389 37.4547 70.3375 37.2632 70.2756C37.0718 70.2138 36.8697 70.193 36.6699 70.2144C36.47 70.2359 36.2768 70.2991 36.1024 70.4002C35.9281 70.5012 35.7765 70.6379 35.6573 70.8014C35.5381 70.9649 35.4538 71.1518 35.4099 71.35C35.3661 71.5482 35.3635 71.7535 35.4024 71.9528C35.4413 72.1521 35.5208 72.341 35.6359 72.5076C35.751 72.6741 35.8992 72.8146 36.0709 72.9201L36.0643 72.9214Z" fill="#329CC5"/>
<path opacity="0.1" d="M41.7062 52.9367C41.7062 53.7429 40.2585 56.0802 40.2585 56.0802C40.2585 56.0802 38.8108 53.7429 38.8108 52.9367C38.7961 52.736 38.8226 52.5344 38.8885 52.3445C38.9544 52.1546 39.0583 51.9804 39.1938 51.833C39.3293 51.6855 39.4934 51.5678 39.676 51.4874C39.8585 51.407 40.0554 51.3654 40.2546 51.3654C40.4537 51.3654 40.6506 51.407 40.8332 51.4874C41.0157 51.5678 41.1798 51.6855 41.3153 51.833C41.4508 51.9804 41.5548 52.1546 41.6207 52.3445C41.6866 52.5344 41.713 52.736 41.6983 52.9367H41.7062Z" fill="#329CC5"/>
<path opacity="0.1" d="M44.0894 57.4011C43.6564 58.0782 41.1875 59.2462 41.1875 59.2462C41.1875 59.2462 41.2322 56.4912 41.6652 55.8141C41.7613 55.6383 41.8921 55.4844 42.0495 55.3619C42.2069 55.2395 42.3876 55.151 42.5803 55.1022C42.773 55.0533 42.9736 55.0451 43.1696 55.078C43.3655 55.1109 43.5527 55.1842 43.7195 55.2933C43.8862 55.4025 44.0289 55.5452 44.1388 55.7125C44.2486 55.8798 44.3232 56.0682 44.3579 56.2659C44.3926 56.4636 44.3867 56.6664 44.3405 56.8617C44.2943 57.057 44.2088 57.2407 44.0894 57.4011V57.4011Z" fill="#329CC5"/>
<path opacity="0.1" d="M43.9855 65.0329C43.2735 65.3961 40.5637 65.1446 40.5637 65.1446C40.5637 65.1446 41.9785 62.7887 42.6905 62.4256C42.8612 62.322 43.0511 62.2551 43.2486 62.2291C43.446 62.2031 43.6466 62.2185 43.8378 62.2744C44.0291 62.3303 44.2068 62.4255 44.3601 62.5539C44.5133 62.6824 44.6386 62.8415 44.7283 63.0212C44.8179 63.2008 44.8699 63.3973 44.8811 63.5982C44.8922 63.7991 44.8623 64.0002 44.793 64.1888C44.7238 64.3775 44.6169 64.5497 44.4788 64.6947C44.3408 64.8397 44.1746 64.9544 43.9908 65.0316L43.9855 65.0329Z" fill="#329CC5"/>
<path opacity="0.1" d="M42.6207 70.7876C41.9797 71.2665 39.2607 71.4833 39.2607 71.4833C39.2607 71.4833 40.261 68.9199 40.9032 68.4397C41.2123 68.2499 41.5804 68.1838 41.9352 68.2546C42.29 68.3254 42.6058 68.5278 42.8204 68.8221C43.0349 69.1164 43.1327 69.4812 43.0945 69.8447C43.0564 70.2082 42.885 70.5441 42.6141 70.7863L42.6207 70.7876Z" fill="#329CC5"/>
<path opacity="0.1" d="M38.1529 59.4032C38.7254 59.9646 41.3904 60.5472 41.3904 60.5472C41.3904 60.5472 40.7324 57.8721 40.1652 57.3093C40.0328 57.1594 39.8713 57.0386 39.6907 56.9545C39.5102 56.8704 39.3144 56.8248 39.1156 56.8205C38.9168 56.8162 38.7193 56.8534 38.5354 56.9297C38.3514 57.006 38.185 57.1197 38.0465 57.2639C37.9079 57.408 37.8003 57.5795 37.7302 57.7675C37.6601 57.9556 37.629 58.1562 37.639 58.3569C37.649 58.5577 37.6998 58.7541 37.7882 58.9341C37.8766 59.1141 38.0008 59.2738 38.1529 59.4032Z" fill="#329CC5"/>
<path opacity="0.1" d="M36.6434 66.1557C37.3554 66.5188 40.0652 66.2674 40.0652 66.2674C40.0652 66.2674 38.6557 63.9115 37.9437 63.555C37.6061 63.4133 37.228 63.406 36.8853 63.5344C36.5426 63.6629 36.2606 63.9176 36.096 64.2475C35.9314 64.5774 35.8964 64.958 35.9979 65.3129C36.0994 65.6678 36.33 65.9708 36.6434 66.161V66.1557Z" fill="#329CC5"/>
<path opacity="0.1" d="M36.0643 72.9214C36.7052 73.4003 39.4242 73.6171 39.4242 73.6171C39.4242 73.6171 38.424 71.0537 37.7818 70.5735C37.6313 70.4389 37.4547 70.3375 37.2632 70.2756C37.0718 70.2138 36.8697 70.193 36.6699 70.2144C36.47 70.2359 36.2768 70.2991 36.1024 70.4002C35.9281 70.5012 35.7765 70.6379 35.6573 70.8014C35.5381 70.9649 35.4538 71.1518 35.4099 71.35C35.3661 71.5482 35.3635 71.7535 35.4024 71.9528C35.4413 72.1521 35.5208 72.341 35.6359 72.5076C35.751 72.6741 35.8992 72.8146 36.0709 72.9201L36.0643 72.9214Z" fill="#329CC5"/>
<path d="M78.7864 77.0851C78.7864 77.0851 76.8702 70.507 79.1457 65.6661C80.1134 63.6416 80.4053 61.3543 79.9774 59.1478C79.7661 58.1019 79.4603 57.0777 79.0641 56.0882" stroke="#535461" stroke-width="2" stroke-miterlimit="10"/>
<path d="M80.4801 53.0299C80.4801 53.836 79.0324 56.1733 79.0324 56.1733C79.0324 56.1733 77.5847 53.836 77.5847 53.0299C77.6117 52.6615 77.7755 52.317 78.0433 52.0656C78.3111 51.8143 78.663 51.6746 79.0284 51.6746C79.3939 51.6746 79.7458 51.8143 80.0136 52.0656C80.2814 52.317 80.4452 52.6615 80.4722 53.0299H80.4801Z" fill="#329CC5"/>
<path d="M82.8672 57.4942C82.4343 58.1714 79.9653 59.3393 79.9653 59.3393C79.9653 59.3393 80.0101 56.5843 80.4431 55.9072C80.5391 55.7315 80.6699 55.5775 80.8273 55.4551C80.9848 55.3326 81.1654 55.2442 81.3581 55.1953C81.5508 55.1464 81.7514 55.1382 81.9474 55.1711C82.1434 55.204 82.3305 55.2773 82.4973 55.3864C82.664 55.4956 82.8068 55.6383 82.9166 55.8056C83.0264 55.9729 83.101 56.1613 83.1357 56.359C83.1704 56.5567 83.1645 56.7596 83.1183 56.9549C83.0721 57.1502 82.9867 57.3338 82.8672 57.4942V57.4942Z" fill="#329CC5"/>
<path d="M82.7675 65.126C82.0555 65.4892 79.3457 65.2378 79.3457 65.2378C79.3457 65.2378 80.7605 62.8819 81.4725 62.5187C81.6433 62.4142 81.8338 62.3465 82.0318 62.3199C82.2298 62.2934 82.4311 62.3086 82.623 62.3645C82.8149 62.4204 82.9934 62.5159 83.147 62.6449C83.3007 62.7738 83.4263 62.9336 83.5159 63.114C83.6055 63.2944 83.6572 63.4917 83.6677 63.6933C83.6783 63.8949 83.6474 64.0965 83.5772 64.2855C83.5069 64.4745 83.3986 64.6467 83.2593 64.7914C83.12 64.936 82.9525 65.05 82.7675 65.126V65.126Z" fill="#329CC5"/>
<path d="M81.3975 70.8808C80.7566 71.3597 78.0376 71.5765 78.0376 71.5765C78.0376 71.5765 79.0378 69.0131 79.68 68.5328C79.9891 68.343 80.3573 68.277 80.7121 68.3478C81.0669 68.4185 81.3827 68.621 81.5972 68.9153C81.8118 69.2095 81.9096 69.5743 81.8714 69.9378C81.8332 70.3013 81.6618 70.6372 81.3909 70.8794L81.3975 70.8808Z" fill="#329CC5"/>
<path d="M76.9319 59.4963C77.5044 60.0577 80.1695 60.6403 80.1695 60.6403C80.1695 60.6403 79.5114 57.9652 78.9442 57.4025C78.8119 57.2525 78.6504 57.1317 78.4698 57.0476C78.2892 56.9635 78.0934 56.9179 77.8947 56.9136C77.6959 56.9093 77.4984 56.9465 77.3144 57.0228C77.1305 57.0991 76.9641 57.2128 76.8255 57.357C76.687 57.5011 76.5793 57.6726 76.5092 57.8606C76.4391 58.0487 76.4081 58.2493 76.4181 58.4501C76.4281 58.6508 76.4789 58.8472 76.5673 59.0272C76.6557 59.2073 76.7798 59.3669 76.9319 59.4963V59.4963Z" fill="#329CC5"/>
<path d="M75.4199 66.2488C76.1319 66.6119 78.8417 66.3605 78.8417 66.3605C78.8417 66.3605 77.4269 64.0046 76.7149 63.6414C76.3773 63.4998 75.9992 63.4924 75.6565 63.6209C75.3138 63.7493 75.0318 64.0041 74.8673 64.334C74.7027 64.6638 74.6676 65.0445 74.7691 65.3994C74.8707 65.7543 75.1013 66.0573 75.4146 66.2474L75.4199 66.2488Z" fill="#329CC5"/>
<path d="M74.8421 73.0145C75.483 73.4934 78.202 73.7103 78.202 73.7103C78.202 73.7103 77.2018 71.1468 76.5596 70.6666C76.2505 70.4768 75.8823 70.4107 75.5275 70.4815C75.1727 70.5523 74.8569 70.7547 74.6424 71.049C74.4278 71.3433 74.33 71.7081 74.3682 72.0716C74.4064 72.4351 74.5778 72.771 74.8487 73.0132L74.8421 73.0145Z" fill="#329CC5"/>
<path opacity="0.1" d="M80.4801 53.0299C80.4801 53.836 79.0324 56.1733 79.0324 56.1733C79.0324 56.1733 77.5847 53.836 77.5847 53.0299C77.6117 52.6615 77.7755 52.317 78.0433 52.0656C78.3111 51.8143 78.663 51.6746 79.0284 51.6746C79.3939 51.6746 79.7458 51.8143 80.0136 52.0656C80.2814 52.317 80.4452 52.6615 80.4722 53.0299H80.4801Z" fill="#329CC5"/>
<path opacity="0.1" d="M82.8672 57.4942C82.4343 58.1714 79.9653 59.3393 79.9653 59.3393C79.9653 59.3393 80.0101 56.5843 80.4431 55.9072C80.5391 55.7315 80.6699 55.5775 80.8273 55.4551C80.9848 55.3326 81.1654 55.2442 81.3581 55.1953C81.5508 55.1464 81.7514 55.1382 81.9474 55.1711C82.1434 55.204 82.3305 55.2773 82.4973 55.3864C82.664 55.4956 82.8068 55.6383 82.9166 55.8056C83.0264 55.9729 83.101 56.1613 83.1357 56.359C83.1704 56.5567 83.1645 56.7596 83.1183 56.9549C83.0721 57.1502 82.9867 57.3338 82.8672 57.4942V57.4942Z" fill="#329CC5"/>
<path opacity="0.1" d="M82.7675 65.126C82.0555 65.4892 79.3457 65.2378 79.3457 65.2378C79.3457 65.2378 80.7605 62.8819 81.4725 62.5187C81.6433 62.4142 81.8338 62.3465 82.0318 62.3199C82.2298 62.2934 82.4311 62.3086 82.623 62.3645C82.8149 62.4204 82.9934 62.5159 83.147 62.6449C83.3007 62.7738 83.4263 62.9336 83.5159 63.114C83.6055 63.2944 83.6572 63.4917 83.6677 63.6933C83.6783 63.8949 83.6474 64.0965 83.5772 64.2855C83.5069 64.4745 83.3986 64.6467 83.2593 64.7914C83.12 64.936 82.9525 65.05 82.7675 65.126V65.126Z" fill="#329CC5"/>
<path opacity="0.1" d="M81.3975 70.8808C80.7566 71.3597 78.0376 71.5765 78.0376 71.5765C78.0376 71.5765 79.0378 69.0131 79.68 68.5328C79.9891 68.343 80.3573 68.277 80.7121 68.3478C81.0669 68.4185 81.3827 68.621 81.5972 68.9153C81.8118 69.2095 81.9096 69.5743 81.8714 69.9378C81.8332 70.3013 81.6618 70.6372 81.3909 70.8794L81.3975 70.8808Z" fill="#329CC5"/>
<path opacity="0.1" d="M76.9319 59.4963C77.5044 60.0577 80.1695 60.6403 80.1695 60.6403C80.1695 60.6403 79.5114 57.9652 78.9442 57.4025C78.8119 57.2525 78.6504 57.1317 78.4698 57.0476C78.2892 56.9635 78.0934 56.9179 77.8947 56.9136C77.6959 56.9093 77.4984 56.9465 77.3144 57.0228C77.1305 57.0991 76.9641 57.2128 76.8255 57.357C76.687 57.5011 76.5793 57.6726 76.5092 57.8606C76.4391 58.0487 76.4081 58.2493 76.4181 58.4501C76.4281 58.6508 76.4789 58.8472 76.5673 59.0272C76.6557 59.2073 76.7798 59.3669 76.9319 59.4963V59.4963Z" fill="#329CC5"/>
<path opacity="0.1" d="M75.4199 66.2488C76.1319 66.6119 78.8417 66.3605 78.8417 66.3605C78.8417 66.3605 77.4269 64.0046 76.7149 63.6414C76.3773 63.4998 75.9992 63.4924 75.6565 63.6209C75.3138 63.7493 75.0318 64.0041 74.8673 64.334C74.7027 64.6638 74.6676 65.0445 74.7691 65.3994C74.8707 65.7543 75.1013 66.0573 75.4146 66.2474L75.4199 66.2488Z" fill="#329CC5"/>
<path opacity="0.1" d="M74.8421 73.0145C75.483 73.4934 78.202 73.7103 78.202 73.7103C78.202 73.7103 77.2018 71.1468 76.5596 70.6666C76.2505 70.4768 75.8823 70.4107 75.5275 70.4815C75.1727 70.5523 74.8569 70.7547 74.6424 71.049C74.4278 71.3433 74.33 71.7081 74.3682 72.0716C74.4064 72.4351 74.5778 72.771 74.8487 73.0132L74.8421 73.0145Z" fill="#329CC5"/>
<path opacity="0.5" d="M88.1634 2.03664H87.3369C87.4152 2.04042 87.4934 2.02809 87.5668 2.00041C87.6403 1.97273 87.7074 1.93028 87.7641 1.87562C87.8208 1.82096 87.866 1.75523 87.8968 1.68241C87.9277 1.60959 87.9436 1.5312 87.9436 1.45199C87.9436 1.37277 87.9277 1.29438 87.8968 1.22157C87.866 1.14875 87.8208 1.08302 87.7641 1.02836C87.7074 0.973695 87.6403 0.931239 87.5668 0.903561C87.4934 0.875883 87.4152 0.863559 87.3369 0.867334H80.6355C80.4869 0.874502 80.3467 0.939229 80.244 1.04809C80.1413 1.15695 80.084 1.30158 80.084 1.45199C80.084 1.60239 80.1413 1.74703 80.244 1.85589C80.3467 1.96475 80.4869 2.02947 80.6355 2.03664H81.462C81.3133 2.04381 81.1731 2.10854 81.0705 2.2174C80.9678 2.32625 80.9105 2.47089 80.9105 2.6213C80.9105 2.7717 80.9678 2.91633 81.0705 3.02519C81.1731 3.13405 81.3133 3.19878 81.462 3.20595H80.3052C80.2269 3.20217 80.1487 3.2145 80.0752 3.24218C80.0018 3.26985 79.9347 3.31231 79.878 3.36697C79.8212 3.42163 79.7761 3.48736 79.7452 3.56018C79.7144 3.633 79.6985 3.71139 79.6985 3.7906C79.6985 3.86982 79.7144 3.9482 79.7452 4.02102C79.7761 4.09384 79.8212 4.15957 79.878 4.21423C79.9347 4.26889 80.0018 4.31135 80.0752 4.33903C80.1487 4.36671 80.2269 4.37903 80.3052 4.37526H87.0013C87.0796 4.37903 87.1578 4.36671 87.2312 4.33903C87.3047 4.31135 87.3718 4.26889 87.4285 4.21423C87.4852 4.15957 87.5304 4.09384 87.5612 4.02102C87.5921 3.9482 87.608 3.86982 87.608 3.7906C87.608 3.71139 87.5921 3.633 87.5612 3.56018C87.5304 3.48736 87.4852 3.42163 87.4285 3.36697C87.3718 3.31231 87.3047 3.26985 87.2312 3.24218C87.1578 3.2145 87.0796 3.20217 87.0013 3.20595H88.1634C88.312 3.19878 88.4522 3.13405 88.5549 3.02519C88.6576 2.91633 88.7149 2.7717 88.7149 2.6213C88.7149 2.47089 88.6576 2.32625 88.5549 2.2174C88.4522 2.10854 88.312 2.04381 88.1634 2.03664Z" fill="#DEE3F3"/>
<path opacity="0.5" d="M49.442 5.44747H48.8129C48.8727 5.45078 48.9326 5.44172 48.9888 5.42085C49.0451 5.39999 49.0966 5.36775 49.1401 5.3261C49.1836 5.28446 49.2183 5.23428 49.2419 5.17864C49.2656 5.123 49.2778 5.06307 49.2778 5.00249C49.2778 4.94192 49.2656 4.88199 49.2419 4.82635C49.2183 4.77071 49.1836 4.72053 49.1401 4.67889C49.0966 4.63724 49.0451 4.605 48.9888 4.58413C48.9326 4.56327 48.8727 4.55421 48.8129 4.55752H43.7171C43.6045 4.56374 43.4985 4.61334 43.421 4.69611C43.3435 4.77887 43.3003 4.88852 43.3003 5.00249C43.3003 5.11647 43.3435 5.22612 43.421 5.30888C43.4985 5.39165 43.6045 5.44125 43.7171 5.44747H44.3461C44.2863 5.44416 44.2264 5.45322 44.1702 5.47409C44.1139 5.49495 44.0625 5.5272 44.0189 5.56884C43.9754 5.61048 43.9408 5.66066 43.9171 5.7163C43.8934 5.77194 43.8812 5.83187 43.8812 5.89245C43.8812 5.95302 43.8934 6.01295 43.9171 6.06859C43.9408 6.12423 43.9754 6.17441 44.0189 6.21605C44.0625 6.2577 44.1139 6.28994 44.1702 6.3108C44.2264 6.33167 44.2863 6.34073 44.3461 6.33742H43.4657C43.4059 6.33411 43.346 6.34317 43.2897 6.36404C43.2335 6.3849 43.182 6.41714 43.1385 6.45879C43.095 6.50043 43.0603 6.55061 43.0366 6.60625C43.0129 6.66189 43.0007 6.72182 43.0007 6.7824C43.0007 6.84297 43.0129 6.9029 43.0366 6.95854C43.0603 7.01418 43.095 7.06436 43.1385 7.106C43.182 7.14765 43.2335 7.17989 43.2897 7.20075C43.346 7.22162 43.4059 7.23068 43.4657 7.22737H48.5615C48.6213 7.23068 48.6812 7.22162 48.7375 7.20075C48.7937 7.17989 48.8452 7.14765 48.8887 7.106C48.9322 7.06436 48.9669 7.01418 48.9906 6.95854C49.0143 6.9029 49.0265 6.84297 49.0265 6.7824C49.0265 6.72182 49.0143 6.66189 48.9906 6.60625C48.9669 6.55061 48.9322 6.50043 48.8887 6.45879C48.8452 6.41714 48.7937 6.3849 48.7375 6.36404C48.6812 6.34317 48.6213 6.33411 48.5615 6.33742H49.442C49.5546 6.3312 49.6605 6.2816 49.738 6.19883C49.8156 6.11607 49.8588 6.00642 49.8588 5.89245C49.8588 5.77847 49.8156 5.66882 49.738 5.58605C49.6605 5.50329 49.5546 5.4537 49.442 5.44747V5.44747Z" fill="#DEE3F3"/>
<path d="M6.66973 68.477C6.66973 68.477 8.97285 73.0465 7.09614 75.546C5.21943 78.0456 7.26722 84.8579 7.26722 84.8579" stroke="#329CC5" stroke-miterlimit="10"/>
<path d="M7.35685 67.0482C7.35685 67.9289 6.71725 68.6446 6.71725 68.6446C6.71725 68.6446 6.07764 67.9302 6.07764 67.0482C6.07764 66.1663 6.71725 65.4519 6.71725 65.4519C6.71725 65.4519 7.35685 66.1676 7.35685 67.0482Z" fill="#329CC5"/>
<path d="M7.86362 68.477C7.86362 68.477 5.5605 73.0465 7.43721 75.546C9.31392 78.0456 7.26612 84.8579 7.26612 84.8579" stroke="#329CC5" stroke-miterlimit="10"/>
<path d="M7.18164 67.0482C7.18164 67.9289 7.82125 68.6446 7.82125 68.6446C7.82125 68.6446 8.46086 67.9302 8.46086 67.0482C8.46086 66.1663 7.82125 65.4519 7.82125 65.4519C7.82125 65.4519 7.18164 66.1676 7.18164 67.0482Z" fill="#329CC5"/>
<path opacity="0.1" d="M7.18164 67.0482C7.18164 67.9289 7.82125 68.6446 7.82125 68.6446C7.82125 68.6446 8.46086 67.9302 8.46086 67.0482C8.46086 66.1663 7.82125 65.4519 7.82125 65.4519C7.82125 65.4519 7.18164 66.1676 7.18164 67.0482Z" fill="black"/>
<path d="M8.8045 68.477C8.8045 68.477 11.1076 73.0465 9.2309 75.546C7.35419 78.0456 9.40199 84.8579 9.40199 84.8579" stroke="#329CC5" stroke-miterlimit="10"/>
<path d="M9.48503 67.0482C9.48503 67.9289 8.84542 68.6446 8.84542 68.6446C8.84542 68.6446 8.20581 67.9302 8.20581 67.0482C8.20581 66.1663 8.84542 65.4519 8.84542 65.4519C8.84542 65.4519 9.48503 66.1676 9.48503 67.0482Z" fill="#329CC5"/>
<path d="M9.12566 70.7091C8.52159 71.3437 7.57007 71.4102 7.57007 71.4102C7.57007 71.4102 7.59902 70.4471 8.2031 69.8139C8.80717 69.1807 9.75869 69.1128 9.75869 69.1128C9.75869 69.1128 9.72579 70.0733 9.12566 70.7091Z" fill="#329CC5"/>
<path d="M9.18596 73.8619C8.58189 74.4964 7.63037 74.5629 7.63037 74.5629C7.63037 74.5629 7.65932 73.5998 8.2634 72.9666C8.86747 72.3334 9.81899 72.2656 9.81899 72.2656C9.81899 72.2656 9.79004 73.226 9.18596 73.8619Z" fill="#329CC5"/>
<path d="M5.90911 75.5952C6.48028 76.2604 6.46054 77.2235 6.46054 77.2235C6.46054 77.2235 5.51429 77.1077 4.94312 76.4426C4.37194 75.7775 4.39168 74.8144 4.39168 74.8144C4.39168 74.8144 5.33794 74.9301 5.90911 75.5952Z" fill="#329CC5"/>
<path d="M6.43562 68.876C7.16209 69.3629 7.39766 70.2968 7.39766 70.2968C7.39766 70.2968 6.45536 70.4418 5.72889 69.9549C5.00242 69.468 4.76685 68.5342 4.76685 68.5342C4.76685 68.5342 5.7131 68.3865 6.43562 68.876Z" fill="#329CC5"/>
<path opacity="0.1" d="M6.43562 68.876C7.16209 69.3629 7.39766 70.2968 7.39766 70.2968C7.39766 70.2968 6.45536 70.4418 5.72889 69.9549C5.00242 69.468 4.76685 68.5342 4.76685 68.5342C4.76685 68.5342 5.7131 68.3865 6.43562 68.876Z" fill="black"/>
<path d="M9.99545 68.477C9.99545 68.477 7.69234 73.0465 9.56905 75.546C11.4458 78.0456 9.39796 84.8579 9.39796 84.8579" stroke="#329CC5" stroke-miterlimit="10"/>
<path d="M9.31396 67.0482C9.31396 67.9289 9.95357 68.6446 9.95357 68.6446C9.95357 68.6446 10.5932 67.9302 10.5932 67.0482C10.5932 66.1663 9.95357 65.4519 9.95357 65.4519C9.95357 65.4519 9.31396 66.1676 9.31396 67.0482Z" fill="#329CC5"/>
<path opacity="0.1" d="M9.31396 67.0482C9.31396 67.9289 9.95357 68.6446 9.95357 68.6446C9.95357 68.6446 10.5932 67.9302 10.5932 67.0482C10.5932 66.1663 9.95357 65.4519 9.95357 65.4519C9.95357 65.4519 9.31396 66.1676 9.31396 67.0482Z" fill="black"/>
<path d="M9.49812 70.777C8.88615 71.4049 8.84009 72.3733 8.84009 72.3733C8.84009 72.3733 9.7916 72.3188 10.4036 71.6909C11.0155 71.063 11.0616 70.0945 11.0616 70.0945C11.0616 70.0945 10.1101 70.1491 9.49812 70.777Z" fill="#329CC5"/>
<path opacity="0.1" d="M9.49812 70.777C8.88615 71.4049 8.84009 72.3733 8.84009 72.3733C8.84009 72.3733 9.7916 72.3188 10.4036 71.6909C11.0155 71.063 11.0616 70.0945 11.0616 70.0945C11.0616 70.0945 10.1101 70.1491 9.49812 70.777Z" fill="black"/>
<path d="M10.6969 75.1416C10.0849 75.7695 10.0388 76.7379 10.0388 76.7379C10.0388 76.7379 10.9903 76.6834 11.6023 76.0555C12.2143 75.4276 12.2603 74.4592 12.2603 74.4592C12.2603 74.4592 11.3049 74.5137 10.6969 75.1416Z" fill="#329CC5"/>
<path d="M8.93604 74.1825C8.93604 74.1825 10.3219 71.9742 12.2683 71.921" stroke="#329CC5" stroke-miterlimit="10"/>
<path d="M7.85303 72.8482C7.85303 72.8482 6.46721 70.64 4.52075 70.5868" stroke="#329CC5" stroke-miterlimit="10"/>
<path d="M7.67261 76.001C7.67261 76.001 9.05843 73.7927 11.0049 73.7395" stroke="#329CC5" stroke-miterlimit="10"/>
<path d="M12.2011 72.2722C12.3995 72.2722 12.5604 72.1096 12.5604 71.909C12.5604 71.7085 12.3995 71.5459 12.2011 71.5459C12.0027 71.5459 11.8418 71.7085 11.8418 71.909C11.8418 72.1096 12.0027 72.2722 12.2011 72.2722Z" fill="#329CC5"/>
<path d="M4.55484 70.9685C4.75327 70.9685 4.91413 70.806 4.91413 70.6054C4.91413 70.4048 4.75327 70.2422 4.55484 70.2422C4.35642 70.2422 4.19556 70.4048 4.19556 70.6054C4.19556 70.806 4.35642 70.9685 4.55484 70.9685Z" fill="#329CC5"/>
<path d="M8.69263 76.7246C8.69263 76.7246 7.30681 74.5164 5.36035 74.4632" stroke="#329CC5" stroke-miterlimit="10"/>
<path d="M5.39469 74.8476C5.59312 74.8476 5.75397 74.685 5.75397 74.4844C5.75397 74.2839 5.59312 74.1213 5.39469 74.1213C5.19626 74.1213 5.0354 74.2839 5.0354 74.4844C5.0354 74.685 5.19626 74.8476 5.39469 74.8476Z" fill="#329CC5"/>
<path d="M11.0312 74.1213C11.2296 74.1213 11.3905 73.9587 11.3905 73.7581C11.3905 73.5576 11.2296 73.395 11.0312 73.395C10.8327 73.395 10.6719 73.5576 10.6719 73.7581C10.6719 73.9587 10.8327 74.1213 11.0312 74.1213Z" fill="#329CC5"/>
<path d="M16.3562 82.1987C16.3562 82.1987 13.016 81.5229 12.1238 80.6223C11.2315 79.7217 7.22535 78.1467 6.7792 79.2721C6.33306 80.3975 0.766097 84.2247 4.55242 84.9005C8.33874 85.5763 13.4609 85.8011 14.5743 85.3501C15.6877 84.8991 16.3562 82.1987 16.3562 82.1987Z" fill="#A8A8A8"/>
<path opacity="0.2" d="M4.55236 84.4814C8.33868 85.1572 13.4608 85.382 14.5742 84.9311C15.4217 84.5878 16.0113 82.9357 16.2443 82.1747L16.3562 82.1987C16.3562 82.1987 15.6876 84.9005 14.5742 85.3501C13.4608 85.7997 8.33868 85.5749 4.55236 84.9005C3.46002 84.7049 3.1468 84.2473 3.26524 83.6686C3.35737 84.0411 3.73903 84.3364 4.55236 84.4814Z" fill="black"/>
<path d="M117.766 69.5119C117.766 69.5119 118.868 70.9752 117.256 73.1701C115.644 75.3651 114.315 77.2288 114.853 78.6016C114.853 78.6016 117.285 74.5137 119.264 74.4565C121.244 74.3993 119.944 71.9689 117.766 69.5119Z" fill="#329CC5"/>
<path opacity="0.1" d="M117.766 69.5119C117.862 69.6529 117.938 69.807 117.991 69.9695C119.923 72.2629 120.951 74.4033 119.095 74.4578C117.366 74.5084 115.291 77.6332 114.794 78.4234C114.81 78.4843 114.83 78.5443 114.853 78.603C114.853 78.603 117.285 74.515 119.265 74.4578C121.244 74.4006 119.944 71.9689 117.766 69.5119Z" fill="black"/>
<path d="M119.816 71.369C119.816 71.8825 119.759 72.3002 119.684 72.3002C119.609 72.3002 119.553 71.8838 119.553 71.369C119.553 70.8542 119.624 71.1029 119.694 71.1029C119.763 71.1029 119.816 70.8568 119.816 71.369Z" fill="#FFD037"/>
<path d="M120.52 71.9822C120.074 72.2283 119.686 72.3813 119.653 72.3135C119.62 72.2456 119.953 72.0008 120.399 71.7561C120.845 71.5113 120.669 71.6896 120.703 71.7561C120.737 71.8226 120.965 71.7361 120.52 71.9822Z" fill="#FFD037"/>
<path d="M111.941 69.5119C111.941 69.5119 110.838 70.9752 112.45 73.1701C114.062 75.3651 115.391 77.2288 114.853 78.6016C114.853 78.6016 112.421 74.5137 110.442 74.4565C108.462 74.3993 109.763 71.9689 111.941 69.5119Z" fill="#329CC5"/>
<path opacity="0.1" d="M111.941 69.5119C111.845 69.6529 111.769 69.807 111.716 69.9695C109.784 72.2629 108.756 74.4033 110.612 74.4578C112.341 74.5084 114.415 77.6332 114.912 78.4234C114.896 78.4843 114.876 78.5443 114.853 78.603C114.853 78.603 112.421 74.515 110.442 74.4578C108.462 74.4006 109.763 71.9689 111.941 69.5119Z" fill="black"/>
<path d="M109.89 71.369C109.89 71.8825 109.947 72.3002 110.022 72.3002C110.097 72.3002 110.153 71.8838 110.153 71.369C110.153 70.8542 110.082 71.1029 110.013 71.1029C109.943 71.1029 109.89 70.8568 109.89 71.369Z" fill="#FFD037"/>
<path d="M109.186 71.9822C109.632 72.2283 110.02 72.3813 110.053 72.3135C110.086 72.2456 109.753 72.0008 109.307 71.7561C108.861 71.5113 109.037 71.6896 109.003 71.7561C108.969 71.8226 108.74 71.7361 109.186 71.9822Z" fill="#FFD037"/>
<path d="M110.242 78.4101C110.242 78.4101 113.325 78.3143 114.254 77.6452C115.184 76.9761 118.992 76.1819 119.228 77.2461C119.463 78.3103 123.862 82.5818 120.381 82.6097C116.9 82.6377 112.292 82.0617 111.364 81.491C110.436 80.9203 110.242 78.4101 110.242 78.4101Z" fill="#A8A8A8"/>
<path opacity="0.2" d="M120.443 82.2413C116.962 82.2692 112.354 81.6932 111.426 81.1225C110.719 80.6875 110.438 79.1271 110.344 78.4074H110.242C110.242 78.4074 110.436 80.9216 111.364 81.4923C112.292 82.063 116.9 82.6403 120.381 82.6111C121.386 82.6031 121.732 82.2413 121.714 81.7065C121.574 82.0324 121.197 82.2346 120.443 82.2413Z" fill="black"/>
<path opacity="0.5" d="M23.4049 9.92913H22.5784C22.6567 9.9329 22.7349 9.92058 22.8084 9.8929C22.8818 9.86522 22.9489 9.82277 23.0056 9.7681C23.0623 9.71344 23.1075 9.64771 23.1383 9.57489C23.1692 9.50208 23.1851 9.42369 23.1851 9.34447C23.1851 9.26526 23.1692 9.18687 23.1383 9.11405C23.1075 9.04123 23.0623 8.9755 23.0056 8.92084C22.9489 8.86618 22.8818 8.82373 22.8084 8.79605C22.7349 8.76837 22.6567 8.75605 22.5784 8.75982H15.8823C15.7337 8.76699 15.5935 8.83172 15.4908 8.94057C15.3881 9.04943 15.3308 9.19407 15.3308 9.34447C15.3308 9.49488 15.3881 9.63952 15.4908 9.74837C15.5935 9.85723 15.7337 9.92196 15.8823 9.92913H16.7088C16.5601 9.9363 16.42 10.001 16.3173 10.1099C16.2146 10.2187 16.1573 10.3634 16.1573 10.5138C16.1573 10.6642 16.2146 10.8088 16.3173 10.9177C16.42 11.0265 16.5601 11.0913 16.7088 11.0984H15.552C15.4033 11.1056 15.2631 11.1703 15.1605 11.2792C15.0578 11.388 15.0005 11.5327 15.0005 11.6831C15.0005 11.8335 15.0578 11.9781 15.1605 12.087C15.2631 12.1958 15.4033 12.2606 15.552 12.2677H22.2481C22.3264 12.2715 22.4046 12.2592 22.478 12.2315C22.5515 12.2038 22.6186 12.1614 22.6753 12.1067C22.732 12.0521 22.7772 11.9863 22.808 11.9135C22.8389 11.8407 22.8548 11.7623 22.8548 11.6831C22.8548 11.6039 22.8389 11.5255 22.808 11.4527C22.7772 11.3798 22.732 11.3141 22.6753 11.2595C22.6186 11.2048 22.5515 11.1623 22.478 11.1347C22.4046 11.107 22.3264 11.0947 22.2481 11.0984H23.4049C23.5536 11.0913 23.6938 11.0265 23.7964 10.9177C23.8991 10.8088 23.9564 10.6642 23.9564 10.5138C23.9564 10.3634 23.8991 10.2187 23.7964 10.1099C23.6938 10.001 23.5536 9.9363 23.4049 9.92913V9.92913Z" fill="#DEE3F3"/>
</g>
<defs>
<linearGradient id="paint0_linear_379_13312" x1="60.6049" y1="72.3348" x2="60.6049" y2="17.2616" gradientUnits="userSpaceOnUse">
<stop stop-color="#808080" stop-opacity="0.25"/>
<stop offset="0.54" stop-color="#808080" stop-opacity="0.12"/>
<stop offset="1" stop-color="#808080" stop-opacity="0.1"/>
</linearGradient>
<linearGradient id="paint1_linear_379_13312" x1="50.1335" y1="62.8065" x2="50.1335" y2="62.8002" gradientUnits="userSpaceOnUse">
<stop stop-color="#808080" stop-opacity="0.25"/>
<stop offset="0.54" stop-color="#808080" stop-opacity="0.12"/>
<stop offset="1" stop-color="#808080" stop-opacity="0.1"/>
</linearGradient>
<linearGradient id="paint2_linear_379_13312" x1="8474.88" y1="26897.9" x2="8474.88" y2="12059.6" gradientUnits="userSpaceOnUse">
<stop stop-color="#808080" stop-opacity="0.25"/>
<stop offset="0.54" stop-color="#808080" stop-opacity="0.12"/>
<stop offset="1" stop-color="#808080" stop-opacity="0.1"/>
</linearGradient>
<linearGradient id="paint3_linear_379_13312" x1="23873.7" y1="32605.5" x2="23873.7" y2="10568.4" gradientUnits="userSpaceOnUse">
<stop stop-color="#808080" stop-opacity="0.25"/>
<stop offset="0.54" stop-color="#808080" stop-opacity="0.12"/>
<stop offset="1" stop-color="#808080" stop-opacity="0.1"/>
</linearGradient>
<clipPath id="clip0_379_13312">
<rect width="125" height="88" fill="white"/>
</clipPath>
</defs>
</svg>
