<svg width="139" height="96" viewBox="0 0 139 96" fill="none" xmlns="http://www.w3.org/2000/svg">
<g clip-path="url(#clip0_379_13270)">
<path d="M57.9039 96.0002H11.8686C11.6426 95.9999 11.4259 95.9096 11.2661 95.7491C11.1063 95.5887 11.0164 95.3711 11.0161 95.1442V55.6161C11.0164 55.3892 11.1063 55.1716 11.2661 55.0112C11.4259 54.8507 11.6426 54.7604 11.8686 54.7601H57.9039C58.1298 54.7604 58.3465 54.8507 58.5063 55.0112C58.6661 55.1716 58.756 55.3892 58.7563 55.6161V95.144C58.7561 95.371 58.6662 95.5885 58.5063 95.749C58.3465 95.9095 58.1299 95.9997 57.9039 96V96.0002ZM11.8686 55.1018C11.7331 55.1021 11.6033 55.1563 11.5075 55.2525C11.4118 55.3486 11.3578 55.479 11.3575 55.615V95.144C11.3578 95.28 11.4118 95.4104 11.5075 95.5065C11.6033 95.6027 11.7331 95.6569 11.8686 95.6572H57.9039C58.0393 95.6569 58.1691 95.6028 58.2649 95.5066C58.3607 95.4104 58.4146 95.28 58.4149 95.144V55.6161C58.4146 55.4801 58.3606 55.3497 58.2649 55.2536C58.1691 55.1574 58.0393 55.1033 57.9039 55.103L11.8686 55.1018Z" fill="#E6E6E6"/>
<path d="M19.0214 92.4578C20.9393 92.4578 22.494 90.8967 22.494 88.9709C22.494 87.0452 20.9393 85.4841 19.0214 85.4841C17.1036 85.4841 15.5488 87.0452 15.5488 88.9709C15.5488 90.8967 17.1036 92.4578 19.0214 92.4578Z" fill="#E6E6E6"/>
<path d="M27.0419 86.6463C26.8884 86.6463 26.7412 86.7076 26.6326 86.8165C26.5241 86.9255 26.4631 87.0733 26.4631 87.2275C26.4631 87.3816 26.5241 87.5294 26.6326 87.6384C26.7412 87.7473 26.8884 87.8086 27.0419 87.8086H54.327C54.4805 87.8086 54.6277 87.7473 54.7362 87.6384C54.8448 87.5294 54.9058 87.3816 54.9058 87.2275C54.9058 87.0733 54.8448 86.9255 54.7362 86.8165C54.6277 86.7076 54.4805 86.6463 54.327 86.6463H27.0419Z" fill="#E6E6E6"/>
<path d="M27.0419 90.1334C26.8884 90.1334 26.7412 90.1946 26.6326 90.3036C26.5241 90.4125 26.4631 90.5603 26.4631 90.7145C26.4631 90.8686 26.5241 91.0164 26.6326 91.1254C26.7412 91.2343 26.8884 91.2956 27.0419 91.2956H38.7828C38.9363 91.2956 39.0835 91.2343 39.192 91.1254C39.3005 91.0164 39.3615 90.8686 39.3615 90.7145C39.3615 90.5603 39.3005 90.4125 39.192 90.3036C39.0835 90.1946 38.9363 90.1334 38.7828 90.1334H27.0419Z" fill="#E6E6E6"/>
<path d="M68.8413 82.2132H22.8058C22.5798 82.213 22.3631 82.1227 22.2033 81.9623C22.0435 81.8018 21.9536 81.5842 21.9534 81.3573V61.0716C21.9536 60.8447 22.0435 60.6271 22.2033 60.4666C22.3631 60.3062 22.5798 60.2159 22.8058 60.2157H68.8413C69.0673 60.2159 69.2839 60.3062 69.4438 60.4666C69.6036 60.6271 69.6935 60.8447 69.6937 61.0716V81.3573C69.6935 81.5842 69.6036 81.8018 69.4438 81.9623C69.2839 82.1227 69.0673 82.213 68.8413 82.2132V82.2132Z" fill="#329CC5"/>
<path d="M32.181 67.2862C32.0275 67.2862 31.8803 67.3474 31.7718 67.4564C31.6633 67.5654 31.6023 67.7132 31.6023 67.8673C31.6023 68.0215 31.6633 68.1693 31.7718 68.2782C31.8803 68.3872 32.0275 68.4484 32.181 68.4484H59.4663C59.6198 68.4484 59.767 68.3872 59.8756 68.2782C59.9841 68.1693 60.0451 68.0215 60.0451 67.8673C60.0451 67.7132 59.9841 67.5654 59.8756 67.4564C59.767 67.3474 59.6198 67.2862 59.4663 67.2862H32.181Z" fill="white"/>
<path d="M32.181 70.6536C32.0275 70.6536 31.8803 70.7148 31.7718 70.8238C31.6633 70.9328 31.6023 71.0806 31.6023 71.2347C31.6023 71.3888 31.6633 71.5367 31.7718 71.6456C31.8803 71.7546 32.0275 71.8158 32.181 71.8158H59.4663C59.6198 71.8158 59.767 71.7546 59.8756 71.6456C59.9841 71.5367 60.0451 71.3888 60.0451 71.2347C60.0451 71.0806 59.9841 70.9328 59.8756 70.8238C59.767 70.7148 59.6198 70.6536 59.4663 70.6536H32.181Z" fill="white"/>
<path d="M32.181 73.9803C32.0275 73.9803 31.8803 74.0415 31.7718 74.1505C31.6633 74.2595 31.6023 74.4073 31.6023 74.5614C31.6023 74.7155 31.6633 74.8633 31.7718 74.9723C31.8803 75.0813 32.0275 75.1425 32.181 75.1425H43.9219C44.0754 75.1425 44.2226 75.0813 44.3312 74.9723C44.4397 74.8633 44.5007 74.7155 44.5007 74.5614C44.5007 74.4073 44.4397 74.2595 44.3312 74.1505C44.2226 74.0415 44.0754 73.9803 43.9219 73.9803H32.181Z" fill="white"/>
<path d="M139 95.6115H0V95.9322H139V95.6115Z" fill="#3F3D56"/>
<path d="M120.665 95.6116H74.6293C74.4033 95.6113 74.1867 95.521 74.0269 95.3606C73.8671 95.2001 73.7772 94.9826 73.7769 94.7556V83.2892C73.7772 83.0623 73.8671 82.8447 74.0269 82.6843C74.1867 82.5238 74.4033 82.4335 74.6293 82.4332H120.665C120.891 82.4335 121.107 82.5238 121.267 82.6843C121.427 82.8447 121.517 83.0623 121.517 83.2892V94.7555C121.517 94.9824 121.427 95.2 121.267 95.3605C121.107 95.521 120.891 95.6113 120.665 95.6116V95.6116ZM74.6293 82.7749C74.4939 82.7752 74.3641 82.8294 74.2683 82.9256C74.1725 83.0217 74.1186 83.1521 74.1183 83.2881V94.7544C74.1186 94.8904 74.1725 95.0207 74.2683 95.1169C74.3641 95.213 74.4939 95.2672 74.6293 95.2675H120.665C120.8 95.2672 120.93 95.2131 121.026 95.1169C121.121 95.0207 121.175 94.8904 121.176 94.7544V83.2892C121.175 83.1532 121.121 83.0228 121.026 82.9266C120.93 82.8305 120.8 82.7763 120.665 82.7761L74.6293 82.7749Z" fill="#E6E6E6"/>
<path d="M81.7824 92.0693C83.7003 92.0693 85.255 90.5082 85.255 88.5824C85.255 86.6567 83.7003 85.0956 81.7824 85.0956C79.8646 85.0956 78.3098 86.6567 78.3098 88.5824C78.3098 90.5082 79.8646 92.0693 81.7824 92.0693Z" fill="#E6E6E6"/>
<path d="M89.8026 86.2578C89.6491 86.2578 89.5019 86.319 89.3934 86.428C89.2848 86.537 89.2239 86.6848 89.2239 86.8389C89.2239 86.993 89.2848 87.1408 89.3934 87.2498C89.5019 87.3588 89.6491 87.42 89.8026 87.42H117.088C117.241 87.42 117.388 87.3588 117.497 87.2498C117.606 87.1408 117.666 86.993 117.666 86.8389C117.666 86.6848 117.606 86.537 117.497 86.428C117.388 86.319 117.241 86.2578 117.088 86.2578H89.8026Z" fill="#E6E6E6"/>
<path d="M89.8026 89.7448C89.6491 89.7448 89.5019 89.806 89.3934 89.915C89.2848 90.024 89.2239 90.1718 89.2239 90.3259C89.2239 90.4801 89.2848 90.6279 89.3934 90.7368C89.5019 90.8458 89.6491 90.907 89.8026 90.907H101.544C101.697 90.907 101.844 90.8458 101.953 90.7368C102.061 90.6279 102.122 90.4801 102.122 90.3259C102.122 90.1718 102.061 90.024 101.953 89.915C101.844 89.806 101.697 89.7448 101.544 89.7448H89.8026Z" fill="#E6E6E6"/>
<path d="M112.584 82.1678L70.4969 63.3311C70.2904 63.2384 70.1289 63.0673 70.0476 62.8555C69.9664 62.6437 69.9721 62.4084 70.0636 62.2013L74.6991 51.7382C74.7911 51.5313 74.9612 51.3695 75.1722 51.2885C75.3832 51.2074 75.6178 51.2137 75.8245 51.306L117.912 70.1427C118.118 70.2354 118.28 70.4064 118.361 70.6182C118.442 70.83 118.436 71.0653 118.345 71.2725L113.71 81.7354C113.618 81.9423 113.447 82.1041 113.236 82.1851C113.025 82.2661 112.791 82.2598 112.584 82.1676L112.584 82.1678ZM75.6864 51.6178C75.5624 51.5626 75.4219 51.559 75.2954 51.6075C75.169 51.6561 75.067 51.7529 75.0117 51.8769L70.3763 62.3398C70.3216 62.464 70.3182 62.605 70.3669 62.7319C70.4155 62.8589 70.5123 62.9614 70.636 63.0171L112.723 81.8538C112.847 81.909 112.988 81.9127 113.114 81.8641C113.241 81.8156 113.343 81.7187 113.398 81.5947L118.033 71.1328C118.088 71.0086 118.091 70.8676 118.042 70.7406C117.994 70.6137 117.897 70.5112 117.773 70.4555L75.6864 51.6178Z" fill="#E6E6E6"/>
<path d="M78.472 63.0334C80.2264 63.8187 82.2802 63.0296 83.0593 61.271C83.8384 59.5123 83.0477 57.4501 81.2933 56.6648C79.5389 55.8796 77.4851 56.6686 76.706 58.4273C75.9269 60.1859 76.7176 62.2482 78.472 63.0334Z" fill="#E6E6E6"/>
<path d="M88.154 61.0021C88.0137 60.9393 87.8544 60.935 87.7111 60.99C87.5679 61.0449 87.4524 61.1548 87.3901 61.2953C87.3278 61.4358 87.3238 61.5955 87.3789 61.7392C87.4341 61.8829 87.5439 61.9989 87.6842 62.0617L112.624 73.2149C112.764 73.2776 112.924 73.282 113.067 73.227C113.21 73.172 113.326 73.0621 113.388 72.9216C113.45 72.7811 113.454 72.6214 113.399 72.4777C113.344 72.334 113.234 72.218 113.094 72.1552L88.154 61.0021Z" fill="#E6E6E6"/>
<path d="M86.7407 64.1892C86.6004 64.1265 86.4411 64.1221 86.2978 64.1771C86.1545 64.2321 86.039 64.342 85.9767 64.4826C85.9144 64.6231 85.9104 64.7828 85.9656 64.9266C86.0207 65.0703 86.1305 65.1863 86.2708 65.2491L97.0032 70.0495C97.1435 70.1122 97.3028 70.1166 97.4461 70.0616C97.5893 70.0066 97.7048 69.8967 97.7671 69.7562C97.8294 69.6156 97.8334 69.4559 97.7783 69.3122C97.7231 69.1684 97.6133 69.0524 97.473 68.9896L86.7407 64.1892Z" fill="#E6E6E6"/>
<path d="M77.9894 50.2897L32.1339 54.3235C31.9088 54.343 31.6852 54.2722 31.5122 54.1265C31.3391 53.9809 31.2308 53.7723 31.2109 53.5465L30.2213 42.137C30.202 41.9112 30.2728 41.6869 30.4182 41.5132C30.5635 41.3395 30.7715 41.2307 30.9966 41.2106L76.8521 37.1768C77.0772 37.1573 77.3008 37.2281 77.4738 37.3738C77.6469 37.5195 77.7552 37.728 77.7751 37.9538L78.7646 49.3631C78.784 49.589 78.7132 49.8134 78.5679 49.9871C78.4226 50.1608 78.2145 50.2696 77.9894 50.2897V50.2897ZM31.0261 41.5506C30.8912 41.5628 30.7666 41.6281 30.6795 41.7321C30.5924 41.8362 30.5499 41.9706 30.5613 42.106L31.5509 53.5153C31.5629 53.6506 31.6279 53.7756 31.7316 53.8629C31.8353 53.9502 31.9693 53.9927 32.1042 53.9811L77.9597 49.9473C78.0946 49.9352 78.2193 49.8699 78.3064 49.7658C78.3935 49.6617 78.4359 49.5273 78.4245 49.3919L77.435 37.9837C77.423 37.8484 77.358 37.7234 77.2543 37.6361C77.1506 37.5488 77.0166 37.5063 76.8816 37.5179L31.0261 41.5506Z" fill="#E6E6E6"/>
<path d="M38.9547 50.1696C40.8655 50.0014 42.2797 48.3107 42.1135 46.3933C41.9473 44.4759 40.2635 43.0579 38.3527 43.226C36.4418 43.3942 35.0276 45.0849 35.1938 47.0023C35.3601 48.9197 37.0438 50.3378 38.9547 50.1696Z" fill="#E6E6E6"/>
<path d="M46.4404 43.685C46.2876 43.6984 46.1462 43.7721 46.0475 43.8898C45.9488 44.0076 45.9009 44.1597 45.9142 44.3128C45.9275 44.4659 46.0009 44.6074 46.1184 44.7061C46.236 44.8049 46.3879 44.8528 46.5407 44.8394L73.7171 42.4528C73.87 42.4393 74.0113 42.3657 74.11 42.2479C74.2087 42.1302 74.2567 41.978 74.2434 41.8249C74.2301 41.6719 74.1566 41.5304 74.0391 41.4316C73.9216 41.3329 73.7697 41.2849 73.6168 41.2984L46.4404 43.685Z" fill="#E6E6E6"/>
<path d="M46.7425 47.1571C46.5896 47.1706 46.4482 47.2443 46.3495 47.3621C46.2508 47.48 46.2029 47.6322 46.2162 47.7854C46.2295 47.9386 46.3029 48.0802 46.4205 48.179C46.538 48.2779 46.6899 48.3258 46.8428 48.3124L58.5371 47.2847C58.69 47.2712 58.8313 47.1975 58.93 47.0797C59.0287 46.9618 59.0767 46.8096 59.0634 46.6564C59.0501 46.5032 58.9766 46.3616 58.8591 46.2628C58.7416 46.1639 58.5897 46.116 58.4368 46.1294L46.7425 47.1571Z" fill="#E6E6E6"/>
<path d="M69.3039 13.3432C72.2145 13.3432 74.5739 10.9741 74.5739 8.05162C74.5739 5.12914 72.2145 2.75999 69.3039 2.75999C66.3934 2.75999 64.0339 5.12914 64.0339 8.05162C64.0339 10.9741 66.3934 13.3432 69.3039 13.3432Z" fill="#2F2E41"/>
<path d="M69.4111 13.8107C71.5773 13.8107 73.3334 12.0474 73.3334 9.87225C73.3334 7.69713 71.5773 5.93384 69.4111 5.93384C67.2448 5.93384 65.4888 7.69713 65.4888 9.87225C65.4888 12.0474 67.2448 13.8107 69.4111 13.8107Z" fill="#FEB8B8"/>
<path d="M75.3722 15.5882C75.3722 15.5882 68.1859 14.3053 63.5547 15.9089L64.9121 26.7326L64.5927 28.4965L74.1745 28.1758L73.5357 26.4119L75.3722 15.5882Z" fill="#FEB8B8"/>
<path d="M70.3787 27.2685C68.7242 27.2488 67.0718 27.1436 65.4281 26.9536C65.0905 26.9163 64.7791 26.7532 64.5556 26.4965C64.332 26.2399 64.2125 25.9083 64.2206 25.5674L64.3372 20.5055L64.3508 20.4858C65.7392 18.4665 65.0628 16.9916 64.5424 16.1975C64.4326 16.0298 64.3742 15.8335 64.3744 15.6328V15.6328C64.2945 15.5205 64.2767 15.6977 64.3265 15.572C64.351 15.5096 64.3907 15.4544 64.4419 15.4113C64.4931 15.3682 64.5542 15.3387 64.6197 15.3254L65.4124 15.1663C65.5075 15.1472 65.6063 15.1636 65.6903 15.2123C65.7743 15.261 65.8378 15.3388 65.8688 15.431C66.1352 16.2291 67.1734 18.797 69.5524 18.7963C71.5398 18.7963 72.2815 15.9724 72.3258 15.3197C72.333 15.2186 72.3781 15.124 72.452 15.0549C72.5258 14.9859 72.623 14.9474 72.724 14.9474H73.7141C73.7767 14.9459 73.8389 14.9586 73.896 14.9846C73.9532 15.0105 74.0037 15.049 74.044 15.0972C74.0933 15.1585 74.1234 15.2332 74.1303 15.3118C74.1373 15.3903 74.1208 15.4692 74.083 15.5383C72.953 17.6245 74.6044 20.9261 74.6212 20.9582L74.6317 20.9791L74.1657 25.8366C74.1375 26.1216 74.0211 26.3905 73.8328 26.6056C73.6444 26.8206 73.3937 26.971 73.1159 27.0356C72.3955 27.2054 71.4218 27.2685 70.3787 27.2685Z" fill="#CCCCCC"/>
<path d="M61.2588 38.5394C60.1856 38.5394 59.2032 38.4207 58.4226 38.1403C57.4947 37.8069 56.9121 37.2678 56.6908 36.5367C56.5863 36.2261 56.555 35.8953 56.5995 35.5705C56.644 35.2457 56.7631 34.9357 56.9473 34.6649C58.3199 32.6012 63.083 32.0191 63.7221 31.9503L64.0607 29.1174C64.1008 28.7905 64.2571 28.489 64.5008 28.2685C64.7445 28.048 65.0593 27.9232 65.3873 27.917L73.4091 27.7913C73.7314 27.7835 74.0457 27.8921 74.2948 28.0975C74.544 28.3028 74.7114 28.5912 74.7666 28.9101L75.2223 31.4276L69.9622 33.9892L70.7575 36.2253L70.7056 36.2601C69.1662 37.2906 64.7389 38.5392 61.2588 38.5394Z" fill="#2F2E41"/>
<path d="M74.4941 31.0622C74.4941 31.0622 81.8401 30.1 81.361 33.9485C80.8819 37.797 75.2925 40.5229 66.8286 33.9485L67.7868 32.0243C67.7868 32.0243 72.5777 33.3071 74.4941 32.345V31.0622Z" fill="#2F2E41"/>
<path d="M67.9466 32.5053C67.9466 32.5053 67.9466 30.5811 66.3497 30.7415C64.7527 30.9018 61.8781 31.0622 61.8781 31.0622C61.8781 31.0622 60.92 31.7036 62.1975 32.0243C63.4751 32.345 67.3078 33.9485 67.3078 33.9485L67.9466 32.5053Z" fill="#FEB8B8"/>
<path d="M70.6614 32.1846C70.6614 32.1846 70.6614 30.2604 72.2583 30.4207C73.8553 30.5811 76.7298 30.7415 76.7298 30.7415C76.7298 30.7415 77.688 31.3829 76.4104 31.7036C75.1329 32.0243 71.3002 33.6278 71.3002 33.6278L70.6614 32.1846Z" fill="#FEB8B8"/>
<path d="M80.2309 31.8201L77.848 23.5256C77.848 23.5256 77.369 20.6393 76.8899 17.9133C76.4108 15.1873 74.6541 15.508 74.6541 15.508L74.3347 15.6683V19.9979L74.6541 24.0067L77.8425 32.81C77.7486 33.1153 77.7432 33.4411 77.8268 33.7493C77.9105 34.0576 78.0798 34.3356 78.3149 34.5508C78.55 34.7661 78.8413 34.9097 79.1547 34.965C79.4681 35.0202 79.7907 34.9848 80.0848 34.8629C80.3789 34.7409 80.6323 34.5374 80.8156 34.2762C80.9988 34.015 81.1042 33.7068 81.1195 33.3877C81.1349 33.0686 81.0594 32.7517 80.9021 32.474C80.7447 32.1963 80.5119 31.9693 80.2309 31.8195V31.8201Z" fill="#FEB8B8"/>
<path d="M64.1138 15.8287C64.1138 15.8287 62.3572 15.508 61.8781 18.234C61.399 20.96 60.9199 23.8463 60.9199 23.8463L58.5371 32.1408C58.256 32.2906 58.0232 32.5177 57.8659 32.7953C57.7085 33.073 57.6331 33.39 57.6484 33.7091C57.6638 34.0282 57.7692 34.3364 57.9524 34.5976C58.1357 34.8588 58.3891 35.0622 58.6832 35.1842C58.9773 35.3062 59.2999 35.3416 59.6133 35.2863C59.9267 35.2311 60.2179 35.0874 60.4531 34.8722C60.6882 34.6569 60.8575 34.3789 60.9411 34.0707C61.0248 33.7624 61.0194 33.4366 60.9255 33.1313L64.1138 24.328L64.4332 20.3192V16.3476C64.4332 16.2399 64.4034 16.1342 64.3469 16.0426C64.2905 15.9509 64.2098 15.8769 64.1138 15.8287Z" fill="#FEB8B8"/>
<path d="M65.5283 7.45286C67.0601 8.39178 68.7871 8.96313 70.5747 9.12245L70.0428 8.48249C70.4301 8.62619 70.8376 8.70737 71.2502 8.72302C71.4569 8.72904 71.662 8.68635 71.8492 8.59838C72.0364 8.51041 72.2004 8.37961 72.3282 8.21646C72.4326 8.04707 72.4946 7.85484 72.5089 7.65617C72.5233 7.4575 72.4895 7.2583 72.4106 7.07556C72.2485 6.71104 71.9962 6.39424 71.6778 6.1553C71.1132 5.70687 70.4469 5.40566 69.7383 5.2785C69.0297 5.15134 68.3008 5.20218 67.6165 5.4265C67.1469 5.56722 66.7262 5.83797 66.4028 6.20772C66.2439 6.39393 66.1336 6.61684 66.0816 6.85644C66.0297 7.09605 66.0378 7.34484 66.1053 7.58051" fill="#2F2E41"/>
<path d="M69.8 3.34736C68.5629 2.08772 67.0658 1.11567 65.4142 0.499663C64.354 0.105357 63.2 -0.138374 62.0918 0.0856385C60.9835 0.309651 59.9358 1.07982 59.626 2.1715C59.3732 3.06434 59.6343 4.02581 60.0267 4.86637C60.4191 5.70694 60.9431 6.48594 61.2604 7.35825C61.5843 8.24794 61.6818 9.20476 61.5439 10.1419C61.4061 11.079 61.0374 11.9667 60.4712 12.7244C59.905 13.4821 59.1593 14.0858 58.3017 14.4806C57.4442 14.8755 56.5021 15.0491 55.5608 14.9856C56.6498 15.1321 57.6536 15.6461 58.7182 15.9196C59.7827 16.1932 61.039 16.1746 61.83 15.4089C62.667 14.5988 62.6837 13.2815 62.6432 12.1149L62.4627 6.91231C62.4321 6.02797 62.4059 5.11508 62.7235 4.28959C63.0411 3.4641 63.796 2.74123 64.6774 2.74876C65.3454 2.75454 65.9364 3.16071 66.4722 3.56143C67.008 3.96215 67.5741 4.38965 68.2402 4.44914C68.9063 4.50863 69.6652 4.01442 69.6154 3.34544" fill="#2F2E41"/>
<path d="M133.073 88.433C133.01 90.8174 132.612 93.181 131.891 95.454C131.875 95.5068 131.858 95.5587 131.84 95.6115H127.431C127.435 95.5642 127.44 95.5114 127.445 95.454C127.739 92.06 126.059 71.6492 124.032 68.1167C124.21 68.4032 133.415 77.6487 133.073 88.433Z" fill="#E6E6E6"/>
<path d="M132.742 95.454C132.705 95.5068 132.667 95.5595 132.628 95.6115H129.319C129.344 95.5666 129.373 95.5138 129.407 95.454C129.954 94.4637 131.571 91.5026 133.073 88.433C134.686 85.1342 136.167 81.7104 136.042 80.4712C136.081 80.7505 137.197 89.2707 132.742 95.454Z" fill="#E6E6E6"/>
</g>
<defs>
<clipPath id="clip0_379_13270">
<rect width="139" height="96" fill="white"/>
</clipPath>
</defs>
</svg>
