<svg width="20" height="20" viewBox="0 0 20 20" fill="none" xmlns="http://www.w3.org/2000/svg">
<path d="M14.5 4H12.8162C12.4031 2.8375 11.3031 2 10 2C8.69687 2 7.59688 2.8375 7.18438 4H5.5C4.67188 4 4 4.67125 4 5.5V16.5C4 17.3281 4.67188 18 5.5 18H14.5C15.3281 18 16 17.3288 16 16.5V5.5C16 4.67125 15.3281 4 14.5 4ZM10 4C10.5522 4 11 4.44781 11 5C11 5.55219 10.5522 6 10 6C9.44781 6 9 5.55313 9 5C9 4.44781 9.44687 4 10 4ZM10 8C11.1047 8 12 8.89531 12 10C12 11.1047 11.1047 12 10 12C8.89531 12 8 11.1031 8 10C8 8.89688 8.89688 8 10 8ZM13 16H7C6.72387 16 6.5 15.7761 6.5 15.5C6.5 14.1187 7.61875 13 9 13H11C12.3806 13 13.5 14.1194 13.5 15.5C13.5 15.775 13.275 16 13 16Z" fill="url(#paint0_linear_334_12865)"/>
<defs>
<linearGradient id="paint0_linear_334_12865" x1="4" y1="2" x2="16" y2="2" gradientUnits="userSpaceOnUse">
<stop stop-color="#500C80"/>
<stop offset="1" stop-color="#654CBA"/>
</linearGradient>
</defs>
</svg>
