<svg width="20" height="20" viewBox="0 0 20 20" fill="none" xmlns="http://www.w3.org/2000/svg">
<path d="M18.719 2.52239L12.973 1.01203C12.7582 0.95996 12.5433 1.08141 12.4896 1.28981L12.0421 2.86954C11.9884 2.83479 11.9526 2.81747 11.9167 2.78272C11.702 2.64383 11.4334 2.55701 11.1649 2.55701C10.6459 2.55701 10.1625 2.81735 9.91194 3.25132C9.69717 3.63323 9.67919 4.06721 9.85824 4.44915C10.0193 4.83105 10.3595 5.10883 10.7711 5.23029C10.9144 5.26504 11.0576 5.28235 11.2008 5.28235H11.3618L10.9143 6.86209C10.8606 7.07036 10.9859 7.27874 11.2008 7.33082L13.313 7.88638C13.4203 7.92113 13.5457 7.9037 13.6531 7.83431C13.7426 7.76493 13.8142 7.66067 13.8142 7.55653C13.832 7.29619 13.85 7.07047 13.832 6.86222C13.832 6.79284 13.832 6.74065 13.8499 6.68858C13.9036 6.51494 14.0289 6.37617 14.19 6.30667C14.3691 6.23729 14.548 6.23729 14.7271 6.34143C14.924 6.44556 15.0314 6.63652 15.0314 6.84479C15.0314 6.96636 14.9955 7.07049 14.924 7.17464C14.7986 7.34829 14.6912 7.55655 14.5838 7.78228C14.5301 7.88642 14.5301 8.00799 14.5838 8.11214C14.6375 8.21628 14.7271 8.28579 14.8344 8.32042L16.9469 8.84123C16.9827 8.85855 17.0184 8.85855 17.0543 8.85855C17.2333 8.85855 17.3944 8.73697 17.4302 8.58077L18.9875 3.00842C19.0412 2.80014 18.9159 2.57446 18.719 2.52239ZM16.7679 7.99058L15.5327 7.66072C15.5506 7.62597 15.5686 7.59134 15.5864 7.5739C15.7296 7.36563 15.8192 7.10517 15.8192 6.84481C15.837 6.34145 15.5507 5.87272 15.0852 5.64698C14.6914 5.43871 14.2439 5.42127 13.8501 5.59491C13.4562 5.75112 13.1698 6.08097 13.0446 6.48021C13.0087 6.6191 12.9909 6.75799 12.9909 6.89686V7.01844L11.7557 6.68858L12.2211 5.00472C12.2569 4.90059 12.2389 4.77901 12.1674 4.69232C12.0959 4.60549 11.9883 4.53611 11.881 4.53611C11.5945 4.51879 11.3619 4.50136 11.1291 4.51879C11.0576 4.51879 11.0038 4.51879 10.9501 4.50148C10.771 4.44941 10.6279 4.32784 10.5563 4.17162C10.4847 3.99798 10.4847 3.82446 10.5921 3.65081C10.6995 3.45985 10.9143 3.3384 11.1292 3.35571C11.2545 3.35571 11.3619 3.39047 11.4513 3.45985C11.6482 3.58143 11.863 3.70288 12.1136 3.80701C12.221 3.85908 12.3463 3.85908 12.4537 3.80701C12.5611 3.75494 12.6328 3.66812 12.6685 3.56398L13.1339 1.88013L18.1102 3.18208L16.7679 7.99058Z" fill="url(#paint0_linear_367_13115)"/>
<path d="M4.20177 11.4103C4.14808 11.584 4.13022 11.7923 4.18391 12.0005C4.27344 12.3824 4.59559 12.6775 4.97156 12.7644C5.68752 12.9206 6.33196 12.3998 6.33196 11.7402C6.33196 11.6186 6.31411 11.5145 6.27827 11.4103C6.20672 11.1846 6.13505 10.9416 6.09921 10.6986H8.47997V8.38979C8.24723 8.42454 8.01459 8.47661 7.78185 8.56343C7.67447 8.59818 7.56709 8.6155 7.44171 8.6155C6.7436 8.6155 6.20655 7.99056 6.38562 7.29622C6.47515 6.91431 6.77943 6.6192 7.17327 6.53238C7.38804 6.48031 7.60291 6.49762 7.79985 6.54969C8.03259 6.61908 8.24736 6.67127 8.4801 6.72334L8.47997 4.41454H2.46544C2.21484 4.41454 2.00006 4.6055 2.00006 4.86585V10.716H4.38081C4.34498 10.9417 4.2913 11.1673 4.20177 11.4103Z" fill="url(#paint1_linear_367_13115)"/>
<path d="M13.1699 10.0042C13.2414 9.81328 13.2414 9.605 13.1877 9.3966C13.0982 9.03199 12.776 8.73691 12.4001 8.65021C11.6841 8.47656 11.0397 8.99736 11.0397 9.65705C11.0397 9.77862 11.0575 9.88276 11.0934 9.98691C11.1649 10.2126 11.2366 10.4556 11.2724 10.6987L9.28547 10.6986V12.0353C9.375 12.0179 9.46453 12.0179 9.57191 12.0179C10.1448 12.0179 10.6817 12.261 11.0576 12.7122C11.4156 13.1462 11.541 13.7191 11.4156 14.2745C11.2545 14.9168 10.7354 15.4376 10.0731 15.6112C9.91201 15.646 9.75094 15.6806 9.58974 15.6806C9.50022 15.6806 9.39283 15.6806 9.30331 15.6633V17H14.5481C14.7987 17 15.0135 16.809 15.0135 16.5487L15.0136 10.6986H12.9909C13.0267 10.4556 13.0982 10.2299 13.1699 10.0042Z" fill="url(#paint2_linear_367_13115)"/>
<path d="M9.85829 14.8649C10.2343 14.778 10.5385 14.4656 10.6279 14.101C10.789 13.4067 10.252 12.7817 9.57186 12.7817C9.44649 12.7817 9.33911 12.799 9.23172 12.8338C8.99897 12.9032 8.74837 12.9727 8.49777 13.0074V11.4625L7.10166 11.4623C7.11952 11.5492 7.11952 11.636 7.11952 11.7401C7.11952 12.747 6.2782 13.5629 5.23994 13.5629C5.09673 13.5629 4.93565 13.5456 4.79243 13.5108C4.13015 13.3546 3.59311 12.8511 3.41407 12.2089C3.34252 11.9658 3.34252 11.7055 3.37824 11.4625L2 11.4623V16.5486C2 16.7917 2.19691 16.9999 2.46538 16.9999H8.49782L8.49794 14.674C8.74854 14.7087 8.99915 14.7781 9.23189 14.8476C9.41082 14.917 9.62552 14.9342 9.85829 14.8649Z" fill="url(#paint3_linear_367_13115)"/>
<defs>
<linearGradient id="paint0_linear_367_13115" x1="2" y1="1" x2="19" y2="1" gradientUnits="userSpaceOnUse">
<stop stop-color="#1B89B4"/>
<stop offset="1" stop-color="#65C6EC"/>
</linearGradient>
<linearGradient id="paint1_linear_367_13115" x1="2" y1="1" x2="19" y2="1" gradientUnits="userSpaceOnUse">
<stop stop-color="#1B89B4"/>
<stop offset="1" stop-color="#65C6EC"/>
</linearGradient>
<linearGradient id="paint2_linear_367_13115" x1="2" y1="1" x2="19" y2="1" gradientUnits="userSpaceOnUse">
<stop stop-color="#1B89B4"/>
<stop offset="1" stop-color="#65C6EC"/>
</linearGradient>
<linearGradient id="paint3_linear_367_13115" x1="2" y1="1" x2="19" y2="1" gradientUnits="userSpaceOnUse">
<stop stop-color="#1B89B4"/>
<stop offset="1" stop-color="#65C6EC"/>
</linearGradient>
</defs>
</svg>
