<svg width="20" height="20" viewBox="0 0 20 20" fill="none" xmlns="http://www.w3.org/2000/svg">
<path d="M16.1579 16.3H3.84211L1 19V3.7C1 2.215 2.27895 1 3.84211 1H16.1579C17.7211 1 19 2.215 19 3.7V13.6C19 15.085 17.7211 16.3 16.1579 16.3Z" fill="#34A1CB"/>
<path d="M9.05176 7.29883H10.9465V12.2488H9.05176V7.29883Z" fill="white"/>
<path d="M9.99913 5.94941C10.5223 5.94941 10.9465 5.54647 10.9465 5.04941C10.9465 4.55236 10.5223 4.14941 9.99913 4.14941C9.47591 4.14941 9.05176 4.55236 9.05176 5.04941C9.05176 5.54647 9.47591 5.94941 9.99913 5.94941Z" fill="white"/>
</svg>
