<svg width="20" height="20" viewBox="0 0 20 20" fill="none" xmlns="http://www.w3.org/2000/svg">
<path d="M13.0769 8.76923C13.0769 7.58333 12.6554 6.56891 11.8125 5.72596C10.9696 4.88301 9.95513 4.46154 8.76923 4.46154C7.58333 4.46154 6.56891 4.88301 5.72596 5.72596C4.88301 6.56891 4.46154 7.58333 4.46154 8.76923C4.46154 9.95513 4.88301 10.9696 5.72596 11.8125C6.56891 12.6554 7.58333 13.0769 8.76923 13.0769C9.95513 13.0769 10.9696 12.6554 11.8125 11.8125C12.6554 10.9696 13.0769 9.95513 13.0769 8.76923ZM18 16.7692C18 17.1026 17.8782 17.391 17.6346 17.6346C17.391 17.8782 17.1026 18 16.7692 18C16.4231 18 16.1346 17.8782 15.9038 17.6346L12.6058 14.3462C11.4583 15.141 10.1795 15.5385 8.76923 15.5385C7.85256 15.5385 6.97596 15.3606 6.13942 15.0048C5.30288 14.649 4.58173 14.1683 3.97596 13.5625C3.37019 12.9567 2.88942 12.2356 2.53365 11.399C2.17788 10.5625 2 9.6859 2 8.76923C2 7.85256 2.17788 6.97596 2.53365 6.13942C2.88942 5.30288 3.37019 4.58173 3.97596 3.97596C4.58173 3.37019 5.30288 2.88942 6.13942 2.53365C6.97596 2.17788 7.85256 2 8.76923 2C9.6859 2 10.5625 2.17788 11.399 2.53365C12.2356 2.88942 12.9567 3.37019 13.5625 3.97596C14.1683 4.58173 14.649 5.30288 15.0048 6.13942C15.3606 6.97596 15.5385 7.85256 15.5385 8.76923C15.5385 10.1795 15.141 11.4583 14.3462 12.6058L17.6442 15.9038C17.8814 16.141 18 16.4295 18 16.7692Z" fill="#8D19B3"/>
</svg>
