<svg width="20" height="20" viewBox="0 0 20 20" fill="none" xmlns="http://www.w3.org/2000/svg">
<path fill-rule="evenodd" clip-rule="evenodd" d="M2.70294 3.68342C3.15303 3.24583 3.76348 3 4.4 3H15.6C16.2365 3 16.847 3.24583 17.2971 3.68342C17.7471 4.121 18 4.71449 18 5.33333V14.6667C18 15.2855 17.7471 15.879 17.2971 16.3166C16.847 16.7542 16.2365 17 15.6 17H4.4C3.76348 17 3.15303 16.7542 2.70294 16.3166C2.25286 15.879 2 15.2855 2 14.6667V5.33333C2 4.7145 2.25286 4.121 2.70294 3.68342ZM4.4 4.55556C4.18783 4.55556 3.98434 4.6375 3.83431 4.78336C3.68429 4.92922 3.6 5.12705 3.6 5.33333V14.6667C3.6 14.8729 3.68429 15.0708 3.83431 15.2166C3.98434 15.3625 4.18783 15.4444 4.4 15.4444H15.6C15.8122 15.4444 16.0157 15.3625 16.1657 15.2166C16.3157 15.0708 16.4 14.8729 16.4 14.6667V5.33333C16.4 5.12705 16.3157 4.92922 16.1657 4.78336C16.0157 4.6375 15.8122 4.55556 15.6 4.55556H4.4ZM5.2 6.88889C5.2 6.45933 5.55817 6.11111 6 6.11111H9.2C9.64183 6.11111 10 6.45933 10 6.88889V10C10 10.4296 9.64183 10.7778 9.2 10.7778H6C5.55817 10.7778 5.2 10.4296 5.2 10V6.88889ZM6.8 7.66667V9.22222H8.4V7.66667H6.8ZM11.6 6.88889C11.6 6.45933 11.9582 6.11111 12.4 6.11111H14C14.4418 6.11111 14.8 6.45933 14.8 6.88889C14.8 7.31844 14.4418 7.66667 14 7.66667H12.4C11.9582 7.66667 11.6 7.31844 11.6 6.88889ZM11.6 10C11.6 9.57045 11.9582 9.22222 12.4 9.22222H14C14.4418 9.22222 14.8 9.57045 14.8 10C14.8 10.4296 14.4418 10.7778 14 10.7778H12.4C11.9582 10.7778 11.6 10.4296 11.6 10ZM5.2 13.1111C5.2 12.6816 5.55817 12.3333 6 12.3333H14C14.4418 12.3333 14.8 12.6816 14.8 13.1111C14.8 13.5407 14.4418 13.8889 14 13.8889H6C5.55817 13.8889 5.2 13.5407 5.2 13.1111Z" fill="url(#paint0_linear_334_12866)"/>
<defs>
<linearGradient id="paint0_linear_334_12866" x1="2" y1="3" x2="18" y2="3" gradientUnits="userSpaceOnUse">
<stop stop-color="#500C80"/>
<stop offset="1" stop-color="#654CBA"/>
</linearGradient>
</defs>
</svg>
