<svg width="20" height="20" viewBox="0 0 20 20" fill="none" xmlns="http://www.w3.org/2000/svg">
<path d="M7.50187 16.1982C7.50219 16.3947 7.56031 16.5872 7.66937 16.751L8.20344 17.5538C8.29467 17.691 8.41841 17.8035 8.56366 17.8814C8.7089 17.9593 8.87114 18 9.03594 18H10.9644C11.1292 18 11.2914 17.9593 11.4367 17.8814C11.5819 17.8035 11.7056 17.691 11.7969 17.5538L12.3309 16.751C12.44 16.5872 12.4982 16.3949 12.4984 16.1982L12.4997 14.9998H7.50031L7.50187 16.1982ZM4.5 7.49991C4.5 8.88644 5.01406 10.1514 5.86125 11.118C6.3775 11.707 7.185 12.9376 7.49281 13.9757C7.49406 13.9838 7.495 13.992 7.49625 14.0001H12.5037C12.505 13.992 12.5059 13.9841 12.5072 13.9757C12.815 12.9376 13.6225 11.707 14.1388 11.118C14.9859 10.1514 15.5 8.88644 15.5 7.49991C15.5 4.45654 13.0284 1.99065 9.98281 2.00003C6.795 2.00971 4.5 4.59278 4.5 7.49991ZM10 4.99996C8.62156 4.99996 7.5 6.1215 7.5 7.49991C7.5 7.77615 7.27625 7.9999 7 7.9999C6.72375 7.9999 6.5 7.77615 6.5 7.49991C6.5 5.56995 8.07 3.99998 10 3.99998C10.2763 3.99998 10.5 4.22373 10.5 4.49997C10.5 4.77622 10.2763 4.99996 10 4.99996Z" fill="url(#paint0_linear_334_12864)"/>
<defs>
<linearGradient id="paint0_linear_334_12864" x1="4.5" y1="2" x2="15.5" y2="2" gradientUnits="userSpaceOnUse">
<stop stop-color="#1B89B4"/>
<stop offset="1" stop-color="#65C6EC"/>
</linearGradient>
</defs>
</svg>
