<svg width="20" height="20" viewBox="0 0 20 20" fill="none" xmlns="http://www.w3.org/2000/svg">
<path d="M12.6976 10.3911C12.6976 11.821 11.4877 12.9802 9.99511 12.9802C8.50255 12.9802 7.29259 11.821 7.29259 10.3911C7.29259 8.96108 8.50255 7.80188 9.99511 7.80188C11.4877 7.80186 12.6976 8.96109 12.6976 10.3911ZM10 5C8.45462 5.00685 6.85279 5.38307 5.33644 6.10335C4.21057 6.66018 3.11335 7.44579 2.16091 8.41547C1.69312 8.91045 1.09647 9.62718 1 10.3919C1.0114 11.0543 1.72195 11.8719 2.16091 12.3683C3.05405 13.2999 4.1227 14.0636 5.33644 14.681C6.75051 15.3673 8.31568 15.7624 10 15.7844C11.5468 15.7774 13.1483 15.3969 14.663 14.681C15.7889 14.1242 16.8866 13.338 17.8391 12.3683C18.3069 11.8734 18.9035 11.1566 19 10.3919C18.9886 9.72948 18.278 8.91183 17.8391 8.41544C16.9459 7.48385 15.8767 6.72075 14.663 6.10332C13.2497 5.41758 11.6806 5.02518 10 5ZM9.99886 6.33872C12.3406 6.33872 14.239 8.15363 14.239 10.3925C14.239 12.6313 12.3406 14.4462 9.99886 14.4462C7.65707 14.4462 5.75873 12.6313 5.75873 10.3925C5.75873 8.15363 7.65707 6.33872 9.99886 6.33872Z" fill="#808080"/>
</svg>
