<svg width="20" height="20" viewBox="0 0 20 20" fill="none" xmlns="http://www.w3.org/2000/svg">
<path d="M1.84424 19.375C0.812989 19.375 0.344239 18.625 0.812989 17.7187L9.15674 1.3125C9.62549 0.40625 10.3755 0.40625 10.8442 1.3125L19.188 17.7187C19.6567 18.625 19.188 19.375 18.1567 19.375H1.84424Z" fill="#FEAB0B"/>
<path d="M8.68766 7.375L9.56266 13.1563C9.65641 13.7188 10.3752 13.7188 10.4689 13.1563L11.3127 7.375C11.4689 5.125 8.53141 5.125 8.68766 7.375" fill="white"/>
<path d="M10.0005 16.8145C10.7254 16.8145 11.313 16.2268 11.313 15.502C11.313 14.7771 10.7254 14.1895 10.0005 14.1895C9.27561 14.1895 8.68799 14.7771 8.68799 15.502C8.68799 16.2268 9.27561 16.8145 10.0005 16.8145Z" fill="white"/>
</svg>
