<svg width="20" height="21" viewBox="0 0 20 21" fill="none" xmlns="http://www.w3.org/2000/svg">
<path d="M7.17192 14.743C6.98428 14.9307 6.72979 15.0361 6.46442 15.0361C6.19906 15.0361 5.94456 14.9307 5.75692 14.743C5.56928 14.5554 5.46387 14.3009 5.46387 14.0355C5.46387 13.9042 5.48975 13.774 5.54003 13.6527C5.59031 13.5313 5.66401 13.421 5.75692 13.328L12.8279 6.25805C13.0154 6.07041 13.2698 5.96494 13.5351 5.96484C13.8003 5.96475 14.0548 6.07004 14.2424 6.25755C14.4301 6.44505 14.5355 6.69942 14.5356 6.96469C14.5357 7.22996 14.4304 7.48441 14.2429 7.67205L7.17192 14.742V14.743Z" fill="#329CC5"/>
<path d="M5.75692 7.6729C5.66401 7.57999 5.59031 7.46969 5.54003 7.3483C5.48975 7.2269 5.46387 7.09679 5.46387 6.9654C5.46387 6.834 5.48975 6.7039 5.54003 6.5825C5.59031 6.46111 5.66401 6.35081 5.75692 6.2579C5.84983 6.16499 5.96013 6.09129 6.08153 6.04101C6.20292 5.99072 6.33303 5.96484 6.46442 5.96484C6.59582 5.96484 6.72593 5.99072 6.84732 6.04101C6.96871 6.09129 7.07901 6.16499 7.17192 6.2579L14.2419 13.3289C14.4296 13.5164 14.535 13.7708 14.5351 14.036C14.5352 14.3013 14.4299 14.5558 14.2424 14.7434C14.0549 14.931 13.8005 15.0365 13.5353 15.0366C13.27 15.0367 13.0156 14.9314 12.8279 14.7439L5.75792 7.6729H5.75692Z" fill="#329CC5"/>
</svg>
