<svg width="20" height="20" viewBox="0 0 20 20" fill="none" xmlns="http://www.w3.org/2000/svg">
<path d="M10 17C6.13359 17 3 13.8664 3 10C3 6.13359 6.13359 3 10 3C13.8664 3 17 6.13359 17 10C17 13.8664 13.8664 17 10 17ZM9.34375 10C9.34375 10.2188 9.45312 10.4238 9.63633 10.5223L12.2613 12.2723C12.5621 12.4965 12.9695 12.4145 13.1473 12.1137C13.3715 11.8129 13.2895 11.4055 12.9887 11.2031L10.6562 9.65V6.28125C10.6562 5.91758 10.3637 5.625 9.97539 5.625C9.63633 5.625 9.31914 5.91758 9.31914 6.28125L9.34375 10Z" fill="#B3B3B3"/>
</svg>
