<svg width="20" height="20" viewBox="0 0 20 20" fill="none" xmlns="http://www.w3.org/2000/svg">
<path d="M17.5 14H4V4.5C4 4.22375 3.77625 4 3.5 4H2.5C2.22375 4 2 4.22375 2 4.5V15C2 15.5522 2.44781 16 3 16H17.5C17.7763 16 18 15.7763 18 15.5V14.5C18 14.2237 17.7763 14 17.5 14ZM16.5 5H12.8106C12.1425 5 11.8078 5.80781 12.2803 6.28031L13.2928 7.29281L11 9.58594L8.70719 7.29313C8.31656 6.9025 7.68344 6.9025 7.29313 7.29313L5.14656 9.43969C4.95125 9.635 4.95125 9.95156 5.14656 10.1469L5.85344 10.8538C6.04875 11.0491 6.36531 11.0491 6.56063 10.8538L8 9.41406L10.2928 11.7069C10.6834 12.0975 11.3166 12.0975 11.7069 11.7069L14.7069 8.70687L15.7194 9.71938C16.1919 10.1919 16.9997 9.85719 16.9997 9.18906V5.5C17 5.22375 16.7763 5 16.5 5Z" fill="url(#paint0_linear_334_12863)"/>
<defs>
<linearGradient id="paint0_linear_334_12863" x1="2" y1="4" x2="18" y2="4" gradientUnits="userSpaceOnUse">
<stop stop-color="#500C80"/>
<stop offset="1" stop-color="#654CBA"/>
</linearGradient>
</defs>
</svg>
