<svg width="20" height="20" viewBox="0 0 20 20" fill="none" xmlns="http://www.w3.org/2000/svg">
<path d="M11.0459 4.75304C10.7025 4.7159 10.3537 4.69462 10 4.68932C8.45462 4.69618 6.85265 5.07208 5.3363 5.79236C4.21044 6.34919 3.11371 7.1353 2.16125 8.10497C1.69348 8.59997 1.09647 9.3167 1 10.0814C1.0114 10.7438 1.72229 11.5615 2.16125 12.0579C3.0544 12.9895 4.12257 13.7531 5.3363 14.3705C5.37755 14.3905 5.41895 14.4103 5.46044 14.4298L4.33436 16.3963L5.86444 17.3006L14.1357 2.90012L12.6629 2L11.0459 4.75304V4.75304ZM14.5384 5.73523L13.4145 7.68308C13.9316 8.35481 14.2385 9.18317 14.2385 10.0814C14.2385 12.3203 12.3407 14.1354 9.99889 14.1354C9.89766 14.1354 9.79954 14.1244 9.70006 14.1178L8.95628 15.4054C9.2993 15.4421 9.64614 15.4689 9.99999 15.4735C11.5468 15.4666 13.1479 15.0863 14.6626 14.3705C15.7885 13.8136 16.8863 13.0275 17.8387 12.0579C18.3065 11.5629 18.9035 10.8461 19 10.0814C18.9886 9.41899 18.2777 8.60137 17.8387 8.10496C16.9456 7.17337 15.8763 6.40976 14.6626 5.79233C14.6216 5.77247 14.5797 5.75461 14.5384 5.73523V5.73523ZM9.9989 6.02747C10.1016 6.02747 10.2035 6.03158 10.3043 6.03845L9.4331 7.54687C8.21039 7.79476 7.29296 8.83507 7.29296 10.0803C7.29296 10.3931 7.35058 10.6926 7.45666 10.9702C7.45678 10.9705 7.45654 10.971 7.45666 10.9713L6.58324 12.4841C6.06497 11.8118 5.75926 10.9807 5.75926 10.0814C5.75927 7.84256 7.65712 6.02746 9.9989 6.02747V6.02747ZM12.5334 9.208L10.5702 12.6094C11.7863 12.3568 12.6971 11.3212 12.6971 10.0803C12.6971 9.77321 12.6359 9.48124 12.5334 9.208V9.208Z" fill="#808080"/>
</svg>
