<svg width="20" height="20" viewBox="0 0 20 20" fill="none" xmlns="http://www.w3.org/2000/svg">
<path d="M4.4 16H5.1V7.10526H4.4C4.0287 7.10526 3.6726 7.24944 3.41005 7.50606C3.1475 7.76269 3 8.11076 3 8.47368V14.6316C3 14.9945 3.1475 15.3426 3.41005 15.5992C3.6726 15.8558 4.0287 16 4.4 16ZM15.6 7.10526H10.7L11.4854 4.80084C11.5555 4.59518 11.5746 4.37618 11.5411 4.1619C11.5076 3.94761 11.4226 3.74416 11.2929 3.5683C11.1632 3.39245 10.9927 3.24922 10.7953 3.15041C10.5979 3.05161 10.3793 3.00006 10.1575 3H10L6.5 6.72074V16H14.2L16.9559 10.0823L17 9.88179V8.47368C17 8.11076 16.8525 7.76269 16.5899 7.50606C16.3274 7.24944 15.9713 7.10526 15.6 7.10526Z" fill="url(#paint0_linear_334_12867)"/>
<defs>
<linearGradient id="paint0_linear_334_12867" x1="3" y1="3" x2="17" y2="3" gradientUnits="userSpaceOnUse">
<stop stop-color="#1B89B4"/>
<stop offset="1" stop-color="#65C6EC"/>
</linearGradient>
</defs>
</svg>
