<svg width="20" height="20" viewBox="0 0 20 20" fill="none" xmlns="http://www.w3.org/2000/svg">
<path d="M10 2C5.58127 2 2 5.58019 2 10C2 14.4177 5.58127 17.9995 10 17.9995C14.4188 17.9995 18.0001 14.4177 18.0001 10C17.9995 5.58019 14.4183 2 10 2ZM10 16.6945C6.30121 16.6945 3.30391 13.6978 3.30391 9.99949C3.30391 6.30067 6.30121 3.30282 10 3.30282C13.6978 3.30282 16.6951 6.30121 16.6951 9.99949C16.6951 13.6978 13.6978 16.6945 10 16.6945Z" fill="#728E9E"/>
<path d="M9.79252 12.4752C9.06771 12.4752 8.55254 12.9904 8.55254 13.7428C8.55254 14.4666 9.05416 15.0099 9.79252 15.0099C10.5585 15.0099 11.046 14.4666 11.046 13.7428C11.0314 12.9904 10.5433 12.4752 9.79252 12.4752Z" fill="#728E9E"/>
<path d="M9.98592 5.30029C8.99783 5.30029 8.17659 5.57819 7.66034 5.87072L8.13434 7.38968C8.4962 7.13941 9.05363 6.97148 9.513 6.97148C10.2091 6.98611 10.5309 7.32035 10.5309 7.80735C10.5309 8.2678 10.1679 8.72663 9.72156 9.27052C9.09534 10.0094 8.85807 10.7337 8.90032 11.4439L8.91387 11.8063H10.7665V11.5555C10.753 10.9282 10.9762 10.3843 11.4767 9.81385C12.0071 9.2288 12.6744 8.53216 12.6744 7.47311C12.6744 6.31655 11.8261 5.30029 9.98592 5.30029Z" fill="#728E9E"/>
</svg>
