<svg width="20" height="20" viewBox="0 0 20 20" fill="none" xmlns="http://www.w3.org/2000/svg">
<path d="M10 18.8334C10.5161 18.8341 11.0195 18.6739 11.4404 18.3752C11.8613 18.0765 12.1786 17.6541 12.3483 17.1667H7.65167C7.82139 17.6541 8.13873 18.0765 8.55959 18.3752C8.98045 18.6739 9.48392 18.8341 10 18.8334V18.8334ZM15.8333 12.6551V8.83342C15.8333 6.15258 14.0125 3.89425 11.5458 3.21508C11.3017 2.60008 10.705 2.16675 10 2.16675C9.295 2.16675 8.69833 2.60008 8.45417 3.21508C5.9875 3.89508 4.16667 6.15258 4.16667 8.83342V12.6551L2.74417 14.0776C2.66663 14.1548 2.60514 14.2467 2.56324 14.3478C2.52133 14.4489 2.49984 14.5573 2.5 14.6667V15.5001C2.5 15.7211 2.5878 15.9331 2.74408 16.0893C2.90036 16.2456 3.11232 16.3334 3.33333 16.3334H16.6667C16.8877 16.3334 17.0996 16.2456 17.2559 16.0893C17.4122 15.9331 17.5 15.7211 17.5 15.5001V14.6667C17.5002 14.5573 17.4787 14.4489 17.4368 14.3478C17.3949 14.2467 17.3334 14.1548 17.2558 14.0776L15.8333 12.6551Z" fill="#34A1CB"/>
</svg>
